<?xml version="1.0" encoding="UTF-8"?><svg xmlns="http://www.w3.org/2000/svg" xmlns:xlink="http://www.w3.org/1999/xlink" viewBox="0 0 1920 1080"><defs><style>.cls-1{fill:#ffd05a;}.cls-2{clip-path:url(#clippath-2);}.cls-3{clip-path:url(#clippath-1);}.cls-4{clip-path:url(#clippath);}.cls-5{fill:#ffc107;}.cls-6{fill:none;}.cls-7{fill:#30bf4b;fill-rule:evenodd;}.cls-8{fill:#ff954d;}</style><clipPath id="clippath"><rect class="cls-6" width="1920" height="1080"/></clipPath><clipPath id="clippath-1"><rect class="cls-6" x="-1995.6" width="1920.1" height="1080.01"/></clipPath><clipPath id="clippath-2"><rect class="cls-6" x="2010.61" width="1920" height="1080"/></clipPath></defs><g id="Chorale"><rect class="cls-5" width="1920" height="1080"/><g class="cls-4"><g><path class="cls-1" d="M224.11,131.16c-3.51-1.02-7.18-1.68-10.5-3.15-6.22-2.76-10.76-7.37-12.22-14.21-1.71-8.05,1.47-14.5,7.93-19.05,10.03-7.07,20.84-7.41,31.93-2.51,.52,.23,1.02,.51,1.8,.89v-2.04c0-22.93,.05-45.85-.05-68.78-.02-3.67,1.33-5.78,4.73-7.23,23.75-10.07,47.48-20.2,71.13-30.52,4.82-2.1,8.52,1,8.5,5.55-.15,28.83-.16,57.67-.03,86.5,.04,8.87-3.95,15.03-11.42,19.23-10.55,5.93-25.31,4.65-34.13-2.88-9.99-8.53-9.51-22.37,1.28-29.86,10.08-7,20.87-7.35,31.96-2.43,.52,.23,1.02,.49,1.66,.8V18.21c-.66,.24-1.3,.44-1.9,.7-19.85,8.51-39.7,17.04-59.57,25.5-1.31,.56-1.65,1.23-1.65,2.58,.04,20.18,.03,40.36,.03,60.53,0,10.74-4.92,17.9-15.06,21.57-2.61,.94-5.4,1.39-8.1,2.07h-6.32Zm29.48-97.53c.75-.3,1.28-.5,1.81-.72,11.32-4.85,22.63-9.7,33.95-14.55,8.64-3.7,17.28-7.38,25.89-11.14,.62-.27,1.43-1,1.45-1.55,.15-2.79,.07-5.6,.07-8.62-.83,.34-1.53,.61-2.21,.91-7.78,3.33-15.55,6.67-23.33,10.01-12.07,5.17-24.15,10.33-36.2,15.55-.6,.26-1.34,1.03-1.37,1.6-.14,2.74-.06,5.49-.06,8.52Zm47.17,34.34c-4.05,.12-7.99,1.04-11.42,3.54-5.5,4.01-5.53,9.93-.08,13.97,6.33,4.7,16.91,4.75,23.28,.11,5.63-4.1,5.61-10.14-.08-14.19-3.46-2.46-7.4-3.35-11.7-3.43Zm-73.56,52.68c4.17-.08,8.11-.98,11.57-3.44,5.68-4.05,5.68-10.1,.05-14.19-6.4-4.64-16.93-4.58-23.27,.13-5.38,4-5.42,9.88-.04,13.87,3.46,2.57,7.45,3.52,11.7,3.63Z"/><path class="cls-1" d="M147.6,43.77c.89-3.21,1.97-6.33,4.16-8.95,4.58-5.49,10.6-8.29,17.54-9.3,7.1-1.04,13.83,.2,20.42,3.76v-2.05c0-22.81,0-45.62,0-68.43,0-.47,.02-.94,0-1.4-.1-2.53,.88-4.45,3.25-5.49,2.21-.97,4.27-.42,6.3,1.69,7.23,7.51,14.04,15.4,19.74,24.14,3.37,5.17,6.39,10.61,9.06,16.17,1.64,3.43,2.56,7.27,3.35,11.01,1.33,6.29-.14,12.28-3.33,17.7-2.27,3.85-5.02,7.45-7.83,10.94-2.15,2.68-5.45,2.83-7.75,.76-2.32-2.09-2.24-5.27,.09-7.95,1.49-1.72,2.88-3.53,4.24-5.36,5.06-6.77,5.52-13.95,2.25-21.66-3.76-8.86-9.13-16.69-14.98-24.23-1.14-1.47-2.34-2.9-3.86-4.77v2.26c0,23.75-.14,47.49,.07,71.24,.09,10.23-4.72,17.01-13.71,20.75-11.3,4.71-22.21,3.63-32.01-4.11-3.59-2.83-5.84-6.64-6.69-11.2-.04-.21-.19-.41-.29-.61v-4.91Zm26.29,13c4.16-.09,8.11-.99,11.56-3.46,5.67-4.06,5.65-10.11,0-14.19-6.42-4.63-16.94-4.56-23.27,.16-5.37,4-5.38,9.89,0,13.87,3.47,2.56,7.45,3.51,11.71,3.62Z"/></g><g><path class="cls-1" d="M705.79,131.16c-3.51-1.02-7.18-1.68-10.5-3.15-6.22-2.76-10.76-7.37-12.22-14.21-1.71-8.05,1.47-14.5,7.93-19.05,10.03-7.07,20.84-7.41,31.93-2.51,.52,.23,1.02,.51,1.8,.89v-2.04c0-22.93,.05-45.85-.05-68.78-.02-3.67,1.33-5.78,4.73-7.23,23.75-10.07,47.48-20.2,71.13-30.52,4.82-2.1,8.52,1,8.5,5.55-.15,28.83-.16,57.67-.03,86.5,.04,8.87-3.95,15.03-11.42,19.23-10.55,5.93-25.31,4.65-34.13-2.88-9.99-8.53-9.51-22.37,1.28-29.86,10.08-7,20.87-7.35,31.96-2.43,.52,.23,1.02,.49,1.66,.8V18.21c-.66,.24-1.3,.44-1.9,.7-19.85,8.51-39.7,17.04-59.57,25.5-1.31,.56-1.65,1.23-1.65,2.58,.04,20.18,.03,40.36,.03,60.53,0,10.74-4.92,17.9-15.06,21.57-2.61,.94-5.4,1.39-8.1,2.07h-6.32Zm29.48-97.53c.75-.3,1.28-.5,1.81-.72,11.32-4.85,22.63-9.7,33.95-14.55,8.64-3.7,17.28-7.38,25.89-11.14,.62-.27,1.43-1,1.45-1.55,.15-2.79,.07-5.6,.07-8.62-.83,.34-1.53,.61-2.21,.91-7.78,3.33-15.55,6.67-23.33,10.01-12.07,5.17-24.15,10.33-36.2,15.55-.6,.26-1.34,1.03-1.37,1.6-.14,2.74-.06,5.49-.06,8.52Zm47.17,34.34c-4.05,.12-7.99,1.04-11.42,3.54-5.5,4.01-5.53,9.93-.08,13.97,6.33,4.7,16.91,4.75,23.28,.11,5.63-4.1,5.61-10.14-.08-14.19-3.46-2.46-7.4-3.35-11.7-3.43Zm-73.56,52.68c4.17-.08,8.11-.98,11.57-3.44,5.68-4.05,5.68-10.1,.05-14.19-6.4-4.64-16.93-4.58-23.27,.13-5.38,4-5.42,9.88-.04,13.87,3.46,2.57,7.45,3.52,11.7,3.63Z"/><path class="cls-1" d="M629.28,43.77c.89-3.21,1.97-6.33,4.16-8.95,4.58-5.49,10.6-8.29,17.54-9.3,7.1-1.04,13.83,.2,20.42,3.76v-2.05c0-22.81,0-45.62,0-68.43,0-.47,.02-.94,0-1.4-.1-2.53,.88-4.45,3.25-5.49,2.21-.97,4.27-.42,6.3,1.69,7.23,7.51,14.04,15.4,19.74,24.14,3.37,5.17,6.39,10.61,9.06,16.17,1.64,3.43,2.56,7.27,3.35,11.01,1.33,6.29-.14,12.28-3.33,17.7-2.27,3.85-5.02,7.45-7.83,10.94-2.15,2.68-5.45,2.83-7.75,.76-2.32-2.09-2.24-5.27,.09-7.95,1.49-1.72,2.88-3.53,4.24-5.36,5.06-6.77,5.52-13.95,2.25-21.66-3.76-8.86-9.13-16.69-14.98-24.23-1.14-1.47-2.34-2.9-3.86-4.77v2.26c0,23.75-.14,47.49,.07,71.24,.09,10.23-4.72,17.01-13.71,20.75-11.3,4.71-22.21,3.63-32.01-4.11-3.59-2.83-5.84-6.64-6.69-11.2-.04-.21-.19-.41-.29-.61v-4.91Zm26.29,13c4.16-.09,8.11-.99,11.56-3.46,5.67-4.06,5.65-10.11,0-14.19-6.42-4.63-16.94-4.56-23.27,.16-5.37,4-5.38,9.89,0,13.87,3.47,2.56,7.45,3.51,11.71,3.62Z"/></g><g><path class="cls-1" d="M1187.46,131.16c-3.51-1.02-7.18-1.68-10.5-3.15-6.22-2.76-10.76-7.37-12.22-14.21-1.71-8.05,1.47-14.5,7.93-19.05,10.03-7.07,20.84-7.41,31.93-2.51,.52,.23,1.02,.51,1.8,.89v-2.04c0-22.93,.05-45.85-.05-68.78-.02-3.67,1.33-5.78,4.73-7.23,23.75-10.07,47.48-20.2,71.13-30.52,4.82-2.1,8.52,1,8.5,5.55-.15,28.83-.16,57.67-.03,86.5,.04,8.87-3.95,15.03-11.42,19.23-10.55,5.93-25.31,4.65-34.13-2.88-9.99-8.53-9.51-22.37,1.28-29.86,10.08-7,20.87-7.35,31.96-2.43,.52,.23,1.02,.49,1.66,.8V18.21c-.66,.24-1.3,.44-1.9,.7-19.85,8.51-39.7,17.04-59.57,25.5-1.31,.56-1.65,1.23-1.65,2.58,.04,20.18,.03,40.36,.03,60.53,0,10.74-4.92,17.9-15.06,21.57-2.61,.94-5.4,1.39-8.1,2.07h-6.32Zm29.48-97.53c.75-.3,1.28-.5,1.81-.72,11.32-4.85,22.63-9.7,33.95-14.55,8.64-3.7,17.28-7.38,25.89-11.14,.62-.27,1.43-1,1.45-1.55,.15-2.79,.07-5.6,.07-8.62-.83,.34-1.53,.61-2.21,.91-7.78,3.33-15.55,6.67-23.33,10.01-12.07,5.17-24.15,10.33-36.2,15.55-.6,.26-1.34,1.03-1.37,1.6-.14,2.74-.06,5.49-.06,8.52Zm47.17,34.34c-4.05,.12-7.99,1.04-11.42,3.54-5.5,4.01-5.53,9.93-.08,13.97,6.33,4.7,16.91,4.75,23.28,.11,5.63-4.1,5.61-10.14-.08-14.19-3.46-2.46-7.4-3.35-11.7-3.43Zm-73.56,52.68c4.17-.08,8.11-.98,11.57-3.44,5.68-4.05,5.68-10.1,.05-14.19-6.4-4.64-16.93-4.58-23.27,.13-5.38,4-5.42,9.88-.04,13.87,3.46,2.57,7.45,3.52,11.7,3.63Z"/><path class="cls-1" d="M1110.95,43.77c.89-3.21,1.97-6.33,4.16-8.95,4.58-5.49,10.6-8.29,17.54-9.3,7.1-1.04,13.83,.2,20.42,3.76v-2.05c0-22.81,0-45.62,0-68.43,0-.47,.02-.94,0-1.4-.1-2.53,.88-4.45,3.25-5.49,2.21-.97,4.27-.42,6.3,1.69,7.23,7.51,14.04,15.4,19.74,24.14,3.37,5.17,6.39,10.61,9.06,16.17,1.64,3.43,2.56,7.27,3.35,11.01,1.33,6.29-.14,12.28-3.33,17.7-2.27,3.85-5.02,7.45-7.83,10.94-2.15,2.68-5.45,2.83-7.75,.76-2.32-2.09-2.24-5.27,.09-7.95,1.49-1.72,2.88-3.53,4.24-5.36,5.06-6.77,5.52-13.95,2.25-21.66-3.76-8.86-9.13-16.69-14.98-24.23-1.14-1.47-2.34-2.9-3.86-4.77v2.26c0,23.75-.14,47.49,.07,71.24,.09,10.23-4.72,17.01-13.71,20.75-11.3,4.71-22.21,3.63-32.01-4.11-3.59-2.83-5.84-6.64-6.69-11.2-.04-.21-.19-.41-.29-.61v-4.91Zm26.29,13c4.16-.09,8.11-.99,11.56-3.46,5.67-4.06,5.65-10.11,0-14.19-6.42-4.63-16.94-4.56-23.27,.16-5.37,4-5.38,9.89,0,13.87,3.47,2.56,7.45,3.51,11.71,3.62Z"/></g><g><path class="cls-1" d="M1669.14,131.16c-3.51-1.02-7.18-1.68-10.5-3.15-6.22-2.76-10.76-7.37-12.22-14.21-1.71-8.05,1.47-14.5,7.93-19.05,10.03-7.07,20.84-7.41,31.93-2.51,.52,.23,1.02,.51,1.8,.89v-2.04c0-22.93,.05-45.85-.05-68.78-.02-3.67,1.33-5.78,4.73-7.23,23.75-10.07,47.48-20.2,71.13-30.52,4.82-2.1,8.52,1,8.5,5.55-.15,28.83-.16,57.67-.03,86.5,.04,8.87-3.95,15.03-11.42,19.23-10.55,5.93-25.31,4.65-34.13-2.88-9.99-8.53-9.51-22.37,1.28-29.86,10.08-7,20.87-7.35,31.96-2.43,.52,.23,1.02,.49,1.66,.8V18.21c-.66,.24-1.3,.44-1.9,.7-19.85,8.51-39.7,17.04-59.57,25.5-1.31,.56-1.65,1.23-1.65,2.58,.04,20.18,.03,40.36,.03,60.53,0,10.74-4.92,17.9-15.06,21.57-2.61,.94-5.4,1.39-8.1,2.07h-6.32Zm29.48-97.53c.75-.3,1.28-.5,1.81-.72,11.32-4.85,22.63-9.7,33.95-14.55,8.64-3.7,17.28-7.38,25.89-11.14,.62-.27,1.43-1,1.45-1.55,.15-2.79,.07-5.6,.07-8.62-.83,.34-1.53,.61-2.21,.91-7.78,3.33-15.55,6.67-23.33,10.01-12.07,5.17-24.15,10.33-36.2,15.55-.6,.26-1.34,1.03-1.37,1.6-.14,2.74-.06,5.49-.06,8.52Zm47.17,34.34c-4.05,.12-7.99,1.04-11.42,3.54-5.5,4.01-5.53,9.93-.08,13.97,6.33,4.7,16.91,4.75,23.28,.11,5.63-4.1,5.61-10.14-.08-14.19-3.46-2.46-7.4-3.35-11.7-3.43Zm-73.56,52.68c4.17-.08,8.11-.98,11.57-3.44,5.68-4.05,5.68-10.1,.05-14.19-6.4-4.64-16.93-4.58-23.27,.13-5.38,4-5.42,9.88-.04,13.87,3.46,2.57,7.45,3.52,11.7,3.63Z"/><path class="cls-1" d="M1592.63,43.77c.89-3.21,1.97-6.33,4.16-8.95,4.58-5.49,10.6-8.29,17.54-9.3,7.1-1.04,13.83,.2,20.42,3.76v-2.05c0-22.81,0-45.62,0-68.43,0-.47,.02-.94,0-1.4-.1-2.53,.88-4.45,3.25-5.49,2.21-.97,4.27-.42,6.3,1.69,7.23,7.51,14.04,15.4,19.74,24.14,3.37,5.17,6.39,10.61,9.06,16.17,1.64,3.43,2.56,7.27,3.35,11.01,1.33,6.29-.14,12.28-3.33,17.7-2.27,3.85-5.02,7.45-7.83,10.94-2.15,2.68-5.45,2.83-7.75,.76-2.32-2.09-2.24-5.27,.09-7.95,1.49-1.72,2.88-3.53,4.24-5.36,5.06-6.77,5.52-13.95,2.25-21.66-3.76-8.86-9.13-16.69-14.98-24.23-1.14-1.47-2.34-2.9-3.86-4.77v2.26c0,23.75-.14,47.49,.07,71.24,.09,10.23-4.72,17.01-13.71,20.75-11.3,4.71-22.21,3.63-32.01-4.11-3.59-2.83-5.84-6.64-6.69-11.2-.04-.21-.19-.41-.29-.61v-4.91Zm26.29,13c4.16-.09,8.11-.99,11.56-3.46,5.67-4.06,5.65-10.11,0-14.19-6.42-4.63-16.94-4.56-23.27,.16-5.37,4-5.38,9.89,0,13.87,3.47,2.56,7.45,3.51,11.71,3.62Z"/></g><g><path class="cls-1" d="M470.5,369.17c-3.51-1.02-7.18-1.68-10.5-3.15-6.22-2.76-10.76-7.37-12.22-14.21-1.71-8.05,1.47-14.5,7.93-19.05,10.03-7.07,20.84-7.41,31.93-2.51,.52,.23,1.02,.51,1.8,.89v-2.04c0-22.93,.05-45.85-.05-68.78-.02-3.67,1.33-5.78,4.73-7.23,23.75-10.07,47.48-20.2,71.13-30.52,4.82-2.1,8.52,1,8.5,5.55-.15,28.83-.16,57.67-.03,86.5,.04,8.87-3.95,15.03-11.42,19.23-10.55,5.93-25.31,4.65-34.13-2.88-9.99-8.53-9.51-22.37,1.28-29.86,10.08-7,20.87-7.35,31.96-2.43,.52,.23,1.02,.49,1.66,.8v-43.28c-.66,.24-1.3,.44-1.9,.7-19.85,8.51-39.7,17.04-59.57,25.5-1.31,.56-1.65,1.23-1.65,2.58,.04,20.18,.03,40.36,.03,60.53,0,10.74-4.92,17.9-15.06,21.57-2.61,.94-5.4,1.39-8.1,2.07h-6.32Zm29.48-97.53c.75-.3,1.28-.5,1.81-.72,11.32-4.85,22.63-9.7,33.95-14.55,8.64-3.7,17.28-7.38,25.89-11.14,.62-.27,1.43-1,1.45-1.55,.15-2.79,.07-5.6,.07-8.62-.83,.34-1.53,.61-2.21,.91-7.78,3.33-15.55,6.67-23.33,10.01-12.07,5.17-24.15,10.33-36.2,15.55-.6,.26-1.34,1.03-1.37,1.6-.14,2.74-.06,5.49-.06,8.52Zm47.17,34.34c-4.05,.12-7.99,1.04-11.42,3.54-5.5,4.01-5.53,9.93-.08,13.97,6.33,4.7,16.91,4.75,23.28,.11,5.63-4.1,5.61-10.14-.08-14.19-3.46-2.46-7.4-3.35-11.7-3.43Zm-73.56,52.68c4.17-.08,8.11-.98,11.57-3.44,5.68-4.05,5.68-10.1,.05-14.19-6.4-4.64-16.93-4.58-23.27,.13-5.38,4-5.42,9.88-.04,13.87,3.46,2.57,7.45,3.52,11.7,3.63Z"/><path class="cls-1" d="M393.99,281.78c.89-3.21,1.97-6.33,4.16-8.95,4.58-5.49,10.6-8.29,17.54-9.3,7.1-1.04,13.83,.2,20.42,3.76v-2.05c0-22.81,0-45.62,0-68.43,0-.47,.02-.94,0-1.4-.1-2.53,.88-4.45,3.25-5.49,2.21-.97,4.27-.42,6.3,1.69,7.23,7.51,14.04,15.4,19.74,24.14,3.37,5.17,6.39,10.61,9.06,16.17,1.64,3.43,2.56,7.27,3.35,11.01,1.33,6.29-.14,12.28-3.33,17.7-2.27,3.85-5.02,7.45-7.83,10.94-2.15,2.68-5.45,2.83-7.75,.76-2.32-2.09-2.24-5.27,.09-7.95,1.49-1.72,2.88-3.53,4.24-5.36,5.06-6.77,5.52-13.95,2.25-21.66-3.76-8.86-9.13-16.69-14.98-24.23-1.14-1.47-2.34-2.9-3.86-4.77v2.26c0,23.75-.14,47.49,.07,71.24,.09,10.23-4.72,17.01-13.71,20.75-11.3,4.71-22.21,3.63-32.01-4.11-3.59-2.83-5.84-6.64-6.69-11.2-.04-.21-.19-.41-.29-.61v-4.91Zm26.29,13c4.16-.09,8.11-.99,11.56-3.46,5.67-4.06,5.65-10.11,0-14.19-6.42-4.63-16.94-4.56-23.27,.16-5.37,4-5.38,9.89,0,13.87,3.47,2.56,7.45,3.51,11.71,3.62Z"/></g><path class="cls-1" d="M-11.85,369.17c-3.51-1.02-7.18-1.68-10.5-3.15-6.22-2.76-10.76-7.37-12.22-14.21-1.71-8.05,1.47-14.5,7.93-19.05,10.03-7.07,20.84-7.41,31.93-2.51,.52,.23,1.02,.51,1.8,.89v-2.04c0-22.93,.05-45.85-.05-68.78-.02-3.67,1.33-5.78,4.73-7.23,23.75-10.07,47.48-20.2,71.13-30.52,4.82-2.1,8.52,1,8.5,5.55-.15,28.83-.16,57.67-.03,86.5,.04,8.87-3.95,15.03-11.42,19.23-10.55,5.93-25.31,4.65-34.13-2.88-9.99-8.53-9.51-22.37,1.28-29.86,10.08-7,20.87-7.35,31.96-2.43,.52,.23,1.02,.49,1.66,.8v-43.28c-.66,.24-1.3,.44-1.9,.7-19.85,8.51-39.7,17.04-59.57,25.5-1.31,.56-1.65,1.23-1.65,2.58,.04,20.18,.03,40.36,.03,60.53,0,10.74-4.92,17.9-15.06,21.57-2.61,.94-5.4,1.39-8.1,2.07h-6.32Zm29.48-97.53c.75-.3,1.28-.5,1.81-.72,11.32-4.85,22.63-9.7,33.95-14.55,8.64-3.7,17.28-7.38,25.89-11.14,.62-.27,1.43-1,1.45-1.55,.15-2.79,.07-5.6,.07-8.62-.83,.34-1.53,.61-2.21,.91-7.78,3.33-15.55,6.67-23.33,10.01-12.07,5.17-24.15,10.33-36.2,15.55-.6,.26-1.34,1.03-1.37,1.6-.14,2.74-.06,5.49-.06,8.52Zm47.17,34.34c-4.05,.12-7.99,1.04-11.42,3.54-5.5,4.01-5.53,9.93-.08,13.97,6.33,4.7,16.91,4.75,23.28,.11,5.63-4.1,5.61-10.14-.08-14.19-3.46-2.46-7.4-3.35-11.7-3.43ZM-8.76,358.66c4.17-.08,8.11-.98,11.57-3.44,5.68-4.05,5.68-10.1,.05-14.19-6.4-4.64-16.93-4.58-23.27,.13-5.38,4-5.42,9.88-.04,13.87,3.46,2.57,7.45,3.52,11.7,3.63Z"/><g><path class="cls-1" d="M952.18,369.17c-3.51-1.02-7.18-1.68-10.5-3.15-6.22-2.76-10.76-7.37-12.22-14.21-1.71-8.05,1.47-14.5,7.93-19.05,10.03-7.07,20.84-7.41,31.93-2.51,.52,.23,1.02,.51,1.8,.89v-2.04c0-22.93,.05-45.85-.05-68.78-.02-3.67,1.33-5.78,4.73-7.23,23.75-10.07,47.48-20.2,71.13-30.52,4.82-2.1,8.52,1,8.5,5.55-.15,28.83-.16,57.67-.03,86.5,.04,8.87-3.95,15.03-11.42,19.23-10.55,5.93-25.31,4.65-34.13-2.88-9.99-8.53-9.51-22.37,1.28-29.86,10.08-7,20.87-7.35,31.96-2.43,.52,.23,1.02,.49,1.66,.8v-43.28c-.66,.24-1.3,.44-1.9,.7-19.85,8.51-39.7,17.04-59.57,25.5-1.31,.56-1.65,1.23-1.65,2.58,.04,20.18,.03,40.36,.03,60.53,0,10.74-4.92,17.9-15.06,21.57-2.61,.94-5.4,1.39-8.1,2.07h-6.32Zm29.48-97.53c.75-.3,1.28-.5,1.81-.72,11.32-4.85,22.63-9.7,33.95-14.55,8.64-3.7,17.28-7.38,25.89-11.14,.62-.27,1.43-1,1.45-1.55,.15-2.79,.07-5.6,.07-8.62-.83,.34-1.53,.61-2.21,.91-7.78,3.33-15.55,6.67-23.33,10.01-12.07,5.17-24.15,10.33-36.2,15.55-.6,.26-1.34,1.03-1.37,1.6-.14,2.74-.06,5.49-.06,8.52Zm47.17,34.34c-4.05,.12-7.99,1.04-11.42,3.54-5.5,4.01-5.53,9.93-.08,13.97,6.33,4.7,16.91,4.75,23.28,.11,5.63-4.1,5.61-10.14-.08-14.19-3.46-2.46-7.4-3.35-11.7-3.43Zm-73.56,52.68c4.17-.08,8.11-.98,11.57-3.44,5.68-4.05,5.68-10.1,.05-14.19-6.4-4.64-16.93-4.58-23.27,.13-5.38,4-5.42,9.88-.04,13.87,3.46,2.57,7.45,3.52,11.7,3.63Z"/><path class="cls-1" d="M875.67,281.78c.89-3.21,1.97-6.33,4.16-8.95,4.58-5.49,10.6-8.29,17.54-9.3,7.1-1.04,13.83,.2,20.42,3.76v-2.05c0-22.81,0-45.62,0-68.43,0-.47,.02-.94,0-1.4-.1-2.53,.88-4.45,3.25-5.49,2.21-.97,4.27-.42,6.3,1.69,7.23,7.51,14.04,15.4,19.74,24.14,3.37,5.17,6.39,10.61,9.06,16.17,1.64,3.43,2.56,7.27,3.35,11.01,1.33,6.29-.14,12.28-3.33,17.7-2.27,3.85-5.02,7.45-7.83,10.94-2.15,2.68-5.45,2.83-7.75,.76-2.32-2.09-2.24-5.27,.09-7.95,1.49-1.72,2.88-3.53,4.24-5.36,5.06-6.77,5.52-13.95,2.25-21.66-3.76-8.86-9.13-16.69-14.98-24.23-1.14-1.47-2.34-2.9-3.86-4.77v2.26c0,23.75-.14,47.49,.07,71.24,.09,10.23-4.72,17.01-13.71,20.75-11.3,4.71-22.21,3.63-32.01-4.11-3.59-2.83-5.84-6.64-6.69-11.2-.04-.21-.19-.41-.29-.61v-4.91Zm26.29,13c4.16-.09,8.11-.99,11.56-3.46,5.67-4.06,5.65-10.11,0-14.19-6.42-4.63-16.94-4.56-23.27,.16-5.37,4-5.38,9.89,0,13.87,3.47,2.56,7.45,3.51,11.71,3.62Z"/></g><g><path class="cls-1" d="M1433.86,369.17c-3.51-1.02-7.18-1.68-10.5-3.15-6.22-2.76-10.76-7.37-12.22-14.21-1.71-8.05,1.47-14.5,7.93-19.05,10.03-7.07,20.84-7.41,31.93-2.51,.52,.23,1.02,.51,1.8,.89v-2.04c0-22.93,.05-45.85-.05-68.78-.02-3.67,1.33-5.78,4.73-7.23,23.75-10.07,47.48-20.2,71.13-30.52,4.82-2.1,8.52,1,8.5,5.55-.15,28.83-.16,57.67-.03,86.5,.04,8.87-3.95,15.03-11.42,19.23-10.55,5.93-25.31,4.65-34.13-2.88-9.99-8.53-9.51-22.37,1.28-29.86,10.08-7,20.87-7.35,31.96-2.43,.52,.23,1.02,.49,1.66,.8v-43.28c-.66,.24-1.3,.44-1.9,.7-19.85,8.51-39.7,17.04-59.57,25.5-1.31,.56-1.65,1.23-1.65,2.58,.04,20.18,.03,40.36,.03,60.53,0,10.74-4.92,17.9-15.06,21.57-2.61,.94-5.4,1.39-8.1,2.07h-6.32Zm29.48-97.53c.75-.3,1.28-.5,1.81-.72,11.32-4.85,22.63-9.7,33.95-14.55,8.64-3.7,17.28-7.38,25.89-11.14,.62-.27,1.43-1,1.45-1.55,.15-2.79,.07-5.6,.07-8.62-.83,.34-1.53,.61-2.21,.91-7.78,3.33-15.55,6.67-23.33,10.01-12.07,5.17-24.15,10.33-36.2,15.55-.6,.26-1.34,1.03-1.37,1.6-.14,2.74-.06,5.49-.06,8.52Zm47.17,34.34c-4.05,.12-7.99,1.04-11.42,3.54-5.5,4.01-5.53,9.93-.08,13.97,6.33,4.7,16.91,4.75,23.28,.11,5.63-4.1,5.61-10.14-.08-14.19-3.46-2.46-7.4-3.35-11.7-3.43Zm-73.56,52.68c4.17-.08,8.11-.98,11.57-3.44,5.68-4.05,5.68-10.1,.05-14.19-6.4-4.64-16.93-4.58-23.27,.13-5.38,4-5.42,9.88-.04,13.87,3.46,2.57,7.45,3.52,11.7,3.63Z"/><path class="cls-1" d="M1357.35,281.78c.89-3.21,1.97-6.33,4.16-8.95,4.58-5.49,10.6-8.29,17.54-9.3,7.1-1.04,13.83,.2,20.42,3.76v-2.05c0-22.81,0-45.62,0-68.43,0-.47,.02-.94,0-1.4-.1-2.53,.88-4.45,3.25-5.49,2.21-.97,4.27-.42,6.3,1.69,7.23,7.51,14.04,15.4,19.74,24.14,3.37,5.17,6.39,10.61,9.06,16.17,1.64,3.43,2.56,7.27,3.35,11.01,1.33,6.29-.14,12.28-3.33,17.7-2.27,3.85-5.02,7.45-7.83,10.94-2.15,2.68-5.45,2.83-7.75,.76-2.32-2.09-2.24-5.27,.09-7.95,1.49-1.72,2.88-3.53,4.24-5.36,5.06-6.77,5.52-13.95,2.25-21.66-3.76-8.86-9.13-16.69-14.98-24.23-1.14-1.47-2.34-2.9-3.86-4.77v2.26c0,23.75-.14,47.49,.07,71.24,.09,10.23-4.72,17.01-13.71,20.75-11.3,4.71-22.21,3.63-32.01-4.11-3.59-2.83-5.84-6.64-6.69-11.2-.04-.21-.19-.41-.29-.61v-4.91Zm26.29,13c4.16-.09,8.11-.99,11.56-3.46,5.67-4.06,5.65-10.11,0-14.19-6.42-4.63-16.94-4.56-23.27,.16-5.37,4-5.38,9.89,0,13.87,3.47,2.56,7.45,3.51,11.71,3.62Z"/></g><g><path class="cls-1" d="M1915.54,369.17c-3.51-1.02-7.18-1.68-10.5-3.15-6.22-2.76-10.76-7.37-12.22-14.21-1.71-8.05,1.47-14.5,7.93-19.05,10.03-7.07,20.84-7.41,31.93-2.51,.52,.23,1.02,.51,1.8,.89v-2.04c0-22.93,.05-45.85-.05-68.78-.02-3.67,1.33-5.78,4.73-7.23,23.75-10.07,47.48-20.2,71.13-30.52,4.82-2.1,8.52,1,8.5,5.55-.15,28.83-.16,57.67-.03,86.5,.04,8.87-3.95,15.03-11.42,19.23-10.55,5.93-25.31,4.65-34.13-2.88-9.99-8.53-9.51-22.37,1.28-29.86,10.08-7,20.87-7.35,31.96-2.43,.52,.23,1.02,.49,1.66,.8v-43.28c-.66,.24-1.3,.44-1.9,.7-19.85,8.51-39.7,17.04-59.57,25.5-1.31,.56-1.65,1.23-1.65,2.58,.04,20.18,.03,40.36,.03,60.53,0,10.74-4.92,17.9-15.06,21.57-2.61,.94-5.4,1.39-8.1,2.07h-6.32Zm29.48-97.53c.75-.3,1.28-.5,1.81-.72,11.32-4.85,22.63-9.7,33.95-14.55,8.64-3.7,17.28-7.38,25.89-11.14,.62-.27,1.43-1,1.45-1.55,.15-2.79,.07-5.6,.07-8.62-.83,.34-1.53,.61-2.21,.91-7.78,3.33-15.55,6.67-23.33,10.01-12.07,5.17-24.15,10.33-36.2,15.55-.6,.26-1.34,1.03-1.37,1.6-.14,2.74-.06,5.49-.06,8.52Zm47.17,34.34c-4.05,.12-7.99,1.04-11.42,3.54-5.5,4.01-5.53,9.93-.08,13.97,6.33,4.7,16.91,4.75,23.28,.11,5.63-4.1,5.61-10.14-.08-14.19-3.46-2.46-7.4-3.35-11.7-3.43Zm-73.56,52.68c4.17-.08,8.11-.98,11.57-3.44,5.68-4.05,5.68-10.1,.05-14.19-6.4-4.64-16.93-4.58-23.27,.13-5.38,4-5.42,9.88-.04,13.87,3.46,2.57,7.45,3.52,11.7,3.63Z"/><path class="cls-1" d="M1839.03,281.78c.89-3.21,1.97-6.33,4.16-8.95,4.58-5.49,10.6-8.29,17.54-9.3,7.1-1.04,13.83,.2,20.42,3.76v-2.05c0-22.81,0-45.62,0-68.43,0-.47,.02-.94,0-1.4-.1-2.53,.88-4.45,3.25-5.49,2.21-.97,4.27-.42,6.3,1.69,7.23,7.51,14.04,15.4,19.74,24.14,3.37,5.17,6.39,10.61,9.06,16.17,1.64,3.43,2.56,7.27,3.35,11.01,1.33,6.29-.14,12.28-3.33,17.7-2.27,3.85-5.02,7.45-7.83,10.94-2.15,2.68-5.45,2.83-7.75,.76-2.32-2.09-2.24-5.27,.09-7.95,1.49-1.72,2.88-3.53,4.24-5.36,5.06-6.77,5.52-13.95,2.25-21.66-3.76-8.86-9.13-16.69-14.98-24.23-1.14-1.47-2.34-2.9-3.86-4.77v2.26c0,23.75-.14,47.49,.07,71.24,.09,10.23-4.72,17.01-13.71,20.75-11.3,4.71-22.21,3.63-32.01-4.11-3.59-2.83-5.84-6.64-6.69-11.2-.04-.21-.19-.41-.29-.61v-4.91Zm26.29,13c4.16-.09,8.11-.99,11.56-3.46,5.67-4.06,5.65-10.11,0-14.19-6.42-4.63-16.94-4.56-23.27,.16-5.37,4-5.38,9.89,0,13.87,3.47,2.56,7.45,3.51,11.71,3.62Z"/></g><g><path class="cls-1" d="M224.11,607.18c-3.51-1.02-7.18-1.68-10.5-3.15-6.22-2.76-10.76-7.37-12.22-14.21-1.71-8.05,1.47-14.5,7.93-19.05,10.03-7.07,20.84-7.41,31.93-2.51,.52,.23,1.02,.51,1.8,.89v-2.04c0-22.93,.05-45.85-.05-68.78-.02-3.67,1.33-5.78,4.73-7.23,23.75-10.07,47.48-20.2,71.13-30.52,4.82-2.1,8.52,1,8.5,5.55-.15,28.83-.16,57.67-.03,86.5,.04,8.87-3.95,15.03-11.42,19.23-10.55,5.93-25.31,4.65-34.13-2.88-9.99-8.53-9.51-22.37,1.28-29.86,10.08-7,20.87-7.35,31.96-2.43,.52,.23,1.02,.49,1.66,.8v-43.28c-.66,.24-1.3,.44-1.9,.7-19.85,8.51-39.7,17.04-59.57,25.5-1.31,.56-1.65,1.23-1.65,2.58,.04,20.18,.03,40.36,.03,60.53,0,10.74-4.92,17.9-15.06,21.57-2.61,.94-5.4,1.39-8.1,2.07h-6.32Zm29.48-97.53c.75-.3,1.28-.5,1.81-.72,11.32-4.85,22.63-9.7,33.95-14.55,8.64-3.7,17.28-7.38,25.89-11.14,.62-.27,1.43-1,1.45-1.55,.15-2.79,.07-5.6,.07-8.62-.83,.34-1.53,.61-2.21,.91-7.78,3.33-15.55,6.67-23.33,10.01-12.07,5.17-24.15,10.33-36.2,15.55-.6,.26-1.34,1.03-1.37,1.6-.14,2.74-.06,5.49-.06,8.52Zm47.17,34.34c-4.05,.12-7.99,1.04-11.42,3.54-5.5,4.01-5.53,9.93-.08,13.97,6.33,4.7,16.91,4.75,23.28,.11,5.63-4.1,5.61-10.14-.08-14.19-3.46-2.46-7.4-3.35-11.7-3.43Zm-73.56,52.68c4.17-.08,8.11-.98,11.57-3.44,5.68-4.05,5.68-10.1,.05-14.19-6.4-4.64-16.93-4.58-23.27,.13-5.38,4-5.42,9.88-.04,13.87,3.46,2.57,7.45,3.52,11.7,3.63Z"/><path class="cls-1" d="M147.6,519.79c.89-3.21,1.97-6.33,4.16-8.95,4.58-5.49,10.6-8.29,17.54-9.3,7.1-1.04,13.83,.2,20.42,3.76v-2.05c0-22.81,0-45.62,0-68.43,0-.47,.02-.94,0-1.4-.1-2.53,.88-4.45,3.25-5.49,2.21-.97,4.27-.42,6.3,1.69,7.23,7.51,14.04,15.4,19.74,24.14,3.37,5.17,6.39,10.61,9.06,16.17,1.64,3.43,2.56,7.27,3.35,11.01,1.33,6.29-.14,12.28-3.33,17.7-2.27,3.85-5.02,7.45-7.83,10.94-2.15,2.68-5.45,2.83-7.75,.76-2.32-2.09-2.24-5.27,.09-7.95,1.49-1.72,2.88-3.53,4.24-5.36,5.06-6.77,5.52-13.95,2.25-21.66-3.76-8.86-9.13-16.69-14.98-24.23-1.14-1.47-2.34-2.9-3.86-4.77v2.26c0,23.75-.14,47.49,.07,71.24,.09,10.23-4.72,17.01-13.71,20.75-11.3,4.71-22.21,3.63-32.01-4.11-3.59-2.83-5.84-6.64-6.69-11.2-.04-.21-.19-.41-.29-.61v-4.91Zm26.29,13c4.16-.09,8.11-.99,11.56-3.46,5.67-4.06,5.65-10.11,0-14.19-6.42-4.63-16.94-4.56-23.27,.16-5.37,4-5.38,9.89,0,13.87,3.47,2.56,7.45,3.51,11.71,3.62Z"/></g><g><path class="cls-1" d="M705.79,607.18c-3.51-1.02-7.18-1.68-10.5-3.15-6.22-2.76-10.76-7.37-12.22-14.21-1.71-8.05,1.47-14.5,7.93-19.05,10.03-7.07,20.84-7.41,31.93-2.51,.52,.23,1.02,.51,1.8,.89v-2.04c0-22.93,.05-45.85-.05-68.78-.02-3.67,1.33-5.78,4.73-7.23,23.75-10.07,47.48-20.2,71.13-30.52,4.82-2.1,8.52,1,8.5,5.55-.15,28.83-.16,57.67-.03,86.5,.04,8.87-3.95,15.03-11.42,19.23-10.55,5.93-25.31,4.65-34.13-2.88-9.99-8.53-9.51-22.37,1.28-29.86,10.08-7,20.87-7.35,31.96-2.43,.52,.23,1.02,.49,1.66,.8v-43.28c-.66,.24-1.3,.44-1.9,.7-19.85,8.51-39.7,17.04-59.57,25.5-1.31,.56-1.65,1.23-1.65,2.58,.04,20.18,.03,40.36,.03,60.53,0,10.74-4.92,17.9-15.06,21.57-2.61,.94-5.4,1.39-8.1,2.07h-6.32Zm29.48-97.53c.75-.3,1.28-.5,1.81-.72,11.32-4.85,22.63-9.7,33.95-14.55,8.64-3.7,17.28-7.38,25.89-11.14,.62-.27,1.43-1,1.45-1.55,.15-2.79,.07-5.6,.07-8.62-.83,.34-1.53,.61-2.21,.91-7.78,3.33-15.55,6.67-23.33,10.01-12.07,5.17-24.15,10.33-36.2,15.55-.6,.26-1.34,1.03-1.37,1.6-.14,2.74-.06,5.49-.06,8.52Zm47.17,34.34c-4.05,.12-7.99,1.04-11.42,3.54-5.5,4.01-5.53,9.93-.08,13.97,6.33,4.7,16.91,4.75,23.28,.11,5.63-4.1,5.61-10.14-.08-14.19-3.46-2.46-7.4-3.35-11.7-3.43Zm-73.56,52.68c4.17-.08,8.11-.98,11.57-3.44,5.68-4.05,5.68-10.1,.05-14.19-6.4-4.64-16.93-4.58-23.27,.13-5.38,4-5.42,9.88-.04,13.87,3.46,2.57,7.45,3.52,11.7,3.63Z"/><path class="cls-1" d="M629.28,519.79c.89-3.21,1.97-6.33,4.16-8.95,4.58-5.49,10.6-8.29,17.54-9.3,7.1-1.04,13.83,.2,20.42,3.76v-2.05c0-22.81,0-45.62,0-68.43,0-.47,.02-.94,0-1.4-.1-2.53,.88-4.45,3.25-5.49,2.21-.97,4.27-.42,6.3,1.69,7.23,7.51,14.04,15.4,19.74,24.14,3.37,5.17,6.39,10.61,9.06,16.17,1.64,3.43,2.56,7.27,3.35,11.01,1.33,6.29-.14,12.28-3.33,17.7-2.27,3.85-5.02,7.45-7.83,10.94-2.15,2.68-5.45,2.83-7.75,.76-2.32-2.09-2.24-5.27,.09-7.95,1.49-1.72,2.88-3.53,4.24-5.36,5.06-6.77,5.52-13.95,2.25-21.66-3.76-8.86-9.13-16.69-14.98-24.23-1.14-1.47-2.34-2.9-3.86-4.77v2.26c0,23.75-.14,47.49,.07,71.24,.09,10.23-4.72,17.01-13.71,20.75-11.3,4.71-22.21,3.63-32.01-4.11-3.59-2.83-5.84-6.64-6.69-11.2-.04-.21-.19-.41-.29-.61v-4.91Zm26.29,13c4.16-.09,8.11-.99,11.56-3.46,5.67-4.06,5.65-10.11,0-14.19-6.42-4.63-16.94-4.56-23.27,.16-5.37,4-5.38,9.89,0,13.87,3.47,2.56,7.45,3.51,11.71,3.62Z"/></g><g><path class="cls-1" d="M1187.46,607.18c-3.51-1.02-7.18-1.68-10.5-3.15-6.22-2.76-10.76-7.37-12.22-14.21-1.71-8.05,1.47-14.5,7.93-19.05,10.03-7.07,20.84-7.41,31.93-2.51,.52,.23,1.02,.51,1.8,.89v-2.04c0-22.93,.05-45.85-.05-68.78-.02-3.67,1.33-5.78,4.73-7.23,23.75-10.07,47.48-20.2,71.13-30.52,4.82-2.1,8.52,1,8.5,5.55-.15,28.83-.16,57.67-.03,86.5,.04,8.87-3.95,15.03-11.42,19.23-10.55,5.93-25.31,4.65-34.13-2.88-9.99-8.53-9.51-22.37,1.28-29.86,10.08-7,20.87-7.35,31.96-2.43,.52,.23,1.02,.49,1.66,.8v-43.28c-.66,.24-1.3,.44-1.9,.7-19.85,8.51-39.7,17.04-59.57,25.5-1.31,.56-1.65,1.23-1.65,2.58,.04,20.18,.03,40.36,.03,60.53,0,10.74-4.92,17.9-15.06,21.57-2.61,.94-5.4,1.39-8.1,2.07h-6.32Zm29.48-97.53c.75-.3,1.28-.5,1.81-.72,11.32-4.85,22.63-9.7,33.95-14.55,8.64-3.7,17.28-7.38,25.89-11.14,.62-.27,1.43-1,1.45-1.55,.15-2.79,.07-5.6,.07-8.62-.83,.34-1.53,.61-2.21,.91-7.78,3.33-15.55,6.67-23.33,10.01-12.07,5.17-24.15,10.33-36.2,15.55-.6,.26-1.34,1.03-1.37,1.6-.14,2.74-.06,5.49-.06,8.52Zm47.17,34.34c-4.05,.12-7.99,1.04-11.42,3.54-5.5,4.01-5.53,9.93-.08,13.97,6.33,4.7,16.91,4.75,23.28,.11,5.63-4.1,5.61-10.14-.08-14.19-3.46-2.46-7.4-3.35-11.7-3.43Zm-73.56,52.68c4.17-.08,8.11-.98,11.57-3.44,5.68-4.05,5.68-10.1,.05-14.19-6.4-4.64-16.93-4.58-23.27,.13-5.38,4-5.42,9.88-.04,13.87,3.46,2.57,7.45,3.52,11.7,3.63Z"/><path class="cls-1" d="M1110.95,519.79c.89-3.21,1.97-6.33,4.16-8.95,4.58-5.49,10.6-8.29,17.54-9.3,7.1-1.04,13.83,.2,20.42,3.76v-2.05c0-22.81,0-45.62,0-68.43,0-.47,.02-.94,0-1.4-.1-2.53,.88-4.45,3.25-5.49,2.21-.97,4.27-.42,6.3,1.69,7.23,7.51,14.04,15.4,19.74,24.14,3.37,5.17,6.39,10.61,9.06,16.17,1.64,3.43,2.56,7.27,3.35,11.01,1.33,6.29-.14,12.28-3.33,17.7-2.27,3.85-5.02,7.45-7.83,10.94-2.15,2.68-5.45,2.83-7.75,.76-2.32-2.09-2.24-5.27,.09-7.95,1.49-1.72,2.88-3.53,4.24-5.36,5.06-6.77,5.52-13.95,2.25-21.66-3.76-8.86-9.13-16.69-14.98-24.23-1.14-1.47-2.34-2.9-3.86-4.77v2.26c0,23.75-.14,47.49,.07,71.24,.09,10.23-4.72,17.01-13.71,20.75-11.3,4.71-22.21,3.63-32.01-4.11-3.59-2.83-5.84-6.64-6.69-11.2-.04-.21-.19-.41-.29-.61v-4.91Zm26.29,13c4.16-.09,8.11-.99,11.56-3.46,5.67-4.06,5.65-10.11,0-14.19-6.42-4.63-16.94-4.56-23.27,.16-5.37,4-5.38,9.89,0,13.87,3.47,2.56,7.45,3.51,11.71,3.62Z"/></g><g><path class="cls-1" d="M1669.14,607.18c-3.51-1.02-7.18-1.68-10.5-3.15-6.22-2.76-10.76-7.37-12.22-14.21-1.71-8.05,1.47-14.5,7.93-19.05,10.03-7.07,20.84-7.41,31.93-2.51,.52,.23,1.02,.51,1.8,.89v-2.04c0-22.93,.05-45.85-.05-68.78-.02-3.67,1.33-5.78,4.73-7.23,23.75-10.07,47.48-20.2,71.13-30.52,4.82-2.1,8.52,1,8.5,5.55-.15,28.83-.16,57.67-.03,86.5,.04,8.87-3.95,15.03-11.42,19.23-10.55,5.93-25.31,4.65-34.13-2.88-9.99-8.53-9.51-22.37,1.28-29.86,10.08-7,20.87-7.35,31.96-2.43,.52,.23,1.02,.49,1.66,.8v-43.28c-.66,.24-1.3,.44-1.9,.7-19.85,8.51-39.7,17.04-59.57,25.5-1.31,.56-1.65,1.23-1.65,2.58,.04,20.18,.03,40.36,.03,60.53,0,10.74-4.92,17.9-15.06,21.57-2.61,.94-5.4,1.39-8.1,2.07h-6.32Zm29.48-97.53c.75-.3,1.28-.5,1.81-.72,11.32-4.85,22.63-9.7,33.95-14.55,8.64-3.7,17.28-7.38,25.89-11.14,.62-.27,1.43-1,1.45-1.55,.15-2.79,.07-5.6,.07-8.62-.83,.34-1.53,.61-2.21,.91-7.78,3.33-15.55,6.67-23.33,10.01-12.07,5.17-24.15,10.33-36.2,15.55-.6,.26-1.34,1.03-1.37,1.6-.14,2.74-.06,5.49-.06,8.52Zm47.17,34.34c-4.05,.12-7.99,1.04-11.42,3.54-5.5,4.01-5.53,9.93-.08,13.97,6.33,4.7,16.91,4.75,23.28,.11,5.63-4.1,5.61-10.14-.08-14.19-3.46-2.46-7.4-3.35-11.7-3.43Zm-73.56,52.68c4.17-.08,8.11-.98,11.57-3.44,5.68-4.05,5.68-10.1,.05-14.19-6.4-4.64-16.93-4.58-23.27,.13-5.38,4-5.42,9.88-.04,13.87,3.46,2.57,7.45,3.52,11.7,3.63Z"/><path class="cls-1" d="M1592.63,519.79c.89-3.21,1.97-6.33,4.16-8.95,4.58-5.49,10.6-8.29,17.54-9.3,7.1-1.04,13.83,.2,20.42,3.76v-2.05c0-22.81,0-45.62,0-68.43,0-.47,.02-.94,0-1.4-.1-2.53,.88-4.45,3.25-5.49,2.21-.97,4.27-.42,6.3,1.69,7.23,7.51,14.04,15.4,19.74,24.14,3.37,5.17,6.39,10.61,9.06,16.17,1.64,3.43,2.56,7.27,3.35,11.01,1.33,6.29-.14,12.28-3.33,17.7-2.27,3.85-5.02,7.45-7.83,10.94-2.15,2.68-5.45,2.83-7.75,.76-2.32-2.09-2.24-5.27,.09-7.95,1.49-1.72,2.88-3.53,4.24-5.36,5.06-6.77,5.52-13.95,2.25-21.66-3.76-8.86-9.13-16.69-14.98-24.23-1.14-1.47-2.34-2.9-3.86-4.77v2.26c0,23.75-.14,47.49,.07,71.24,.09,10.23-4.72,17.01-13.71,20.75-11.3,4.71-22.21,3.63-32.01-4.11-3.59-2.83-5.84-6.64-6.69-11.2-.04-.21-.19-.41-.29-.61v-4.91Zm26.29,13c4.16-.09,8.11-.99,11.56-3.46,5.67-4.06,5.65-10.11,0-14.19-6.42-4.63-16.94-4.56-23.27,.16-5.37,4-5.38,9.89,0,13.87,3.47,2.56,7.45,3.51,11.71,3.62Z"/></g><g><path class="cls-1" d="M470.5,845.18c-3.51-1.02-7.18-1.68-10.5-3.15-6.22-2.76-10.76-7.37-12.22-14.21-1.71-8.05,1.47-14.5,7.93-19.05,10.03-7.07,20.84-7.41,31.93-2.51,.52,.23,1.02,.51,1.8,.89v-2.04c0-22.93,.05-45.85-.05-68.78-.02-3.67,1.33-5.78,4.73-7.23,23.75-10.07,47.48-20.2,71.13-30.52,4.82-2.1,8.52,1,8.5,5.55-.15,28.83-.16,57.67-.03,86.5,.04,8.87-3.95,15.03-11.42,19.23-10.55,5.93-25.31,4.65-34.13-2.88-9.99-8.53-9.51-22.37,1.28-29.86,10.08-7,20.87-7.35,31.96-2.43,.52,.23,1.02,.49,1.66,.8v-43.28c-.66,.24-1.3,.44-1.9,.7-19.85,8.51-39.7,17.04-59.57,25.5-1.31,.56-1.65,1.23-1.65,2.58,.04,20.18,.03,40.36,.03,60.53,0,10.74-4.92,17.9-15.06,21.57-2.61,.94-5.4,1.39-8.1,2.07h-6.32Zm29.48-97.53c.75-.3,1.28-.5,1.81-.72,11.32-4.85,22.63-9.7,33.95-14.55,8.64-3.7,17.28-7.38,25.89-11.14,.62-.27,1.43-1,1.45-1.55,.15-2.79,.07-5.6,.07-8.62-.83,.34-1.53,.61-2.21,.91-7.78,3.33-15.55,6.67-23.33,10.01-12.07,5.17-24.15,10.33-36.2,15.55-.6,.26-1.34,1.03-1.37,1.6-.14,2.74-.06,5.49-.06,8.52Zm47.17,34.34c-4.05,.12-7.99,1.04-11.42,3.54-5.5,4.01-5.53,9.93-.08,13.97,6.33,4.7,16.91,4.75,23.28,.11,5.63-4.1,5.61-10.14-.08-14.19-3.46-2.46-7.4-3.35-11.7-3.43Zm-73.56,52.68c4.17-.08,8.11-.98,11.57-3.44,5.68-4.05,5.68-10.1,.05-14.19-6.4-4.64-16.93-4.58-23.27,.13-5.38,4-5.42,9.88-.04,13.87,3.46,2.57,7.45,3.52,11.7,3.63Z"/><path class="cls-1" d="M393.99,757.79c.89-3.21,1.97-6.33,4.16-8.95,4.58-5.49,10.6-8.29,17.54-9.3,7.1-1.04,13.83,.2,20.42,3.76v-2.05c0-22.81,0-45.62,0-68.43,0-.47,.02-.94,0-1.4-.1-2.53,.88-4.45,3.25-5.49,2.21-.97,4.27-.42,6.3,1.69,7.23,7.51,14.04,15.4,19.74,24.14,3.37,5.17,6.39,10.61,9.06,16.17,1.64,3.43,2.56,7.27,3.35,11.01,1.33,6.29-.14,12.28-3.33,17.7-2.27,3.85-5.02,7.45-7.83,10.94-2.15,2.68-5.45,2.83-7.75,.76-2.32-2.09-2.24-5.27,.09-7.95,1.49-1.72,2.88-3.53,4.24-5.36,5.06-6.77,5.52-13.95,2.25-21.66-3.76-8.86-9.13-16.69-14.98-24.23-1.14-1.47-2.34-2.9-3.86-4.77v2.26c0,23.75-.14,47.49,.07,71.24,.09,10.23-4.72,17.01-13.71,20.75-11.3,4.71-22.21,3.63-32.01-4.11-3.59-2.83-5.84-6.64-6.69-11.2-.04-.21-.19-.41-.29-.61v-4.91Zm26.29,13c4.16-.09,8.11-.99,11.56-3.46,5.67-4.06,5.65-10.11,0-14.19-6.42-4.63-16.94-4.56-23.27,.16-5.37,4-5.38,9.89,0,13.87,3.47,2.56,7.45,3.51,11.71,3.62Z"/></g><path class="cls-1" d="M-11.85,845.18c-3.51-1.02-7.18-1.68-10.5-3.15-6.22-2.76-10.76-7.37-12.22-14.21-1.71-8.05,1.47-14.5,7.93-19.05,10.03-7.07,20.84-7.41,31.93-2.51,.52,.23,1.02,.51,1.8,.89v-2.04c0-22.93,.05-45.85-.05-68.78-.02-3.67,1.33-5.78,4.73-7.23,23.75-10.07,47.48-20.2,71.13-30.52,4.82-2.1,8.52,1,8.5,5.55-.15,28.83-.16,57.67-.03,86.5,.04,8.87-3.95,15.03-11.42,19.23-10.55,5.93-25.31,4.65-34.13-2.88-9.99-8.53-9.51-22.37,1.28-29.86,10.08-7,20.87-7.35,31.96-2.43,.52,.23,1.02,.49,1.66,.8v-43.28c-.66,.24-1.3,.44-1.9,.7-19.85,8.51-39.7,17.04-59.57,25.5-1.31,.56-1.65,1.23-1.65,2.58,.04,20.18,.03,40.36,.03,60.53,0,10.74-4.92,17.9-15.06,21.57-2.61,.94-5.4,1.39-8.1,2.07h-6.32Zm29.48-97.53c.75-.3,1.28-.5,1.81-.72,11.32-4.85,22.63-9.7,33.95-14.55,8.64-3.7,17.28-7.38,25.89-11.14,.62-.27,1.43-1,1.45-1.55,.15-2.79,.07-5.6,.07-8.62-.83,.34-1.53,.61-2.21,.91-7.78,3.33-15.55,6.67-23.33,10.01-12.07,5.17-24.15,10.33-36.2,15.55-.6,.26-1.34,1.03-1.37,1.6-.14,2.74-.06,5.49-.06,8.52Zm47.17,34.34c-4.05,.12-7.99,1.04-11.42,3.54-5.5,4.01-5.53,9.93-.08,13.97,6.33,4.7,16.91,4.75,23.28,.11,5.63-4.1,5.61-10.14-.08-14.19-3.46-2.46-7.4-3.35-11.7-3.43Zm-73.56,52.68c4.17-.08,8.11-.98,11.57-3.44,5.68-4.05,5.68-10.1,.05-14.19-6.4-4.64-16.93-4.58-23.27,.13-5.38,4-5.42,9.88-.04,13.87,3.46,2.57,7.45,3.52,11.7,3.63Z"/><g><path class="cls-1" d="M952.18,845.18c-3.51-1.02-7.18-1.68-10.5-3.15-6.22-2.76-10.76-7.37-12.22-14.21-1.71-8.05,1.47-14.5,7.93-19.05,10.03-7.07,20.84-7.41,31.93-2.51,.52,.23,1.02,.51,1.8,.89v-2.04c0-22.93,.05-45.85-.05-68.78-.02-3.67,1.33-5.78,4.73-7.23,23.75-10.07,47.48-20.2,71.13-30.52,4.82-2.1,8.52,1,8.5,5.55-.15,28.83-.16,57.67-.03,86.5,.04,8.87-3.95,15.03-11.42,19.23-10.55,5.93-25.31,4.65-34.13-2.88-9.99-8.53-9.51-22.37,1.28-29.86,10.08-7,20.87-7.35,31.96-2.43,.52,.23,1.02,.49,1.66,.8v-43.28c-.66,.24-1.3,.44-1.9,.7-19.85,8.51-39.7,17.04-59.57,25.5-1.31,.56-1.65,1.23-1.65,2.58,.04,20.18,.03,40.36,.03,60.53,0,10.74-4.92,17.9-15.06,21.57-2.61,.94-5.4,1.39-8.1,2.07h-6.32Zm29.48-97.53c.75-.3,1.28-.5,1.81-.72,11.32-4.85,22.63-9.7,33.95-14.55,8.64-3.7,17.28-7.38,25.89-11.14,.62-.27,1.43-1,1.45-1.55,.15-2.79,.07-5.6,.07-8.62-.83,.34-1.53,.61-2.21,.91-7.78,3.33-15.55,6.67-23.33,10.01-12.07,5.17-24.15,10.33-36.2,15.55-.6,.26-1.34,1.03-1.37,1.6-.14,2.74-.06,5.49-.06,8.52Zm47.17,34.34c-4.05,.12-7.99,1.04-11.42,3.54-5.5,4.01-5.53,9.93-.08,13.97,6.33,4.7,16.91,4.75,23.28,.11,5.63-4.1,5.61-10.14-.08-14.19-3.46-2.46-7.4-3.35-11.7-3.43Zm-73.56,52.68c4.17-.08,8.11-.98,11.57-3.44,5.68-4.05,5.68-10.1,.05-14.19-6.4-4.64-16.93-4.58-23.27,.13-5.38,4-5.42,9.88-.04,13.87,3.46,2.57,7.45,3.52,11.7,3.63Z"/><path class="cls-1" d="M875.67,757.79c.89-3.21,1.97-6.33,4.16-8.95,4.58-5.49,10.6-8.29,17.54-9.3,7.1-1.04,13.83,.2,20.42,3.76v-2.05c0-22.81,0-45.62,0-68.43,0-.47,.02-.94,0-1.4-.1-2.53,.88-4.45,3.25-5.49,2.21-.97,4.27-.42,6.3,1.69,7.23,7.51,14.04,15.4,19.74,24.14,3.37,5.17,6.39,10.61,9.06,16.17,1.64,3.43,2.56,7.27,3.35,11.01,1.33,6.29-.14,12.28-3.33,17.7-2.27,3.85-5.02,7.45-7.83,10.94-2.15,2.68-5.45,2.83-7.75,.76-2.32-2.09-2.24-5.27,.09-7.95,1.49-1.72,2.88-3.53,4.24-5.36,5.06-6.77,5.52-13.95,2.25-21.66-3.76-8.86-9.13-16.69-14.98-24.23-1.14-1.47-2.34-2.9-3.86-4.77v2.26c0,23.75-.14,47.49,.07,71.24,.09,10.23-4.72,17.01-13.71,20.75-11.3,4.71-22.21,3.63-32.01-4.11-3.59-2.83-5.84-6.64-6.69-11.2-.04-.21-.19-.41-.29-.61v-4.91Zm26.29,13c4.16-.09,8.11-.99,11.56-3.46,5.67-4.06,5.65-10.11,0-14.19-6.42-4.63-16.94-4.56-23.27,.16-5.37,4-5.38,9.89,0,13.87,3.47,2.56,7.45,3.51,11.71,3.62Z"/></g><g><path class="cls-1" d="M1433.86,845.18c-3.51-1.02-7.18-1.68-10.5-3.15-6.22-2.76-10.76-7.37-12.22-14.21-1.71-8.05,1.47-14.5,7.93-19.05,10.03-7.07,20.84-7.41,31.93-2.51,.52,.23,1.02,.51,1.8,.89v-2.04c0-22.93,.05-45.85-.05-68.78-.02-3.67,1.33-5.78,4.73-7.23,23.75-10.07,47.48-20.2,71.13-30.52,4.82-2.1,8.52,1,8.5,5.55-.15,28.83-.16,57.67-.03,86.5,.04,8.87-3.95,15.03-11.42,19.23-10.55,5.93-25.31,4.65-34.13-2.88-9.99-8.53-9.51-22.37,1.28-29.86,10.08-7,20.87-7.35,31.96-2.43,.52,.23,1.02,.49,1.66,.8v-43.28c-.66,.24-1.3,.44-1.9,.7-19.85,8.51-39.7,17.04-59.57,25.5-1.31,.56-1.65,1.23-1.65,2.58,.04,20.18,.03,40.36,.03,60.53,0,10.74-4.92,17.9-15.06,21.57-2.61,.94-5.4,1.39-8.1,2.07h-6.32Zm29.48-97.53c.75-.3,1.28-.5,1.81-.72,11.32-4.85,22.63-9.7,33.95-14.55,8.64-3.7,17.28-7.38,25.89-11.14,.62-.27,1.43-1,1.45-1.55,.15-2.79,.07-5.6,.07-8.62-.83,.34-1.53,.61-2.21,.91-7.78,3.33-15.55,6.67-23.33,10.01-12.07,5.17-24.15,10.33-36.2,15.55-.6,.26-1.34,1.03-1.37,1.6-.14,2.74-.06,5.49-.06,8.52Zm47.17,34.34c-4.05,.12-7.99,1.04-11.42,3.54-5.5,4.01-5.53,9.93-.08,13.97,6.33,4.7,16.91,4.75,23.28,.11,5.63-4.1,5.61-10.14-.08-14.19-3.46-2.46-7.4-3.35-11.7-3.43Zm-73.56,52.68c4.17-.08,8.11-.98,11.57-3.44,5.68-4.05,5.68-10.1,.05-14.19-6.4-4.64-16.93-4.58-23.27,.13-5.38,4-5.42,9.88-.04,13.87,3.46,2.57,7.45,3.52,11.7,3.63Z"/><path class="cls-1" d="M1357.35,757.79c.89-3.21,1.97-6.33,4.16-8.95,4.58-5.49,10.6-8.29,17.54-9.3,7.1-1.04,13.83,.2,20.42,3.76v-2.05c0-22.81,0-45.62,0-68.43,0-.47,.02-.94,0-1.4-.1-2.53,.88-4.45,3.25-5.49,2.21-.97,4.27-.42,6.3,1.69,7.23,7.51,14.04,15.4,19.74,24.14,3.37,5.17,6.39,10.61,9.06,16.17,1.64,3.43,2.56,7.27,3.35,11.01,1.33,6.29-.14,12.28-3.33,17.7-2.27,3.85-5.02,7.45-7.83,10.94-2.15,2.68-5.45,2.83-7.75,.76-2.32-2.09-2.24-5.27,.09-7.95,1.49-1.72,2.88-3.53,4.24-5.36,5.06-6.77,5.52-13.95,2.25-21.66-3.76-8.86-9.13-16.69-14.98-24.23-1.14-1.47-2.34-2.9-3.86-4.77v2.26c0,23.75-.14,47.49,.07,71.24,.09,10.23-4.72,17.01-13.71,20.75-11.3,4.71-22.21,3.63-32.01-4.11-3.59-2.83-5.84-6.64-6.69-11.2-.04-.21-.19-.41-.29-.61v-4.91Zm26.29,13c4.16-.09,8.11-.99,11.56-3.46,5.67-4.06,5.65-10.11,0-14.19-6.42-4.63-16.94-4.56-23.27,.16-5.37,4-5.38,9.89,0,13.87,3.47,2.56,7.45,3.51,11.71,3.62Z"/></g><g><path class="cls-1" d="M1915.54,845.18c-3.51-1.02-7.18-1.68-10.5-3.15-6.22-2.76-10.76-7.37-12.22-14.21-1.71-8.05,1.47-14.5,7.93-19.05,10.03-7.07,20.84-7.41,31.93-2.51,.52,.23,1.02,.51,1.8,.89v-2.04c0-22.93,.05-45.85-.05-68.78-.02-3.67,1.33-5.78,4.73-7.23,23.75-10.07,47.48-20.2,71.13-30.52,4.82-2.1,8.52,1,8.5,5.55-.15,28.83-.16,57.67-.03,86.5,.04,8.87-3.95,15.03-11.42,19.23-10.55,5.93-25.31,4.65-34.13-2.88-9.99-8.53-9.51-22.37,1.28-29.86,10.08-7,20.87-7.35,31.96-2.43,.52,.23,1.02,.49,1.66,.8v-43.28c-.66,.24-1.3,.44-1.9,.7-19.85,8.51-39.7,17.04-59.57,25.5-1.31,.56-1.65,1.23-1.65,2.58,.04,20.18,.03,40.36,.03,60.53,0,10.74-4.92,17.9-15.06,21.57-2.61,.94-5.4,1.39-8.1,2.07h-6.32Zm29.48-97.53c.75-.3,1.28-.5,1.81-.72,11.32-4.85,22.63-9.7,33.95-14.55,8.64-3.7,17.28-7.38,25.89-11.14,.62-.27,1.43-1,1.45-1.55,.15-2.79,.07-5.6,.07-8.62-.83,.34-1.53,.61-2.21,.91-7.78,3.33-15.55,6.67-23.33,10.01-12.07,5.17-24.15,10.33-36.2,15.55-.6,.26-1.34,1.03-1.37,1.6-.14,2.74-.06,5.49-.06,8.52Zm47.17,34.34c-4.05,.12-7.99,1.04-11.42,3.54-5.5,4.01-5.53,9.93-.08,13.97,6.33,4.7,16.91,4.75,23.28,.11,5.63-4.1,5.61-10.14-.08-14.19-3.46-2.46-7.4-3.35-11.7-3.43Zm-73.56,52.68c4.17-.08,8.11-.98,11.57-3.44,5.68-4.05,5.68-10.1,.05-14.19-6.4-4.64-16.93-4.58-23.27,.13-5.38,4-5.42,9.88-.04,13.87,3.46,2.57,7.45,3.52,11.7,3.63Z"/><path class="cls-1" d="M1839.03,757.79c.89-3.21,1.97-6.33,4.16-8.95,4.58-5.49,10.6-8.29,17.54-9.3,7.1-1.04,13.83,.2,20.42,3.76v-2.05c0-22.81,0-45.62,0-68.43,0-.47,.02-.94,0-1.4-.1-2.53,.88-4.45,3.25-5.49,2.21-.97,4.27-.42,6.3,1.69,7.23,7.51,14.04,15.4,19.74,24.14,3.37,5.17,6.39,10.61,9.06,16.17,1.64,3.43,2.56,7.27,3.35,11.01,1.33,6.29-.14,12.28-3.33,17.7-2.27,3.85-5.02,7.45-7.83,10.94-2.15,2.68-5.45,2.83-7.75,.76-2.32-2.09-2.24-5.27,.09-7.95,1.49-1.72,2.88-3.53,4.24-5.36,5.06-6.77,5.52-13.95,2.25-21.66-3.76-8.86-9.13-16.69-14.98-24.23-1.14-1.47-2.34-2.9-3.86-4.77v2.26c0,23.75-.14,47.49,.07,71.24,.09,10.23-4.72,17.01-13.71,20.75-11.3,4.71-22.21,3.63-32.01-4.11-3.59-2.83-5.84-6.64-6.69-11.2-.04-.21-.19-.41-.29-.61v-4.91Zm26.29,13c4.16-.09,8.11-.99,11.56-3.46,5.67-4.06,5.65-10.11,0-14.19-6.42-4.63-16.94-4.56-23.27,.16-5.37,4-5.38,9.89,0,13.87,3.47,2.56,7.45,3.51,11.71,3.62Z"/></g><g><path class="cls-1" d="M224.11,1077.18c-3.51-1.02-7.18-1.68-10.5-3.15-6.22-2.76-10.76-7.37-12.22-14.21-1.71-8.05,1.47-14.5,7.93-19.05,10.03-7.07,20.84-7.41,31.93-2.51,.52,.23,1.02,.51,1.8,.89v-2.04c0-22.93,.05-45.85-.05-68.78-.02-3.67,1.33-5.78,4.73-7.23,23.75-10.07,47.48-20.2,71.13-30.52,4.82-2.1,8.52,1,8.5,5.55-.15,28.83-.16,57.67-.03,86.5,.04,8.87-3.95,15.03-11.42,19.23-10.55,5.93-25.31,4.65-34.13-2.88-9.99-8.53-9.51-22.37,1.28-29.86,10.08-7,20.87-7.35,31.96-2.43,.52,.23,1.02,.49,1.66,.8v-43.28c-.66,.24-1.3,.44-1.9,.7-19.85,8.51-39.7,17.04-59.57,25.5-1.31,.56-1.65,1.23-1.65,2.58,.04,20.18,.03,40.36,.03,60.53,0,10.74-4.92,17.9-15.06,21.57-2.61,.94-5.4,1.39-8.1,2.07h-6.32Zm29.48-97.53c.75-.3,1.28-.5,1.81-.72,11.32-4.85,22.63-9.7,33.95-14.55,8.64-3.7,17.28-7.38,25.89-11.14,.62-.27,1.43-1,1.45-1.55,.15-2.79,.07-5.6,.07-8.62-.83,.34-1.53,.61-2.21,.91-7.78,3.33-15.55,6.67-23.33,10.01-12.07,5.17-24.15,10.33-36.2,15.55-.6,.26-1.34,1.03-1.37,1.6-.14,2.74-.06,5.49-.06,8.52Zm47.17,34.34c-4.05,.12-7.99,1.04-11.42,3.54-5.5,4.01-5.53,9.93-.08,13.97,6.33,4.7,16.91,4.75,23.28,.11,5.63-4.1,5.61-10.14-.08-14.19-3.46-2.46-7.4-3.35-11.7-3.43Zm-73.56,52.68c4.17-.08,8.11-.98,11.57-3.44,5.68-4.05,5.68-10.1,.05-14.19-6.4-4.64-16.93-4.58-23.27,.13-5.38,4-5.42,9.88-.04,13.87,3.46,2.57,7.45,3.52,11.7,3.63Z"/><path class="cls-1" d="M147.6,989.79c.89-3.21,1.97-6.33,4.16-8.95,4.58-5.49,10.6-8.29,17.54-9.3,7.1-1.04,13.83,.2,20.42,3.76v-2.05c0-22.81,0-45.62,0-68.43,0-.47,.02-.94,0-1.4-.1-2.53,.88-4.45,3.25-5.49,2.21-.97,4.27-.42,6.3,1.69,7.23,7.51,14.04,15.4,19.74,24.14,3.37,5.17,6.39,10.61,9.06,16.17,1.64,3.43,2.56,7.27,3.35,11.01,1.33,6.29-.14,12.28-3.33,17.7-2.27,3.85-5.02,7.45-7.83,10.94-2.15,2.68-5.45,2.83-7.75,.76-2.32-2.09-2.24-5.27,.09-7.95,1.49-1.72,2.88-3.53,4.24-5.36,5.06-6.77,5.52-13.95,2.25-21.66-3.76-8.86-9.13-16.69-14.98-24.23-1.14-1.47-2.34-2.9-3.86-4.77v2.26c0,23.75-.14,47.49,.07,71.24,.09,10.23-4.72,17.01-13.71,20.75-11.3,4.71-22.21,3.63-32.01-4.11-3.59-2.83-5.84-6.64-6.69-11.2-.04-.21-.19-.41-.29-.61v-4.91Zm26.29,13c4.16-.09,8.11-.99,11.56-3.46,5.67-4.06,5.65-10.11,0-14.19-6.42-4.63-16.94-4.56-23.27,.16-5.37,4-5.38,9.89,0,13.87,3.47,2.56,7.45,3.51,11.71,3.62Z"/></g><g><path class="cls-1" d="M705.79,1077.18c-3.51-1.02-7.18-1.68-10.5-3.15-6.22-2.76-10.76-7.37-12.22-14.21-1.71-8.05,1.47-14.5,7.93-19.05,10.03-7.07,20.84-7.41,31.93-2.51,.52,.23,1.02,.51,1.8,.89v-2.04c0-22.93,.05-45.85-.05-68.78-.02-3.67,1.33-5.78,4.73-7.23,23.75-10.07,47.48-20.2,71.13-30.52,4.82-2.1,8.52,1,8.5,5.55-.15,28.83-.16,57.67-.03,86.5,.04,8.87-3.95,15.03-11.42,19.23-10.55,5.93-25.31,4.65-34.13-2.88-9.99-8.53-9.51-22.37,1.28-29.86,10.08-7,20.87-7.35,31.96-2.43,.52,.23,1.02,.49,1.66,.8v-43.28c-.66,.24-1.3,.44-1.9,.7-19.85,8.51-39.7,17.04-59.57,25.5-1.31,.56-1.65,1.23-1.65,2.58,.04,20.18,.03,40.36,.03,60.53,0,10.74-4.92,17.9-15.06,21.57-2.61,.94-5.4,1.39-8.1,2.07h-6.32Zm29.48-97.53c.75-.3,1.28-.5,1.81-.72,11.32-4.85,22.63-9.7,33.95-14.55,8.64-3.7,17.28-7.38,25.89-11.14,.62-.27,1.43-1,1.45-1.55,.15-2.79,.07-5.6,.07-8.62-.83,.34-1.53,.61-2.21,.91-7.78,3.33-15.55,6.67-23.33,10.01-12.07,5.17-24.15,10.33-36.2,15.55-.6,.26-1.34,1.03-1.37,1.6-.14,2.74-.06,5.49-.06,8.52Zm47.17,34.34c-4.05,.12-7.99,1.04-11.42,3.54-5.5,4.01-5.53,9.93-.08,13.97,6.33,4.7,16.91,4.75,23.28,.11,5.63-4.1,5.61-10.14-.08-14.19-3.46-2.46-7.4-3.35-11.7-3.43Zm-73.56,52.68c4.17-.08,8.11-.98,11.57-3.44,5.68-4.05,5.68-10.1,.05-14.19-6.4-4.64-16.93-4.58-23.27,.13-5.38,4-5.42,9.88-.04,13.87,3.46,2.57,7.45,3.52,11.7,3.63Z"/><path class="cls-1" d="M629.28,989.79c.89-3.21,1.97-6.33,4.16-8.95,4.58-5.49,10.6-8.29,17.54-9.3,7.1-1.04,13.83,.2,20.42,3.76v-2.05c0-22.81,0-45.62,0-68.43,0-.47,.02-.94,0-1.4-.1-2.53,.88-4.45,3.25-5.49,2.21-.97,4.27-.42,6.3,1.69,7.23,7.51,14.04,15.4,19.74,24.14,3.37,5.17,6.39,10.61,9.06,16.17,1.64,3.43,2.56,7.27,3.35,11.01,1.33,6.29-.14,12.28-3.33,17.7-2.27,3.85-5.02,7.45-7.83,10.94-2.15,2.68-5.45,2.83-7.75,.76-2.32-2.09-2.24-5.27,.09-7.95,1.49-1.72,2.88-3.53,4.24-5.36,5.06-6.77,5.52-13.95,2.25-21.66-3.76-8.86-9.13-16.69-14.98-24.23-1.14-1.47-2.34-2.9-3.86-4.77v2.26c0,23.75-.14,47.49,.07,71.24,.09,10.23-4.72,17.01-13.71,20.75-11.3,4.71-22.21,3.63-32.01-4.11-3.59-2.83-5.84-6.64-6.69-11.2-.04-.21-.19-.41-.29-.61v-4.91Zm26.29,13c4.16-.09,8.11-.99,11.56-3.46,5.67-4.06,5.65-10.11,0-14.19-6.42-4.63-16.94-4.56-23.27,.16-5.37,4-5.38,9.89,0,13.87,3.47,2.56,7.45,3.51,11.71,3.62Z"/></g><g><path class="cls-1" d="M1187.46,1077.18c-3.51-1.02-7.18-1.68-10.5-3.15-6.22-2.76-10.76-7.37-12.22-14.21-1.71-8.05,1.47-14.5,7.93-19.05,10.03-7.07,20.84-7.41,31.93-2.51,.52,.23,1.02,.51,1.8,.89v-2.04c0-22.93,.05-45.85-.05-68.78-.02-3.67,1.33-5.78,4.73-7.23,23.75-10.07,47.48-20.2,71.13-30.52,4.82-2.1,8.52,1,8.5,5.55-.15,28.83-.16,57.67-.03,86.5,.04,8.87-3.95,15.03-11.42,19.23-10.55,5.93-25.31,4.65-34.13-2.88-9.99-8.53-9.51-22.37,1.28-29.86,10.08-7,20.87-7.35,31.96-2.43,.52,.23,1.02,.49,1.66,.8v-43.28c-.66,.24-1.3,.44-1.9,.7-19.85,8.51-39.7,17.04-59.57,25.5-1.31,.56-1.65,1.23-1.65,2.58,.04,20.18,.03,40.36,.03,60.53,0,10.74-4.92,17.9-15.06,21.57-2.61,.94-5.4,1.39-8.1,2.07h-6.32Zm29.48-97.53c.75-.3,1.28-.5,1.81-.72,11.32-4.85,22.63-9.7,33.95-14.55,8.64-3.7,17.28-7.38,25.89-11.14,.62-.27,1.43-1,1.45-1.55,.15-2.79,.07-5.6,.07-8.62-.83,.34-1.53,.61-2.21,.91-7.78,3.33-15.55,6.67-23.33,10.01-12.07,5.17-24.15,10.33-36.2,15.55-.6,.26-1.34,1.03-1.37,1.6-.14,2.74-.06,5.49-.06,8.52Zm47.17,34.34c-4.05,.12-7.99,1.04-11.42,3.54-5.5,4.01-5.53,9.93-.08,13.97,6.33,4.7,16.91,4.75,23.28,.11,5.63-4.1,5.61-10.14-.08-14.19-3.46-2.46-7.4-3.35-11.7-3.43Zm-73.56,52.68c4.17-.08,8.11-.98,11.57-3.44,5.68-4.05,5.68-10.1,.05-14.19-6.4-4.64-16.93-4.58-23.27,.13-5.38,4-5.42,9.88-.04,13.87,3.46,2.57,7.45,3.52,11.7,3.63Z"/><path class="cls-1" d="M1110.95,989.79c.89-3.21,1.97-6.33,4.16-8.95,4.58-5.49,10.6-8.29,17.54-9.3,7.1-1.04,13.83,.2,20.42,3.76v-2.05c0-22.81,0-45.62,0-68.43,0-.47,.02-.94,0-1.4-.1-2.53,.88-4.45,3.25-5.49,2.21-.97,4.27-.42,6.3,1.69,7.23,7.51,14.04,15.4,19.74,24.14,3.37,5.17,6.39,10.61,9.06,16.17,1.64,3.43,2.56,7.27,3.35,11.01,1.33,6.29-.14,12.28-3.33,17.7-2.27,3.85-5.02,7.45-7.83,10.94-2.15,2.68-5.45,2.83-7.75,.76-2.32-2.09-2.24-5.27,.09-7.95,1.49-1.72,2.88-3.53,4.24-5.36,5.06-6.77,5.52-13.95,2.25-21.66-3.76-8.86-9.13-16.69-14.98-24.23-1.14-1.47-2.34-2.9-3.86-4.77v2.26c0,23.75-.14,47.49,.07,71.24,.09,10.23-4.72,17.01-13.71,20.75-11.3,4.71-22.21,3.63-32.01-4.11-3.59-2.83-5.84-6.64-6.69-11.2-.04-.21-.19-.41-.29-.61v-4.91Zm26.29,13c4.16-.09,8.11-.99,11.56-3.46,5.67-4.06,5.65-10.11,0-14.19-6.42-4.63-16.94-4.56-23.27,.16-5.37,4-5.38,9.89,0,13.87,3.47,2.56,7.45,3.51,11.71,3.62Z"/></g><g><path class="cls-1" d="M1669.14,1077.18c-3.51-1.02-7.18-1.68-10.5-3.15-6.22-2.76-10.76-7.37-12.22-14.21-1.71-8.05,1.47-14.5,7.93-19.05,10.03-7.07,20.84-7.41,31.93-2.51,.52,.23,1.02,.51,1.8,.89v-2.04c0-22.93,.05-45.85-.05-68.78-.02-3.67,1.33-5.78,4.73-7.23,23.75-10.07,47.48-20.2,71.13-30.52,4.82-2.1,8.52,1,8.5,5.55-.15,28.83-.16,57.67-.03,86.5,.04,8.87-3.95,15.03-11.42,19.23-10.55,5.93-25.31,4.65-34.13-2.88-9.99-8.53-9.51-22.37,1.28-29.86,10.08-7,20.87-7.35,31.96-2.43,.52,.23,1.02,.49,1.66,.8v-43.28c-.66,.24-1.3,.44-1.9,.7-19.85,8.51-39.7,17.04-59.57,25.5-1.31,.56-1.65,1.23-1.65,2.58,.04,20.18,.03,40.36,.03,60.53,0,10.74-4.92,17.9-15.06,21.57-2.61,.94-5.4,1.39-8.1,2.07h-6.32Zm29.48-97.53c.75-.3,1.28-.5,1.81-.72,11.32-4.85,22.63-9.7,33.95-14.55,8.64-3.7,17.28-7.38,25.89-11.14,.62-.27,1.43-1,1.45-1.55,.15-2.79,.07-5.6,.07-8.62-.83,.34-1.53,.61-2.21,.91-7.78,3.33-15.55,6.67-23.33,10.01-12.07,5.17-24.15,10.33-36.2,15.55-.6,.26-1.34,1.03-1.37,1.6-.14,2.74-.06,5.49-.06,8.52Zm47.17,34.34c-4.05,.12-7.99,1.04-11.42,3.54-5.5,4.01-5.53,9.93-.08,13.97,6.33,4.7,16.91,4.75,23.28,.11,5.63-4.1,5.61-10.14-.08-14.19-3.46-2.46-7.4-3.35-11.7-3.43Zm-73.56,52.68c4.17-.08,8.11-.98,11.57-3.44,5.68-4.05,5.68-10.1,.05-14.19-6.4-4.64-16.93-4.58-23.27,.13-5.38,4-5.42,9.88-.04,13.87,3.46,2.57,7.45,3.52,11.7,3.63Z"/><path class="cls-1" d="M1592.63,989.79c.89-3.21,1.97-6.33,4.16-8.95,4.58-5.49,10.6-8.29,17.54-9.3,7.1-1.04,13.83,.2,20.42,3.76v-2.05c0-22.81,0-45.62,0-68.43,0-.47,.02-.94,0-1.4-.1-2.53,.88-4.45,3.25-5.49,2.21-.97,4.27-.42,6.3,1.69,7.23,7.51,14.04,15.4,19.74,24.14,3.37,5.17,6.39,10.61,9.06,16.17,1.64,3.43,2.56,7.27,3.35,11.01,1.33,6.29-.14,12.28-3.33,17.7-2.27,3.85-5.02,7.45-7.83,10.94-2.15,2.68-5.45,2.83-7.75,.76-2.32-2.09-2.24-5.27,.09-7.95,1.49-1.72,2.88-3.53,4.24-5.36,5.06-6.77,5.52-13.95,2.25-21.66-3.76-8.86-9.13-16.69-14.98-24.23-1.14-1.47-2.34-2.9-3.86-4.77v2.26c0,23.75-.14,47.49,.07,71.24,.09,10.23-4.72,17.01-13.71,20.75-11.3,4.71-22.21,3.63-32.01-4.11-3.59-2.83-5.84-6.64-6.69-11.2-.04-.21-.19-.41-.29-.61v-4.91Zm26.29,13c4.16-.09,8.11-.99,11.56-3.46,5.67-4.06,5.65-10.11,0-14.19-6.42-4.63-16.94-4.56-23.27,.16-5.37,4-5.38,9.89,0,13.87,3.47,2.56,7.45,3.51,11.71,3.62Z"/></g></g></g><g id="Calque_4"><g class="cls-3"><g><path class="cls-8" d="M-100.54,717.84c-3.8,6.03-4.88,13.06-4.9,20.18,0,3.28,0,6.56,0,10.01-2.89,0-5.58,0-8.27,0-8.41,.04-16.83-.12-25.23,.18-6.7,.24-12.45,5.53-13.42,12.18-.51,3.46-.42,7.04-.28,10.55,.11,2.86,2.67,5.01,5.57,5.15,.74,.04,1.49,0,2.39,0v2.3c0,20.53,0,41.06,0,61.59,0,4.38,2.5,6.88,6.88,6.94,2,.03,4.01-.1,6,.03,4.64,.3,7.83-2.45,7.79-7.73-.15-20.29-.06-40.59-.06-60.89v-2.15h18.55v9.7c-8.64,1.57-12.86,5.59-13.09,12.43-.1,2.92,.72,5.57,2.47,7.92,2.65,3.55,6.34,5.02,10.71,5.22v2.09c0,8.94,0,17.88,0,26.83,0,4.07,2.37,6.48,6.43,6.56,1.88,.04,3.76,.01,5.65,0,4.91-.01,7.13-2.21,7.13-7.1,0-8.77,0-17.53,0-26.3v-2.08H-38.55c0,.78,0,1.48,0,2.17,0,8.82-.01,17.65,0,26.47,0,4.53,2.31,6.79,6.87,6.82,1.82,.01,3.65,.01,5.47,0,4.53-.03,6.87-2.34,6.87-6.83,0-8.94,0-17.88,0-26.83v-1.81c7.73-.74,12.58-5.08,13.12-11.47,.27-3.11-.4-5.96-2.21-8.51-2.64-3.72-6.4-5.32-10.79-5.47v-9.77H-.69v2.21c0,20.53,0,41.06,0,61.59,0,3.9,2.09,6.52,5.7,6.79,3.04,.22,6.12,.21,9.16,0,3.42-.23,5.66-2.8,5.73-6.23,.01-.6,.02-1.2,.02-1.8,.11-.38,.04-.88,0-1.35,0-1.35,0-2.7-.01-4.05,0-14.83,0-42.85,0-55.03v-2.33c3.93,.52,6.7-.84,8.06-4.53v-10.59c-.07-.09-.19-.16-.22-.26-2.37-8.66-7.52-12.63-16.45-12.64-9.47,0-18.94,0-28.41,0h-2.22c0-.97,.02-1.72,0-2.48-.14-4.64,.16-9.34-.5-13.91-4.26-29.94-37.38-46.21-63.69-31.32-3.14,1.78-6.17,3.94-8.74,6.51-2.43,2.44-6.46,8.09-8.29,11Zm10.86-5.87c.54-.73,1.15-1.42,1.82-2.04h0c18.88-17.28,49.06-11.11,59.82,12.11,3.82,8.24,3.52,16.91,3.36,25.61,0,.09-.13,.18-.2,.27H-100.38c.25-5.51,.09-10.96,.88-16.26,.33-2.17,1.01-4.29,1.79-6.39,1.21-3.27,2.88-6.34,4.95-9.14l3.07-4.15Zm-39.69,66.12c0,20.34,0,40.68,0,61.02,0,2.52-.02,2.54-2.57,2.54-1.76,0-3.53-.08-5.29,.02-1.73,.11-2.2-.6-2.19-2.27,.05-14.52,.03-29.04,.03-43.56,0-5.88,0-11.76,0-17.63v-2.04h10.02v1.91Zm36.23,63.58c-1.88-.07-3.76-.03-5.63-.01-.92,0-1.39-.29-1.39-1.32,.03-9.56,.01-19.12,.01-28.81h8.63c0,6.74,0,13.31,0,19.88,0,2.88-.04,5.75,.02,8.63,.02,1.22-.42,1.68-1.64,1.64Zm66.59,.01c-1.76-.12-3.53-.05-5.29-.02-.94,.02-1.41-.33-1.41-1.33,.03-9.47,.03-18.94,.05-28.41,0-.11,.08-.21,.18-.48h8.3c.04,.55,.1,1.05,.1,1.56,0,8.88-.03,17.77,.04,26.65,.01,1.52-.38,2.14-1.97,2.03Zm15.12-43.01c.03,4.18-3.15,7.36-7.55,7.41-5.29,.06-10.58,.02-15.87,.02-9.17,0-18.34,0-27.51,0-14.35,0-28.69,.01-43.04,0-4.6,0-7.85-2.99-7.94-7.2-.08-3.78,2.57-6.85,6.4-7.41,.46-.07,.94-.09,1.4-.09,28.75,0,57.5,0,86.25,0,4.57,0,7.82,3.05,7.85,7.28Zm-88.65-12.72v-9.71H-24.74v9.71H-100.09Zm112.95,55.71c-1.94-.04-3.88,0-5.82,0-2.4,0-2.43-.04-2.43-2.5,0-20.35,0-40.71,0-61.06v-1.86H14.62v2.19c0,12.04,0,39.4,0,54.46-.03,2.34-.05,4.68,.01,7.02,.04,1.32-.53,1.8-1.78,1.77Zm9.76-72.07c-.02,.43-.72,.94-1.21,1.19-.37,.19-.92,.04-1.39,.04-27.53,0-55.06,0-82.59,0s-55.06,0-82.59,0q-2.3,0-2.3-2.29c0-1.88-.04-3.77,.02-5.65,.16-4.91,3.92-8.92,8.82-9.44,.88-.09,1.76-.11,2.64-.11,49.06,0,98.12,0,147.18,.02,1.57,0,3.22,.08,4.69,.57,4.01,1.33,6.29,4.27,6.71,8.44,.24,2.39,.12,4.82,.02,7.23Z"/><path class="cls-8" d="M-100.54,240.42c-3.8,6.03-4.88,13.06-4.9,20.18,0,3.28,0,6.56,0,10.01-2.89,0-5.58,0-8.27,0-8.41,.04-16.83-.12-25.23,.18-6.7,.24-12.45,5.53-13.42,12.18-.51,3.46-.42,7.04-.28,10.55,.11,2.86,2.67,5.01,5.57,5.15,.74,.04,1.49,0,2.39,0v2.3c0,20.53,0,41.06,0,61.59,0,4.38,2.5,6.88,6.88,6.94,2,.03,4.01-.1,6,.03,4.64,.3,7.83-2.45,7.79-7.73-.15-20.29-.06-40.59-.06-60.89v-2.15h18.55v9.7c-8.64,1.57-12.86,5.59-13.09,12.43-.1,2.92,.72,5.57,2.47,7.92,2.65,3.55,6.34,5.02,10.71,5.22v2.09c0,8.94,0,17.88,0,26.83,0,4.07,2.37,6.48,6.43,6.56,1.88,.04,3.76,.01,5.65,0,4.91-.01,7.13-2.21,7.13-7.1,0-8.77,0-17.53,0-26.3v-2.08H-38.55c0,.78,0,1.48,0,2.17,0,8.82-.01,17.65,0,26.47,0,4.53,2.31,6.79,6.87,6.82,1.82,.01,3.65,.01,5.47,0,4.53-.03,6.87-2.34,6.87-6.83,0-8.94,0-17.88,0-26.83v-1.81c7.73-.74,12.58-5.08,13.12-11.47,.27-3.11-.4-5.96-2.21-8.51-2.64-3.72-6.4-5.32-10.79-5.47v-9.77H-.69v2.21c0,20.53,0,41.06,0,61.59,0,3.9,2.09,6.52,5.7,6.79,3.04,.22,6.12,.21,9.16,0,3.42-.23,5.66-2.8,5.73-6.23,.01-.6,.02-1.2,.02-1.8,.11-.38,.04-.88,0-1.35,0-1.35,0-2.7-.01-4.05,0-14.83,0-42.85,0-55.03v-2.33c3.93,.52,6.7-.84,8.06-4.53v-10.59c-.07-.09-.19-.16-.22-.26-2.37-8.66-7.52-12.63-16.45-12.64-9.47,0-18.94,0-28.41,0h-2.22c0-.97,.02-1.72,0-2.48-.14-4.64,.16-9.34-.5-13.91-4.26-29.94-37.38-46.21-63.69-31.32-3.14,1.78-6.17,3.94-8.74,6.51-2.43,2.44-6.46,8.09-8.29,11Zm10.86-5.87c.54-.73,1.15-1.42,1.82-2.04h0c18.88-17.28,49.06-11.11,59.82,12.11,3.82,8.24,3.52,16.91,3.36,25.61,0,.09-.13,.18-.2,.27H-100.38c.25-5.51,.09-10.96,.88-16.26,.33-2.17,1.01-4.29,1.79-6.39,1.21-3.27,2.88-6.34,4.95-9.14l3.07-4.15Zm-39.69,66.12c0,20.34,0,40.68,0,61.02,0,2.52-.02,2.54-2.57,2.54-1.76,0-3.53-.08-5.29,.02-1.73,.11-2.2-.6-2.19-2.27,.05-14.52,.03-29.04,.03-43.56,0-5.88,0-11.76,0-17.63v-2.04h10.02v1.91Zm36.23,63.58c-1.88-.07-3.76-.03-5.63-.01-.92,0-1.39-.29-1.39-1.32,.03-9.56,.01-19.12,.01-28.81h8.63c0,6.74,0,13.31,0,19.88,0,2.88-.04,5.75,.02,8.63,.02,1.22-.42,1.68-1.64,1.64Zm66.59,.01c-1.76-.12-3.53-.05-5.29-.02-.94,.02-1.41-.33-1.41-1.33,.03-9.47,.03-18.94,.05-28.41,0-.11,.08-.21,.18-.48h8.3c.04,.55,.1,1.05,.1,1.56,0,8.88-.03,17.77,.04,26.65,.01,1.52-.38,2.14-1.97,2.03Zm15.12-43.01c.03,4.18-3.15,7.36-7.55,7.41-5.29,.06-10.58,.02-15.87,.02-9.17,0-18.34,0-27.51,0-14.35,0-28.69,.01-43.04,0-4.6,0-7.85-2.99-7.94-7.2-.08-3.78,2.57-6.85,6.4-7.41,.46-.07,.94-.09,1.4-.09,28.75,0,57.5,0,86.25,0,4.57,0,7.82,3.05,7.85,7.28Zm-88.65-12.72v-9.71H-24.74v9.71H-100.09ZM12.86,364.25c-1.94-.04-3.88,0-5.82,0-2.4,0-2.43-.04-2.43-2.5,0-20.35,0-40.71,0-61.06v-1.86H14.62v2.19c0,12.04,0,39.4,0,54.46-.03,2.34-.05,4.68,.01,7.02,.04,1.32-.53,1.8-1.78,1.77Zm9.76-72.07c-.02,.43-.72,.94-1.21,1.19-.37,.19-.92,.04-1.39,.04-27.53,0-55.06,0-82.59,0s-55.06,0-82.59,0q-2.3,0-2.3-2.29c0-1.88-.04-3.77,.02-5.65,.16-4.91,3.92-8.92,8.82-9.44,.88-.09,1.76-.11,2.64-.11,49.06,0,98.12,0,147.18,.02,1.57,0,3.22,.08,4.69,.57,4.01,1.33,6.29,4.27,6.71,8.44,.24,2.39,.12,4.82,.02,7.23Z"/></g></g></g><g id="Calque_3"><g class="cls-2"><g><path class="cls-7" d="M1969.69,279.66c1.05,1.06,1.64,2.49,1.64,3.98s-.59,2.92-1.64,3.98l-21.82,21.83c-1.06,1.04-2.49,1.63-3.97,1.63-1.49,0-2.92-.59-3.97-1.65-1.05-1.05-1.64-2.48-1.64-3.97,0-1.49,.59-2.92,1.64-3.97l21.83-21.82c1.06-1.05,2.49-1.64,3.97-1.64s2.92,.59,3.97,1.64h0Zm20.16-34.04c1.84-1.83,4.34-2.86,6.94-2.86s5.09,1.03,6.93,2.86c1.84,1.84,2.87,4.33,2.87,6.94s-1.03,5.1-2.87,6.94c-1.84,1.84-4.34,2.87-6.94,2.87s-5.1-1.03-6.94-2.87c-1.84-1.84-2.87-4.33-2.87-6.94s1.03-5.1,2.87-6.94h0Zm6.94,28c6.55,0,12.72-3.04,16.71-8.23,3.99-5.19,5.34-11.94,3.64-18.27-1.69-6.33-6.23-11.5-12.28-14.01-6.05-2.51-12.92-2.06-18.59,1.21-5.67,3.27-9.5,8.99-10.36,15.49-.86,6.49,1.36,13.01,5.98,17.64,3.94,3.96,9.3,6.18,14.88,6.17h0Zm-102.62,76.5h0c2.19-.83,4.32-1.83,6.36-2.99l1.68,1.68c-1.15,2.05-2.15,4.18-3,6.37-2.11,5.07-4.09,9.88-10.86,14.22-4.03,2.67-8.62,4.38-13.42,4.99,.62-4.75,2.3-9.3,4.92-13.31,4.37-6.85,9.19-8.83,14.31-10.96h0Zm-23.78,4.91c-4.91,7.55-7.31,16.45-6.86,25.44,.07,1.39,.65,2.71,1.64,3.7,.99,.99,2.3,1.57,3.7,1.64,.72,.02,1.43,.05,2.14,.05h0c8.32,0,16.46-2.44,23.42-7,9.72-6.25,12.74-13.55,15.16-19.39h0c.86-2.64,2.21-5.09,3.99-7.22,1.05-1.05,1.64-2.48,1.64-3.96s-.59-2.91-1.64-3.96l-8.56-8.59c-1.06-1.05-2.48-1.64-3.97-1.64s-2.92,.59-3.97,1.64c-2.13,1.78-4.57,3.15-7.21,4.01-5.89,2.44-13.22,5.45-19.49,15.29h0Zm123.72-25.79l-22.54,22.53-3.17-17.41c6.3-3.26,12.37-6.96,18.17-11.06,2.4-1.71,4.75-3.46,7.06-5.27l.48,11.21Zm-53.66,2.26c9.99-.3,24.43-6.65,39.65-17.38,13.93-9.84,26.4-21.88,32.52-31.41,12.76-19.42,19.51-42.16,19.39-65.4h-.67c-22.84,.01-45.19,6.66-64.33,19.13-9.65,6.15-21.79,18.66-31.69,32.61-10.81,15.25-17.18,29.75-17.51,39.81h0c-.04,1.43-.63,2.79-1.64,3.8l-5.12,5.12,20.48,20.49,5.12-5.12c1.01-1.01,2.37-1.6,3.8-1.66h0Zm-42.9-53.75l22.54-22.53,11.2,.48c-1.76,2.23-3.48,4.54-5.14,6.87h0c-4.16,5.85-7.9,11.99-11.19,18.36l-17.41-3.19h0Zm124.53,11.03c15.02-22.86,22.38-49.89,21.02-77.21-.07-1.39-.66-2.71-1.64-3.7-.99-.99-2.31-1.57-3.7-1.64-27.14-1.34-54.02,5.93-76.78,20.77-7.51,5.09-14.37,11.07-20.43,17.83l-22.44-.95c-1.57-.07-3.1,.52-4.21,1.63l-31.87,31.88c-.98,.97-1.56,2.26-1.65,3.63-.08,1.37,.34,2.73,1.19,3.81,.85,1.08,2.07,1.81,3.42,2.05l25.3,4.62c-1.82,4.74-3.02,9.7-3.57,14.75l-7.59,7.57h0c-1.05,1.06-1.64,2.49-1.64,3.98s.59,2.92,1.64,3.98l28.43,28.42c1.05,1.06,2.48,1.66,3.97,1.66s2.92-.6,3.97-1.66l7.59-7.6h0c5.05-.54,10-1.74,14.73-3.56l4.59,25.31h0c.19,1.01,.64,1.95,1.32,2.72,.68,.77,1.55,1.34,2.53,1.65,.54,.17,1.11,.25,1.67,.25,1.49,0,2.93-.59,3.98-1.65l31.86-31.86c1.12-1.11,1.71-2.64,1.64-4.21l-.96-22.42h0c6.66-5.93,12.57-12.66,17.6-20.02h0Z"/><path class="cls-7" d="M1969.69,775.76c1.05,1.06,1.64,2.49,1.64,3.98s-.59,2.92-1.64,3.98l-21.82,21.83c-1.06,1.04-2.49,1.63-3.97,1.63-1.49,0-2.92-.59-3.97-1.65-1.05-1.05-1.64-2.48-1.64-3.97,0-1.49,.59-2.92,1.64-3.97l21.83-21.82c1.06-1.05,2.49-1.64,3.97-1.64s2.92,.59,3.97,1.64h0Zm20.16-34.04c1.84-1.83,4.34-2.86,6.94-2.86s5.09,1.03,6.93,2.86c1.84,1.84,2.87,4.33,2.87,6.94s-1.03,5.1-2.87,6.94c-1.84,1.84-4.34,2.87-6.94,2.87s-5.1-1.03-6.94-2.87c-1.84-1.84-2.87-4.33-2.87-6.94s1.03-5.1,2.87-6.94h0Zm6.94,28c6.55,0,12.72-3.04,16.71-8.23,3.99-5.19,5.34-11.94,3.64-18.27-1.69-6.33-6.23-11.5-12.28-14.01-6.05-2.51-12.92-2.06-18.59,1.21-5.67,3.27-9.5,8.99-10.36,15.49-.86,6.49,1.36,13.01,5.98,17.64,3.94,3.96,9.3,6.18,14.88,6.17h0Zm-102.62,76.5h0c2.19-.83,4.32-1.83,6.36-2.99l1.68,1.68c-1.15,2.05-2.15,4.18-3,6.37-2.11,5.07-4.09,9.88-10.86,14.22-4.03,2.67-8.62,4.38-13.42,4.99,.62-4.75,2.3-9.3,4.92-13.31,4.37-6.85,9.19-8.83,14.31-10.96h0Zm-23.78,4.91c-4.91,7.55-7.31,16.45-6.86,25.44,.07,1.39,.65,2.71,1.64,3.7,.99,.99,2.3,1.57,3.7,1.64,.72,.02,1.43,.05,2.14,.05h0c8.32,0,16.46-2.44,23.42-7,9.72-6.25,12.74-13.55,15.16-19.39h0c.86-2.64,2.21-5.09,3.99-7.22,1.05-1.05,1.64-2.48,1.64-3.96s-.59-2.91-1.64-3.96l-8.56-8.59c-1.06-1.05-2.48-1.64-3.97-1.64s-2.92,.59-3.97,1.64c-2.13,1.78-4.57,3.15-7.21,4.01-5.89,2.44-13.22,5.45-19.49,15.29h0Zm123.72-25.79l-22.54,22.53-3.17-17.41c6.3-3.26,12.37-6.96,18.17-11.06,2.4-1.71,4.75-3.46,7.06-5.27l.48,11.21Zm-53.66,2.26c9.99-.3,24.43-6.65,39.65-17.38,13.93-9.84,26.4-21.88,32.52-31.41,12.76-19.42,19.51-42.16,19.39-65.4h-.67c-22.84,.01-45.19,6.66-64.33,19.13-9.65,6.15-21.79,18.66-31.69,32.61-10.81,15.25-17.18,29.75-17.51,39.81h0c-.04,1.43-.63,2.79-1.64,3.8l-5.12,5.12,20.48,20.49,5.12-5.12c1.01-1.01,2.37-1.6,3.8-1.66h0Zm-42.9-53.75l22.54-22.53,11.2,.48c-1.76,2.23-3.48,4.54-5.14,6.87h0c-4.16,5.85-7.9,11.99-11.19,18.36l-17.41-3.19h0Zm124.53,11.03c15.02-22.86,22.38-49.89,21.02-77.21-.07-1.39-.66-2.71-1.64-3.7-.99-.99-2.31-1.57-3.7-1.64-27.14-1.34-54.02,5.93-76.78,20.77-7.51,5.09-14.37,11.07-20.43,17.83l-22.44-.95c-1.57-.07-3.1,.52-4.21,1.63l-31.87,31.88c-.98,.97-1.56,2.26-1.65,3.63-.08,1.37,.34,2.73,1.19,3.81,.85,1.08,2.07,1.81,3.42,2.05l25.3,4.62c-1.82,4.74-3.02,9.7-3.57,14.75l-7.59,7.57h0c-1.05,1.06-1.64,2.49-1.64,3.98s.59,2.92,1.64,3.98l28.43,28.42c1.05,1.06,2.48,1.66,3.97,1.66s2.92-.6,3.97-1.66l7.59-7.6h0c5.05-.54,10-1.74,14.73-3.56l4.59,25.31h0c.19,1.01,.64,1.95,1.32,2.72,.68,.77,1.55,1.34,2.53,1.65,.54,.17,1.11,.25,1.67,.25,1.49,0,2.93-.59,3.98-1.65l31.86-31.86c1.12-1.11,1.71-2.64,1.64-4.21l-.96-22.42h0c6.66-5.93,12.57-12.66,17.6-20.02h0Z"/></g></g></g></svg>