<svg width="57" height="57" viewBox="0 0 57 57" fill="none" xmlns="http://www.w3.org/2000/svg">
<g clip-path="url(#clip0_137_2296)">
<path d="M51.3 0H5.7C4.18827 0 2.73845 0.600534 1.66949 1.66949C0.600534 2.73845 0 4.18827 0 5.7L0 57L11.4 45.6H51.3C52.8117 45.6 54.2615 44.9995 55.3305 43.9305C56.3995 42.8615 57 41.4117 57 39.9V5.7C57 4.18827 56.3995 2.73845 55.3305 1.66949C54.2615 0.600534 52.8117 0 51.3 0V0ZM39.9 11.4C40.7455 11.4 41.572 11.6507 42.2751 12.1205C42.9781 12.5902 43.526 13.2579 43.8496 14.039C44.1731 14.8202 44.2578 15.6797 44.0929 16.509C43.9279 17.3383 43.5208 18.1 42.9229 18.6979C42.325 19.2958 41.5633 19.7029 40.734 19.8679C39.9047 20.0328 39.0452 19.9481 38.264 19.6246C37.4829 19.301 36.8152 18.7531 36.3455 18.0501C35.8757 17.347 35.625 16.5205 35.625 15.675C35.625 14.5412 36.0754 13.4538 36.8771 12.6521C37.6788 11.8504 38.7662 11.4 39.9 11.4ZM17.1 11.4C17.9455 11.4 18.772 11.6507 19.4751 12.1205C20.1781 12.5902 20.726 13.2579 21.0496 14.039C21.3731 14.8202 21.4578 15.6797 21.2929 16.509C21.1279 17.3383 20.7208 18.1 20.1229 18.6979C19.525 19.2958 18.7633 19.7029 17.934 19.8679C17.1047 20.0328 16.2452 19.9481 15.464 19.6246C14.6829 19.301 14.0152 18.7531 13.5455 18.0501C13.0757 17.347 12.825 16.5205 12.825 15.675C12.825 14.5412 13.2754 13.4538 14.0771 12.6521C14.8788 11.8504 15.9662 11.4 17.1 11.4ZM28.5 34.2C21.0615 34.2 14.7345 32.2905 12.3975 25.65H44.6025C42.2655 32.2905 35.9385 34.2 28.5 34.2Z" fill="#93D3A2"/>
</g>
<defs>
<clipPath id="clip0_137_2296">
<rect width="57" height="57" fill="white"/>
</clipPath>
</defs>
</svg>
