<svg width="56" height="66" viewBox="0 0 56 66" fill="none" xmlns="http://www.w3.org/2000/svg">
<path d="M0.00430274 47.3048V41.7663C0.00430274 41.7663 0.671338 38.6376 2.9823 38.6376C2.9823 38.6376 6.27445 38.8485 6.35191 42.0632C6.42937 45.2779 6.35191 47.52 6.35191 47.52C6.35191 47.52 5.05226 50.2699 3.19317 50.1838C1.33407 50.0978 0 47.3091 0 47.3091L0.00430274 47.3048Z" fill="#8BD0DB"/>
<path d="M1.76868 47.0508V41.7618C1.76868 41.7618 2.25067 38.7709 3.92902 38.7709C3.92902 38.7709 6.31313 38.9732 6.37338 42.0416C6.42933 45.1099 6.37338 47.2531 6.37338 47.2531C6.37338 47.2531 5.43092 49.8782 4.08394 49.7964C2.73696 49.7146 1.76868 47.0508 1.76868 47.0508Z" fill="#8BD0DB"/>
<path d="M2.33679 36.6751V57.293C2.33679 57.293 1.27383 60.3183 5.19859 61.3038C9.12765 62.285 24.0176 65.0822 24.0176 65.0822V37.5788L6.26154 33.8951C6.26154 33.8951 2.82308 32.7503 2.33248 36.6751H2.33679Z" fill="#8BD0DB"/>
<path d="M29.1732 37.6564L24.0177 37.5746V65.0824H29.1732V37.6564Z" fill="#8BD0DB"/>
<path d="M50.8583 36.6751V57.293C50.8583 57.293 51.9213 60.3183 47.9965 61.3038C44.0675 62.285 29.1775 65.0822 29.1775 65.0822V37.5788L46.9336 33.8951C46.9336 33.8951 50.372 32.7503 50.8626 36.6751H50.8583Z" fill="#8BD0DB"/>
<path d="M46.1149 46.2247C46.7698 46.0935 47.2113 45.5413 47.1011 44.9913C46.9909 44.4413 46.3707 44.1019 45.7159 44.2331C45.061 44.3643 44.6195 44.9165 44.7297 45.4665C44.8399 46.0164 45.4601 46.3559 46.1149 46.2247Z" fill="#FBF9F9"/>
<path d="M35.821 48.2938C36.4758 48.1626 36.9173 47.6104 36.8072 47.0604C36.697 46.5105 36.0768 46.171 35.4219 46.3022C34.7671 46.4334 34.3255 46.9856 34.4357 47.5356C34.5459 48.0856 35.1661 48.425 35.821 48.2938Z" fill="#FBF9F9"/>
<path d="M35.823 48.2904L46.1188 46.2275L45.7197 44.2358L35.4239 46.2987L35.823 48.2904Z" fill="#FBF9F9"/>
<path d="M46.117 42.7761C46.7718 42.6449 47.2134 42.0927 47.1032 41.5427C46.993 40.9927 46.3728 40.6533 45.7179 40.7845C45.0631 40.9157 44.6216 41.4679 44.7318 42.0179C44.842 42.5678 45.4621 42.9073 46.117 42.7761Z" fill="#FBF9F9"/>
<path d="M35.8185 44.8406C36.4734 44.7094 36.9149 44.1571 36.8047 43.6072C36.6945 43.0572 36.0743 42.7177 35.4195 42.8489C34.7646 42.9801 34.3231 43.5323 34.4333 44.0823C34.5435 44.6323 35.1637 44.9718 35.8185 44.8406Z" fill="#FBF9F9"/>
<path d="M35.8211 44.8402L46.1169 42.7773L45.7179 40.7857L35.4221 42.8486L35.8211 44.8402Z" fill="#FBF9F9"/>
<path d="M4.75537 33.7362C4.75537 33.7362 4.97485 32.2084 6.66611 32.1525C8.35737 32.0965 24.6675 35.918 24.6675 35.918H29.1775L45.9223 32.1525C45.9223 32.1525 48.0138 32.2084 48.5044 33.7362C48.5044 33.7362 48.0008 33.6587 47.4672 33.7749C46.9336 33.8911 29.1775 37.5749 29.1775 37.5749H24.022L6.26589 33.8911C6.26589 33.8911 5.32343 33.5769 4.75537 33.7362Z" fill="#8BD0DB"/>
<path d="M41.7694 14.9987C38.658 14.6243 35.9726 13.4408 33.4465 11.8701C30.9204 10.2993 28.6438 8.4101 26.5696 6.23255C22.2618 10.4973 17.5624 14.0218 11.288 15.0934C11.6538 9.82594 13.7668 5.61715 18.0659 2.74244C23.3247 -0.773485 28.8633 -0.898285 34.29 2.30779C39.0109 5.09644 41.3304 9.46014 41.7694 14.9987Z" fill="#8BD0DB"/>
<path d="M21.8272 30.5601C20.5232 30.4181 19.2236 30.2804 17.9196 30.1384C17.0933 30.048 16.2671 29.9706 15.4494 29.8371C13.0438 29.4412 11.3654 27.5133 11.331 25.0603C11.2966 22.5643 11.3224 20.0726 11.3224 17.4475C12.394 23.8682 15.8583 28.2104 21.8228 30.5644L21.8272 30.5601Z" fill="#8BD0DB"/>
<path d="M31.0452 30.5428C37.1174 28.2577 40.5645 23.9843 41.7307 17.7831C41.7307 18.7642 41.7307 19.7411 41.7307 20.7223C41.7307 22.0822 41.7307 23.4421 41.7307 24.802C41.7221 27.5433 40.1642 29.4411 37.4531 29.8586C35.4907 30.1598 33.5068 30.319 31.5315 30.5428C31.4239 30.5557 31.312 30.5428 31.0409 30.5428H31.0452Z" fill="#8BD0DB"/>
<path d="M26.5696 21.0881C25.7563 21.1053 25.0591 20.8299 24.4953 20.2532C24.0865 19.8358 24.065 19.2677 24.4222 18.8933C24.7665 18.5318 25.27 18.5275 25.7347 18.8718C26.4061 19.371 26.6643 19.371 27.3442 18.8632C27.8047 18.5232 28.3125 18.5318 28.6568 18.8976C29.0312 19.2892 29.0097 19.8142 28.5836 20.2489C28.0328 20.8083 27.3571 21.0881 26.5696 21.0838V21.0881Z" fill="#8BD0DB"/>
<path d="M33.7435 17.1244C33.7435 16.8403 33.7091 16.552 33.7521 16.2723C33.8296 15.7774 34.1179 15.4589 34.6515 15.4503C35.1766 15.4417 35.5251 15.7257 35.5725 16.2336C35.6284 16.836 35.6284 17.4514 35.5725 18.0539C35.5251 18.5574 35.1809 18.8587 34.6601 18.8501C34.1394 18.8458 33.8339 18.5273 33.7564 18.0324C33.7134 17.7355 33.7478 17.4256 33.7478 17.1201L33.7435 17.1244Z" fill="#8BD0DB"/>
<path d="M49.6016 50.2527V44.7141C49.6016 44.7141 50.2686 41.5855 52.5796 41.5855C52.5796 41.5855 55.8717 41.7963 55.9492 45.011C56.0267 48.2257 55.9492 50.4678 55.9492 50.4678C55.9492 50.4678 54.6496 53.2177 52.7905 53.1317C50.9314 53.0456 49.5973 50.257 49.5973 50.257L49.6016 50.2527Z" fill="#FBF9F9"/>
<path d="M51.3705 49.9989V44.71C51.3705 44.71 51.8525 41.7191 53.5308 41.7191C53.5308 41.7191 55.9149 41.9213 55.9752 44.9897C56.0311 48.0581 55.9752 50.2012 55.9752 50.2012C55.9752 50.2012 55.0327 52.8263 53.6857 52.7446C52.3388 52.6628 51.3705 49.9989 51.3705 49.9989Z" fill="#8BD0DB"/>
<path d="M17.5065 17.1419C17.5065 16.8363 17.4721 16.5308 17.5152 16.2295C17.5797 15.7475 17.8853 15.4678 18.3759 15.4506C18.8966 15.4334 19.2581 15.7088 19.3054 16.2166C19.3656 16.8406 19.3613 17.4775 19.3054 18.0972C19.2581 18.5749 18.9052 18.8546 18.4189 18.8503C17.9068 18.8503 17.5754 18.562 17.5109 18.0499C17.4721 17.7486 17.5022 17.4431 17.5065 17.1375V17.1419Z" fill="#8BD0DB"/>
</svg>
