<?xml version="1.0" encoding="UTF-8"?><svg id="Calque_22" xmlns="http://www.w3.org/2000/svg" xmlns:xlink="http://www.w3.org/1999/xlink" viewBox="0 0 1920 1080"><defs><style>.cls-1{fill:#778892;}.cls-2{clip-path:url(#clippath);}.cls-3{fill:none;}.cls-4{fill:#889ba5;}</style><clipPath id="clippath"><rect class="cls-3" x=".9" y="0" width="1920.1" height="1080.01"/></clipPath></defs><rect class="cls-1" x=".94" y="-1.59" width="1918.38" height="1080"/><g class="cls-2"><g><path class="cls-4" d="M324.9,54.09L239.05-13.69c-1.01-.66-2.02-.94-2.97-.92h0c-.95,.02-1.83,.33-2.68,.92L147.55,54.09c-1.97,1.59-2.26,4.51-.78,6.43,1.46,1.88,4.56,2.19,6.43,.71l17.51-13.82V125.47h0c0,2.49,2.02,4.52,4.52,4.52h40.67c2.49,0,4.52-2.02,4.52-4.52v-40.67h31.63v40.67h0c0,2.49,2.02,4.52,4.52,4.52h40.67c2.49,0,4.52-2.02,4.52-4.52V47.4l17.51,13.82c1.87,1.48,4.88,1.17,6.35-.71,1.46-1.86,1.3-4.95-.71-6.43Zm-32.2,66.86h-31.63v-40.67h0c0-2.49-2.02-4.52-4.52-4.52h-40.67c-2.49,0-4.52,2.02-4.52,4.52v40.67h-31.63V40.27L236.22-4.3l56.48,44.57V120.95Z"/><path class="cls-4" d="M806.57,54.09L720.72-13.69c-1.01-.66-2.02-.94-2.97-.92h0c-.95,.02-1.83,.33-2.68,.92l-85.85,67.78c-1.97,1.59-2.26,4.51-.78,6.43,1.46,1.88,4.56,2.19,6.43,.71l17.51-13.82V125.47h0c0,2.49,2.02,4.52,4.52,4.52h40.67c2.49,0,4.52-2.02,4.52-4.52v-40.67h31.63v40.67h0c0,2.49,2.02,4.52,4.52,4.52h40.67c2.49,0,4.52-2.02,4.52-4.52V47.4l17.51,13.82c1.87,1.48,4.88,1.17,6.35-.71,1.46-1.86,1.3-4.95-.71-6.43Zm-32.2,66.86h-31.63v-40.67h0c0-2.49-2.02-4.52-4.52-4.52h-40.67c-2.49,0-4.52,2.02-4.52,4.52v40.67h-31.63V40.27l56.48-44.57,56.48,44.57V120.95Z"/><path class="cls-4" d="M1288.25,54.09l-85.85-67.78c-1.01-.66-2.02-.94-2.97-.92h0c-.95,.02-1.83,.33-2.68,.92l-85.85,67.78c-1.97,1.59-2.26,4.51-.78,6.43,1.46,1.88,4.56,2.19,6.43,.71l17.51-13.82V125.47h0c0,2.49,2.02,4.52,4.52,4.52h40.67c2.49,0,4.52-2.02,4.52-4.52v-40.67h31.63v40.67h0c0,2.49,2.02,4.52,4.52,4.52h40.67c2.49,0,4.52-2.02,4.52-4.52V47.4l17.51,13.82c1.87,1.48,4.88,1.17,6.35-.71,1.46-1.86,1.3-4.95-.71-6.43Zm-32.2,66.86h-31.63v-40.67h0c0-2.49-2.02-4.52-4.52-4.52h-40.67c-2.49,0-4.52,2.02-4.52,4.52v40.67h-31.63V40.27l56.48-44.57,56.48,44.57V120.95Z"/><path class="cls-4" d="M1769.93,54.09l-85.85-67.78c-1.01-.66-2.02-.94-2.97-.92h0c-.95,.02-1.83,.33-2.68,.92l-85.85,67.78c-1.97,1.59-2.26,4.51-.78,6.43,1.46,1.88,4.56,2.19,6.43,.71l17.51-13.82V125.47h0c0,2.49,2.02,4.52,4.52,4.52h40.67c2.49,0,4.52-2.02,4.52-4.52v-40.67h31.63v40.67h0c0,2.49,2.02,4.52,4.52,4.52h40.67c2.49,0,4.52-2.02,4.52-4.52V47.4l17.51,13.82c1.87,1.48,4.88,1.17,6.35-.71,1.46-1.86,1.3-4.95-.71-6.43Zm-32.2,66.86h-31.63v-40.67h0c0-2.49-2.02-4.52-4.52-4.52h-40.67c-2.49,0-4.52,2.02-4.52,4.52v40.67h-31.63V40.27l56.48-44.57,56.48,44.57V120.95Z"/><path class="cls-4" d="M89.61,292.1L3.76,224.32c-1.01-.66-2.02-.94-2.97-.92h0c-.95,.02-1.83,.33-2.68,.92l-85.85,67.78c-1.97,1.59-2.26,4.51-.78,6.43,1.46,1.88,4.56,2.19,6.43,.71l17.51-13.82v78.07h0c0,2.49,2.02,4.52,4.52,4.52H-19.4c2.49,0,4.52-2.02,4.52-4.52v-40.67H16.75v40.67h0c0,2.49,2.02,4.52,4.52,4.52H61.94c2.49,0,4.52-2.02,4.52-4.52v-78.07l17.51,13.82c1.87,1.48,4.88,1.17,6.35-.71,1.46-1.86,1.3-4.95-.71-6.43Zm-32.2,66.86H25.79v-40.67h0c0-2.49-2.02-4.52-4.52-4.52H-19.4c-2.49,0-4.52,2.02-4.52,4.52v40.67h-31.63v-80.68L.94,233.71l56.48,44.57v80.68Z"/><path class="cls-4" d="M571.29,292.1l-85.85-67.78c-1.01-.66-2.02-.94-2.97-.92h0c-.95,.02-1.83,.33-2.68,.92l-85.85,67.78c-1.97,1.59-2.26,4.51-.78,6.43,1.46,1.88,4.56,2.19,6.43,.71l17.51-13.82v78.07h0c0,2.49,2.02,4.52,4.52,4.52h40.67c2.49,0,4.52-2.02,4.52-4.52v-40.67h31.63v40.67h0c0,2.49,2.02,4.52,4.52,4.52h40.67c2.49,0,4.52-2.02,4.52-4.52v-78.07l17.51,13.82c1.87,1.48,4.88,1.17,6.35-.71,1.46-1.86,1.3-4.95-.71-6.43Zm-32.2,66.86h-31.63v-40.67h0c0-2.49-2.02-4.52-4.52-4.52h-40.67c-2.49,0-4.52,2.02-4.52,4.52v40.67h-31.63v-80.68l56.48-44.57,56.48,44.57v80.68Z"/><path class="cls-4" d="M1052.97,292.1l-85.85-67.78c-1.01-.66-2.02-.94-2.97-.92h0c-.95,.02-1.83,.33-2.68,.92l-85.85,67.78c-1.97,1.59-2.26,4.51-.78,6.43,1.46,1.88,4.56,2.19,6.43,.71l17.51-13.82v78.07h0c0,2.49,2.02,4.52,4.52,4.52h40.67c2.49,0,4.52-2.02,4.52-4.52v-40.67h31.63v40.67h0c0,2.49,2.02,4.52,4.52,4.52h40.67c2.49,0,4.52-2.02,4.52-4.52v-78.07l17.51,13.82c1.87,1.48,4.88,1.17,6.35-.71,1.46-1.86,1.3-4.95-.71-6.43Zm-32.2,66.86h-31.63v-40.67h0c0-2.49-2.02-4.52-4.52-4.52h-40.67c-2.49,0-4.52,2.02-4.52,4.52v40.67h-31.63v-80.68l56.48-44.57,56.48,44.57v80.68Z"/><path class="cls-4" d="M1534.65,292.1l-85.85-67.78c-1.01-.66-2.02-.94-2.97-.92h0c-.95,.02-1.83,.33-2.68,.92l-85.85,67.78c-1.97,1.59-2.26,4.51-.78,6.43,1.46,1.88,4.56,2.19,6.43,.71l17.51-13.82v78.07h0c0,2.49,2.02,4.52,4.52,4.52h40.67c2.49,0,4.52-2.02,4.52-4.52v-40.67h31.63v40.67h0c0,2.49,2.02,4.52,4.52,4.52h40.67c2.49,0,4.52-2.02,4.52-4.52v-78.07l17.51,13.82c1.87,1.48,4.88,1.17,6.35-.71,1.46-1.86,1.3-4.95-.71-6.43Zm-32.2,66.86h-31.63v-40.67h0c0-2.49-2.02-4.52-4.52-4.52h-40.67c-2.49,0-4.52,2.02-4.52,4.52v40.67h-31.63v-80.68l56.48-44.57,56.48,44.57v80.68Z"/><path class="cls-4" d="M2016.32,292.1l-85.85-67.78c-1.01-.66-2.02-.94-2.97-.92h0c-.95,.02-1.83,.33-2.68,.92l-85.85,67.78c-1.97,1.59-2.26,4.51-.78,6.43,1.46,1.88,4.56,2.19,6.43,.71l17.51-13.82v78.07h0c0,2.49,2.02,4.52,4.52,4.52h40.67c2.49,0,4.52-2.02,4.52-4.52v-40.67h31.63v40.67h0c0,2.49,2.02,4.52,4.52,4.52h40.67c2.49,0,4.52-2.02,4.52-4.52v-78.07l17.51,13.82c1.87,1.48,4.88,1.17,6.35-.71,1.46-1.86,1.3-4.95-.71-6.43Zm-32.2,66.86h-31.63v-40.67h0c0-2.49-2.02-4.52-4.52-4.52h-40.67c-2.49,0-4.52,2.02-4.52,4.52v40.67h-31.63v-80.68l56.48-44.57,56.48,44.57v80.68Z"/><path class="cls-4" d="M324.9,530.55l-85.85-67.78c-1.01-.66-2.02-.94-2.97-.92h0c-.95,.02-1.83,.33-2.68,.92l-85.85,67.78c-1.97,1.59-2.26,4.51-.78,6.43,1.46,1.88,4.56,2.19,6.43,.71l17.51-13.82v78.07h0c0,2.49,2.02,4.52,4.52,4.52h40.67c2.49,0,4.52-2.02,4.52-4.52v-40.67h31.63v40.67h0c0,2.49,2.02,4.52,4.52,4.52h40.67c2.49,0,4.52-2.02,4.52-4.52v-78.07l17.51,13.82c1.87,1.48,4.88,1.17,6.35-.71,1.46-1.86,1.3-4.95-.71-6.43Zm-32.2,66.86h-31.63v-40.67h0c0-2.49-2.02-4.52-4.52-4.52h-40.67c-2.49,0-4.52,2.02-4.52,4.52v40.67h-31.63v-80.68l56.48-44.57,56.48,44.57v80.68Z"/><path class="cls-4" d="M806.57,530.55l-85.85-67.78c-1.01-.66-2.02-.94-2.97-.92h0c-.95,.02-1.83,.33-2.68,.92l-85.85,67.78c-1.97,1.59-2.26,4.51-.78,6.43,1.46,1.88,4.56,2.19,6.43,.71l17.51-13.82v78.07h0c0,2.49,2.02,4.52,4.52,4.52h40.67c2.49,0,4.52-2.02,4.52-4.52v-40.67h31.63v40.67h0c0,2.49,2.02,4.52,4.52,4.52h40.67c2.49,0,4.52-2.02,4.52-4.52v-78.07l17.51,13.82c1.87,1.48,4.88,1.17,6.35-.71,1.46-1.86,1.3-4.95-.71-6.43Zm-32.2,66.86h-31.63v-40.67h0c0-2.49-2.02-4.52-4.52-4.52h-40.67c-2.49,0-4.52,2.02-4.52,4.52v40.67h-31.63v-80.68l56.48-44.57,56.48,44.57v80.68Z"/><path class="cls-4" d="M1288.25,530.55l-85.85-67.78c-1.01-.66-2.02-.94-2.97-.92h0c-.95,.02-1.83,.33-2.68,.92l-85.85,67.78c-1.97,1.59-2.26,4.51-.78,6.43,1.46,1.88,4.56,2.19,6.43,.71l17.51-13.82v78.07h0c0,2.49,2.02,4.52,4.52,4.52h40.67c2.49,0,4.52-2.02,4.52-4.52v-40.67h31.63v40.67h0c0,2.49,2.02,4.52,4.52,4.52h40.67c2.49,0,4.52-2.02,4.52-4.52v-78.07l17.51,13.82c1.87,1.48,4.88,1.17,6.35-.71,1.46-1.86,1.3-4.95-.71-6.43Zm-32.2,66.86h-31.63v-40.67h0c0-2.49-2.02-4.52-4.52-4.52h-40.67c-2.49,0-4.52,2.02-4.52,4.52v40.67h-31.63v-80.68l56.48-44.57,56.48,44.57v80.68Z"/><path class="cls-4" d="M1769.93,530.55l-85.85-67.78c-1.01-.66-2.02-.94-2.97-.92h0c-.95,.02-1.83,.33-2.68,.92l-85.85,67.78c-1.97,1.59-2.26,4.51-.78,6.43,1.46,1.88,4.56,2.19,6.43,.71l17.51-13.82v78.07h0c0,2.49,2.02,4.52,4.52,4.52h40.67c2.49,0,4.52-2.02,4.52-4.52v-40.67h31.63v40.67h0c0,2.49,2.02,4.52,4.52,4.52h40.67c2.49,0,4.52-2.02,4.52-4.52v-78.07l17.51,13.82c1.87,1.48,4.88,1.17,6.35-.71,1.46-1.86,1.3-4.95-.71-6.43Zm-32.2,66.86h-31.63v-40.67h0c0-2.49-2.02-4.52-4.52-4.52h-40.67c-2.49,0-4.52,2.02-4.52,4.52v40.67h-31.63v-80.68l56.48-44.57,56.48,44.57v80.68Z"/><path class="cls-4" d="M89.61,768.56L3.76,700.78c-1.01-.66-2.02-.94-2.97-.92h0c-.95,.02-1.83,.33-2.68,.92l-85.85,67.78c-1.97,1.59-2.26,4.51-.78,6.43,1.46,1.88,4.56,2.19,6.43,.71l17.51-13.82v78.07h0c0,2.49,2.02,4.52,4.52,4.52H-19.4c2.49,0,4.52-2.02,4.52-4.52v-40.67H16.75v40.67h0c0,2.49,2.02,4.52,4.52,4.52H61.94c2.49,0,4.52-2.02,4.52-4.52v-78.07l17.51,13.82c1.87,1.48,4.88,1.17,6.35-.71,1.46-1.86,1.3-4.95-.71-6.43Zm-32.2,66.86H25.79v-40.67h0c0-2.49-2.02-4.52-4.52-4.52H-19.4c-2.49,0-4.52,2.02-4.52,4.52v40.67h-31.63v-80.68L.94,710.17l56.48,44.57v80.68Z"/><path class="cls-4" d="M571.29,768.56l-85.85-67.78c-1.01-.66-2.02-.94-2.97-.92h0c-.95,.02-1.83,.33-2.68,.92l-85.85,67.78c-1.97,1.59-2.26,4.51-.78,6.43,1.46,1.88,4.56,2.19,6.43,.71l17.51-13.82v78.07h0c0,2.49,2.02,4.52,4.52,4.52h40.67c2.49,0,4.52-2.02,4.52-4.52v-40.67h31.63v40.67h0c0,2.49,2.02,4.52,4.52,4.52h40.67c2.49,0,4.52-2.02,4.52-4.52v-78.07l17.51,13.82c1.87,1.48,4.88,1.17,6.35-.71,1.46-1.86,1.3-4.95-.71-6.43Zm-32.2,66.86h-31.63v-40.67h0c0-2.49-2.02-4.52-4.52-4.52h-40.67c-2.49,0-4.52,2.02-4.52,4.52v40.67h-31.63v-80.68l56.48-44.57,56.48,44.57v80.68Z"/><path class="cls-4" d="M1052.97,768.56l-85.85-67.78c-1.01-.66-2.02-.94-2.97-.92h0c-.95,.02-1.83,.33-2.68,.92l-85.85,67.78c-1.97,1.59-2.26,4.51-.78,6.43,1.46,1.88,4.56,2.19,6.43,.71l17.51-13.82v78.07h0c0,2.49,2.02,4.52,4.52,4.52h40.67c2.49,0,4.52-2.02,4.52-4.52v-40.67h31.63v40.67h0c0,2.49,2.02,4.52,4.52,4.52h40.67c2.49,0,4.52-2.02,4.52-4.52v-78.07l17.51,13.82c1.87,1.48,4.88,1.17,6.35-.71,1.46-1.86,1.3-4.95-.71-6.43Zm-32.2,66.86h-31.63v-40.67h0c0-2.49-2.02-4.52-4.52-4.52h-40.67c-2.49,0-4.52,2.02-4.52,4.52v40.67h-31.63v-80.68l56.48-44.57,56.48,44.57v80.68Z"/><path class="cls-4" d="M1534.65,768.56l-85.85-67.78c-1.01-.66-2.02-.94-2.97-.92h0c-.95,.02-1.83,.33-2.68,.92l-85.85,67.78c-1.97,1.59-2.26,4.51-.78,6.43,1.46,1.88,4.56,2.19,6.43,.71l17.51-13.82v78.07h0c0,2.49,2.02,4.52,4.52,4.52h40.67c2.49,0,4.52-2.02,4.52-4.52v-40.67h31.63v40.67h0c0,2.49,2.02,4.52,4.52,4.52h40.67c2.49,0,4.52-2.02,4.52-4.52v-78.07l17.51,13.82c1.87,1.48,4.88,1.17,6.35-.71,1.46-1.86,1.3-4.95-.71-6.43Zm-32.2,66.86h-31.63v-40.67h0c0-2.49-2.02-4.52-4.52-4.52h-40.67c-2.49,0-4.52,2.02-4.52,4.52v40.67h-31.63v-80.68l56.48-44.57,56.48,44.57v80.68Z"/><path class="cls-4" d="M2016.32,768.56l-85.85-67.78c-1.01-.66-2.02-.94-2.97-.92h0c-.95,.02-1.83,.33-2.68,.92l-85.85,67.78c-1.97,1.59-2.26,4.51-.78,6.43,1.46,1.88,4.56,2.19,6.43,.71l17.51-13.82v78.07h0c0,2.49,2.02,4.52,4.52,4.52h40.67c2.49,0,4.52-2.02,4.52-4.52v-40.67h31.63v40.67h0c0,2.49,2.02,4.52,4.52,4.52h40.67c2.49,0,4.52-2.02,4.52-4.52v-78.07l17.51,13.82c1.87,1.48,4.88,1.17,6.35-.71,1.46-1.86,1.3-4.95-.71-6.43Zm-32.2,66.86h-31.63v-40.67h0c0-2.49-2.02-4.52-4.52-4.52h-40.67c-2.49,0-4.52,2.02-4.52,4.52v40.67h-31.63v-80.68l56.48-44.57,56.48,44.57v80.68Z"/><path class="cls-4" d="M324.9,1007.02l-85.85-67.78c-1.01-.66-2.02-.94-2.97-.92h0c-.95,.02-1.83,.33-2.68,.92l-85.85,67.78c-1.97,1.59-2.26,4.51-.78,6.43,1.46,1.88,4.56,2.19,6.43,.71l17.51-13.82v78.07h0c0,2.49,2.02,4.52,4.52,4.52h40.67c2.49,0,4.52-2.02,4.52-4.52v-40.67h31.63v40.67h0c0,2.49,2.02,4.52,4.52,4.52h40.67c2.49,0,4.52-2.02,4.52-4.52v-78.07l17.51,13.82c1.87,1.48,4.88,1.17,6.35-.71,1.46-1.86,1.3-4.95-.71-6.43Zm-32.2,66.86h-31.63v-40.67h0c0-2.49-2.02-4.52-4.52-4.52h-40.67c-2.49,0-4.52,2.02-4.52,4.52v40.67h-31.63v-80.68l56.48-44.57,56.48,44.57v80.68Z"/><path class="cls-4" d="M806.57,1007.02l-85.85-67.78c-1.01-.66-2.02-.94-2.97-.92h0c-.95,.02-1.83,.33-2.68,.92l-85.85,67.78c-1.97,1.59-2.26,4.51-.78,6.43,1.46,1.88,4.56,2.19,6.43,.71l17.51-13.82v78.07h0c0,2.49,2.02,4.52,4.52,4.52h40.67c2.49,0,4.52-2.02,4.52-4.52v-40.67h31.63v40.67h0c0,2.49,2.02,4.52,4.52,4.52h40.67c2.49,0,4.52-2.02,4.52-4.52v-78.07l17.51,13.82c1.87,1.48,4.88,1.17,6.35-.71,1.46-1.86,1.3-4.95-.71-6.43Zm-32.2,66.86h-31.63v-40.67h0c0-2.49-2.02-4.52-4.52-4.52h-40.67c-2.49,0-4.52,2.02-4.52,4.52v40.67h-31.63v-80.68l56.48-44.57,56.48,44.57v80.68Z"/><path class="cls-4" d="M1288.25,1007.02l-85.85-67.78c-1.01-.66-2.02-.94-2.97-.92h0c-.95,.02-1.83,.33-2.68,.92l-85.85,67.78c-1.97,1.59-2.26,4.51-.78,6.43,1.46,1.88,4.56,2.19,6.43,.71l17.51-13.82v78.07h0c0,2.49,2.02,4.52,4.52,4.52h40.67c2.49,0,4.52-2.02,4.52-4.52v-40.67h31.63v40.67h0c0,2.49,2.02,4.52,4.52,4.52h40.67c2.49,0,4.52-2.02,4.52-4.52v-78.07l17.51,13.82c1.87,1.48,4.88,1.17,6.35-.71,1.46-1.86,1.3-4.95-.71-6.43Zm-32.2,66.86h-31.63v-40.67h0c0-2.49-2.02-4.52-4.52-4.52h-40.67c-2.49,0-4.52,2.02-4.52,4.52v40.67h-31.63v-80.68l56.48-44.57,56.48,44.57v80.68Z"/><path class="cls-4" d="M1769.93,1007.02l-85.85-67.78c-1.01-.66-2.02-.94-2.97-.92h0c-.95,.02-1.83,.33-2.68,.92l-85.85,67.78c-1.97,1.59-2.26,4.51-.78,6.43,1.46,1.88,4.56,2.19,6.43,.71l17.51-13.82v78.07h0c0,2.49,2.02,4.52,4.52,4.52h40.67c2.49,0,4.52-2.02,4.52-4.52v-40.67h31.63v40.67h0c0,2.49,2.02,4.52,4.52,4.52h40.67c2.49,0,4.52-2.02,4.52-4.52v-78.07l17.51,13.82c1.87,1.48,4.88,1.17,6.35-.71,1.46-1.86,1.3-4.95-.71-6.43Zm-32.2,66.86h-31.63v-40.67h0c0-2.49-2.02-4.52-4.52-4.52h-40.67c-2.49,0-4.52,2.02-4.52,4.52v40.67h-31.63v-80.68l56.48-44.57,56.48,44.57v80.68Z"/></g></g></svg>