<?xml version="1.0" encoding="UTF-8"?><svg xmlns="http://www.w3.org/2000/svg" xmlns:xlink="http://www.w3.org/1999/xlink" viewBox="0 0 1920 1080"><defs><style>.cls-1{fill:#ffd05a;}.cls-2{fill:#f60;}.cls-3{clip-path:url(#clippath-1);}.cls-4{clip-path:url(#clippath);}.cls-5{fill:none;}.cls-6{fill:#ff954d;}</style><clipPath id="clippath"><rect class="cls-5" x="1995.51" y="0" width="1920" height="1080"/></clipPath><clipPath id="clippath-1"><rect class="cls-5" x="-.1" y="0" width="1920.1" height="1080.01"/></clipPath></defs><g id="Chorale"><g class="cls-4"><path class="cls-1" d="M1907.14,281.78c.89-3.21,1.97-6.33,4.16-8.95,4.58-5.49,10.6-8.29,17.54-9.3,7.1-1.04,13.83,.2,20.42,3.76v-2.05c0-22.81,0-45.62,0-68.43,0-.47,.02-.94,0-1.4-.1-2.53,.88-4.45,3.25-5.49,2.21-.97,4.27-.42,6.3,1.69,7.23,7.51,14.04,15.4,19.74,24.14,3.37,5.17,6.39,10.61,9.06,16.17,1.64,3.43,2.56,7.27,3.35,11.01,1.33,6.29-.14,12.28-3.33,17.7-2.27,3.85-5.02,7.45-7.83,10.94-2.15,2.68-5.45,2.83-7.75,.76-2.32-2.09-2.24-5.27,.09-7.95,1.49-1.72,2.88-3.53,4.24-5.36,5.06-6.77,5.52-13.95,2.25-21.66-3.76-8.86-9.13-16.69-14.98-24.23-1.14-1.47-2.34-2.9-3.86-4.77v2.26c0,23.75-.14,47.49,.07,71.24,.09,10.23-4.72,17.01-13.71,20.75-11.3,4.71-22.21,3.63-32.01-4.11-3.59-2.83-5.84-6.64-6.69-11.2-.04-.21-.19-.41-.29-.61v-4.91Zm26.29,13c4.16-.09,8.11-.99,11.56-3.46,5.67-4.06,5.65-10.11,0-14.19-6.42-4.63-16.94-4.56-23.27,.16-5.37,4-5.38,9.89,0,13.87,3.47,2.56,7.45,3.51,11.71,3.62Z"/><path class="cls-1" d="M1907.14,757.79c.89-3.21,1.97-6.33,4.16-8.95,4.58-5.49,10.6-8.29,17.54-9.3,7.1-1.04,13.83,.2,20.42,3.76v-2.05c0-22.81,0-45.62,0-68.43,0-.47,.02-.94,0-1.4-.1-2.53,.88-4.45,3.25-5.49,2.21-.97,4.27-.42,6.3,1.69,7.23,7.51,14.04,15.4,19.74,24.14,3.37,5.17,6.39,10.61,9.06,16.17,1.64,3.43,2.56,7.27,3.35,11.01,1.33,6.29-.14,12.28-3.33,17.7-2.27,3.85-5.02,7.45-7.83,10.94-2.15,2.68-5.45,2.83-7.75,.76-2.32-2.09-2.24-5.27,.09-7.95,1.49-1.72,2.88-3.53,4.24-5.36,5.06-6.77,5.52-13.95,2.25-21.66-3.76-8.86-9.13-16.69-14.98-24.23-1.14-1.47-2.34-2.9-3.86-4.77v2.26c0,23.75-.14,47.49,.07,71.24,.09,10.23-4.72,17.01-13.71,20.75-11.3,4.71-22.21,3.63-32.01-4.11-3.59-2.83-5.84-6.64-6.69-11.2-.04-.21-.19-.41-.29-.61v-4.91Zm26.29,13c4.16-.09,8.11-.99,11.56-3.46,5.67-4.06,5.65-10.11,0-14.19-6.42-4.63-16.94-4.56-23.27,.16-5.37,4-5.38,9.89,0,13.87,3.47,2.56,7.45,3.51,11.71,3.62Z"/></g></g><g id="Calque_4"><rect class="cls-2" x="-.1" y="0" width="1920.1" height="1080.01"/><g class="cls-3"><g><path class="cls-6" d="M-38.15,717.84c-3.8,6.03-4.88,13.06-4.9,20.18,0,3.28,0,6.56,0,10.01-2.89,0-5.58,0-8.27,0-8.41,.04-16.83-.12-25.23,.18-6.7,.24-12.45,5.53-13.42,12.18-.51,3.46-.42,7.04-.28,10.55,.11,2.86,2.67,5.01,5.57,5.15,.74,.04,1.49,0,2.39,0v2.3c0,20.53,0,41.06,0,61.59,0,4.38,2.5,6.88,6.88,6.94,2,.03,4.01-.1,6,.03,4.64,.3,7.83-2.45,7.79-7.73-.15-20.29-.06-40.59-.06-60.89v-2.15h18.55v9.7c-8.64,1.57-12.86,5.59-13.09,12.43-.1,2.92,.72,5.57,2.47,7.92,2.65,3.55,6.34,5.02,10.71,5.22v2.09c0,8.94,0,17.88,0,26.83,0,4.07,2.37,6.48,6.43,6.56,1.88,.04,3.76,.01,5.65,0,4.91-.01,7.13-2.21,7.13-7.1,0-8.77,0-17.53,0-26.3v-2.08H23.84c0,.78,0,1.48,0,2.17,0,8.82-.01,17.65,0,26.47,0,4.53,2.31,6.79,6.87,6.82,1.82,.01,3.65,.01,5.47,0,4.53-.03,6.87-2.34,6.87-6.83,0-8.94,0-17.88,0-26.83v-1.81c7.73-.74,12.58-5.08,13.12-11.47,.27-3.11-.4-5.96-2.21-8.51-2.64-3.72-6.4-5.32-10.79-5.47v-9.77h18.51v2.21c0,20.53,0,41.06,0,61.59,0,3.9,2.09,6.52,5.7,6.79,3.04,.22,6.12,.21,9.16,0,3.42-.23,5.66-2.8,5.73-6.23,.01-.6,.02-1.2,.02-1.8,.11-.38,.04-.88,0-1.35,0-1.35,0-2.7-.01-4.05,0-14.83,0-42.85,0-55.03v-2.33c3.93,.52,6.7-.84,8.06-4.53v-10.59c-.07-.09-.19-.16-.22-.26-2.37-8.66-7.52-12.63-16.45-12.64-9.47,0-18.94,0-28.41,0h-2.22c0-.97,.02-1.72,0-2.48-.14-4.64,.16-9.34-.5-13.91-4.26-29.94-37.38-46.21-63.69-31.32-3.14,1.78-6.17,3.94-8.74,6.51-2.43,2.44-6.46,8.09-8.29,11Zm10.86-5.87c.54-.73,1.15-1.42,1.82-2.04h0c18.88-17.28,49.06-11.11,59.82,12.11,3.82,8.24,3.52,16.91,3.36,25.61,0,.09-.13,.18-.2,.27H-37.99c.25-5.51,.09-10.96,.88-16.26,.33-2.17,1.01-4.29,1.79-6.39,1.21-3.27,2.88-6.34,4.95-9.14l3.07-4.15Zm-39.69,66.12c0,20.34,0,40.68,0,61.02,0,2.52-.02,2.54-2.57,2.54-1.76,0-3.53-.08-5.29,.02-1.73,.11-2.2-.6-2.19-2.27,.05-14.52,.03-29.04,.03-43.56,0-5.88,0-11.76,0-17.63v-2.04h10.02v1.91Zm36.23,63.58c-1.88-.07-3.76-.03-5.63-.01-.92,0-1.39-.29-1.39-1.32,.03-9.56,.01-19.12,.01-28.81h8.63c0,6.74,0,13.31,0,19.88,0,2.88-.04,5.75,.02,8.63,.02,1.22-.42,1.68-1.64,1.64Zm66.59,.01c-1.76-.12-3.53-.05-5.29-.02-.94,.02-1.41-.33-1.41-1.33,.03-9.47,.03-18.94,.05-28.41,0-.11,.08-.21,.18-.48h8.3c.04,.55,.1,1.05,.1,1.56,0,8.88-.03,17.77,.04,26.65,.01,1.52-.38,2.14-1.97,2.03Zm15.12-43.01c.03,4.18-3.15,7.36-7.55,7.41-5.29,.06-10.58,.02-15.87,.02-9.17,0-18.34,0-27.51,0-14.35,0-28.69,.01-43.04,0-4.6,0-7.85-2.99-7.94-7.2-.08-3.78,2.57-6.85,6.4-7.41,.46-.07,.94-.09,1.4-.09,28.75,0,57.5,0,86.25,0,4.57,0,7.82,3.05,7.85,7.28Zm-88.65-12.72v-9.71H37.65v9.71H-37.69Zm112.95,55.71c-1.94-.04-3.88,0-5.82,0-2.4,0-2.43-.04-2.43-2.5,0-20.35,0-40.71,0-61.06v-1.86h10.02v2.19c0,12.04,0,39.4,0,54.46-.03,2.34-.05,4.68,.01,7.02,.04,1.32-.53,1.8-1.78,1.77Zm9.76-72.07c-.02,.43-.72,.94-1.21,1.19-.37,.19-.92,.04-1.39,.04-27.53,0-55.06,0-82.59,0s-55.06,0-82.59,0q-2.3,0-2.3-2.29c0-1.88-.04-3.77,.02-5.65,.16-4.91,3.92-8.92,8.82-9.44,.88-.09,1.76-.11,2.64-.11,49.06,0,98.12,0,147.18,.02,1.57,0,3.22,.08,4.69,.57,4.01,1.33,6.29,4.27,6.71,8.44,.24,2.39,.12,4.82,.02,7.23Z"/><path class="cls-6" d="M445.13,717.84c-3.8,6.03-4.88,13.06-4.9,20.18,0,3.28,0,6.56,0,10.01-2.89,0-5.58,0-8.27,0-8.41,.04-16.83-.12-25.23,.18-6.7,.24-12.45,5.53-13.42,12.18-.51,3.46-.42,7.04-.28,10.55,.11,2.86,2.67,5.01,5.57,5.15,.74,.04,1.49,0,2.39,0v2.3c0,20.53,0,41.06,0,61.59,0,4.38,2.5,6.88,6.88,6.94,2,.03,4.01-.1,6,.03,4.64,.3,7.83-2.45,7.79-7.73-.15-20.29-.06-40.59-.06-60.89v-2.15h18.55v9.7c-8.64,1.57-12.86,5.59-13.09,12.43-.1,2.92,.72,5.57,2.47,7.92,2.65,3.55,6.34,5.02,10.71,5.22v2.09c0,8.94,0,17.88,0,26.83,0,4.07,2.37,6.48,6.43,6.56,1.88,.04,3.76,.01,5.65,0,4.91-.01,7.13-2.21,7.13-7.1,0-8.77,0-17.53,0-26.3v-2.08h47.68c0,.78,0,1.48,0,2.17,0,8.82-.01,17.65,0,26.47,0,4.53,2.31,6.79,6.87,6.82,1.82,.01,3.65,.01,5.47,0,4.53-.03,6.87-2.34,6.87-6.83,0-8.94,0-17.88,0-26.83v-1.81c7.73-.74,12.58-5.08,13.12-11.47,.27-3.11-.4-5.96-2.21-8.51-2.64-3.72-6.4-5.32-10.79-5.47v-9.77h18.51v2.21c0,20.53,0,41.06,0,61.59,0,3.9,2.09,6.52,5.7,6.79,3.04,.22,6.12,.21,9.16,0,3.42-.23,5.66-2.8,5.73-6.23,.01-.6,.02-1.2,.02-1.8,.11-.38,.04-.88,0-1.35,0-1.35,0-2.7-.01-4.05,0-14.83,0-42.85,0-55.03v-2.33c3.93,.52,6.7-.84,8.06-4.53v-10.59c-.07-.09-.19-.16-.22-.26-2.37-8.66-7.52-12.63-16.45-12.64-9.47,0-18.94,0-28.41,0h-2.22c0-.97,.02-1.72,0-2.48-.14-4.64,.16-9.34-.5-13.91-4.26-29.94-37.38-46.21-63.69-31.32-3.14,1.78-6.17,3.94-8.74,6.51-2.43,2.44-6.46,8.09-8.29,11Zm10.86-5.87c.54-.73,1.15-1.42,1.82-2.04h0c18.88-17.28,49.06-11.11,59.82,12.11,3.82,8.24,3.52,16.91,3.36,25.61,0,.09-.13,.18-.2,.27h-75.5c.25-5.51,.09-10.96,.88-16.26,.33-2.17,1.01-4.29,1.79-6.39,1.21-3.27,2.88-6.34,4.95-9.14l3.07-4.15Zm-39.69,66.12c0,20.34,0,40.68,0,61.02,0,2.52-.02,2.54-2.57,2.54-1.76,0-3.53-.08-5.29,.02-1.73,.11-2.2-.6-2.19-2.27,.05-14.52,.03-29.04,.03-43.56,0-5.88,0-11.76,0-17.63v-2.04h10.02v1.91Zm36.23,63.58c-1.88-.07-3.76-.03-5.63-.01-.92,0-1.39-.29-1.39-1.32,.03-9.56,.01-19.12,.01-28.81h8.63c0,6.74,0,13.31,0,19.88,0,2.88-.04,5.75,.02,8.63,.02,1.22-.42,1.68-1.64,1.64Zm66.59,.01c-1.76-.12-3.53-.05-5.29-.02-.94,.02-1.41-.33-1.41-1.33,.03-9.47,.03-18.94,.05-28.41,0-.11,.08-.21,.18-.48h8.3c.04,.55,.1,1.05,.1,1.56,0,8.88-.03,17.77,.04,26.65,.01,1.52-.38,2.14-1.97,2.03Zm15.12-43.01c.03,4.18-3.15,7.36-7.55,7.41-5.29,.06-10.58,.02-15.87,.02-9.17,0-18.34,0-27.51,0-14.35,0-28.69,.01-43.04,0-4.6,0-7.85-2.99-7.94-7.2-.08-3.78,2.57-6.85,6.4-7.41,.46-.07,.94-.09,1.4-.09,28.75,0,57.5,0,86.25,0,4.57,0,7.82,3.05,7.85,7.28Zm-88.65-12.72v-9.71h75.34v9.71h-75.34Zm112.95,55.71c-1.94-.04-3.88,0-5.82,0-2.4,0-2.43-.04-2.43-2.5,0-20.35,0-40.71,0-61.06v-1.86h10.02v2.19c0,12.04,0,39.4,0,54.46-.03,2.34-.05,4.68,.01,7.02,.04,1.32-.53,1.8-1.78,1.77Zm9.76-72.07c-.02,.43-.72,.94-1.21,1.19-.37,.19-.92,.04-1.39,.04-27.53,0-55.06,0-82.59,0s-55.06,0-82.59,0q-2.3,0-2.3-2.29c0-1.88-.04-3.77,.02-5.65,.16-4.91,3.92-8.92,8.82-9.44,.88-.09,1.76-.11,2.64-.11,49.06,0,98.12,0,147.18,.02,1.57,0,3.22,.08,4.69,.57,4.01,1.33,6.29,4.27,6.71,8.44,.24,2.39,.12,4.82,.02,7.23Z"/><path class="cls-6" d="M928.4,717.84c-3.8,6.03-4.88,13.06-4.9,20.18,0,3.28,0,6.56,0,10.01-2.89,0-5.58,0-8.27,0-8.41,.04-16.83-.12-25.23,.18-6.7,.24-12.45,5.53-13.42,12.18-.51,3.46-.42,7.04-.28,10.55,.11,2.86,2.67,5.01,5.57,5.15,.74,.04,1.49,0,2.39,0v2.3c0,20.53,0,41.06,0,61.59,0,4.38,2.5,6.88,6.88,6.94,2,.03,4.01-.1,6,.03,4.64,.3,7.83-2.45,7.79-7.73-.15-20.29-.06-40.59-.06-60.89v-2.15h18.55v9.7c-8.64,1.57-12.86,5.59-13.09,12.43-.1,2.92,.72,5.57,2.47,7.92,2.65,3.55,6.34,5.02,10.71,5.22v2.09c0,8.94,0,17.88,0,26.83,0,4.07,2.37,6.48,6.43,6.56,1.88,.04,3.76,.01,5.65,0,4.91-.01,7.13-2.21,7.13-7.1,0-8.77,0-17.53,0-26.3v-2.08h47.68c0,.78,0,1.48,0,2.17,0,8.82-.01,17.65,0,26.47,0,4.53,2.31,6.79,6.87,6.82,1.82,.01,3.65,.01,5.47,0,4.53-.03,6.87-2.34,6.87-6.83,0-8.94,0-17.88,0-26.83v-1.81c7.73-.74,12.58-5.08,13.12-11.47,.27-3.11-.4-5.96-2.21-8.51-2.64-3.72-6.4-5.32-10.79-5.47v-9.77h18.51v2.21c0,20.53,0,41.06,0,61.59,0,3.9,2.09,6.52,5.7,6.79,3.04,.22,6.12,.21,9.16,0,3.42-.23,5.66-2.8,5.73-6.23,.01-.6,.02-1.2,.02-1.8,.11-.38,.04-.88,0-1.35,0-1.35,0-2.7-.01-4.05,0-14.83,0-42.85,0-55.03v-2.33c3.93,.52,6.7-.84,8.06-4.53v-10.59c-.07-.09-.19-.16-.22-.26-2.37-8.66-7.52-12.63-16.45-12.64-9.47,0-18.94,0-28.41,0h-2.22c0-.97,.02-1.72,0-2.48-.14-4.64,.16-9.34-.5-13.91-4.26-29.94-37.38-46.21-63.69-31.32-3.14,1.78-6.17,3.94-8.74,6.51-2.43,2.44-6.46,8.09-8.29,11Zm10.86-5.87c.54-.73,1.15-1.42,1.82-2.04h0c18.88-17.28,49.06-11.11,59.82,12.11,3.82,8.24,3.52,16.91,3.36,25.61,0,.09-.13,.18-.2,.27h-75.5c.25-5.51,.09-10.96,.88-16.26,.33-2.17,1.01-4.29,1.79-6.39,1.21-3.27,2.88-6.34,4.95-9.14l3.07-4.15Zm-39.69,66.12c0,20.34,0,40.68,0,61.02,0,2.52-.02,2.54-2.57,2.54-1.76,0-3.53-.08-5.29,.02-1.73,.11-2.2-.6-2.19-2.27,.05-14.52,.03-29.04,.03-43.56,0-5.88,0-11.76,0-17.63v-2.04h10.02v1.91Zm36.23,63.58c-1.88-.07-3.76-.03-5.63-.01-.92,0-1.39-.29-1.39-1.32,.03-9.56,.01-19.12,.01-28.81h8.63c0,6.74,0,13.31,0,19.88,0,2.88-.04,5.75,.02,8.63,.02,1.22-.42,1.68-1.64,1.64Zm66.59,.01c-1.76-.12-3.53-.05-5.29-.02-.94,.02-1.41-.33-1.41-1.33,.03-9.47,.03-18.94,.05-28.41,0-.11,.08-.21,.18-.48h8.3c.04,.55,.1,1.05,.1,1.56,0,8.88-.03,17.77,.04,26.65,.01,1.52-.38,2.14-1.97,2.03Zm15.12-43.01c.03,4.18-3.15,7.36-7.55,7.41-5.29,.06-10.58,.02-15.87,.02-9.17,0-18.34,0-27.51,0-14.35,0-28.69,.01-43.04,0-4.6,0-7.85-2.99-7.94-7.2-.08-3.78,2.57-6.85,6.4-7.41,.46-.07,.94-.09,1.4-.09,28.75,0,57.5,0,86.25,0,4.57,0,7.82,3.05,7.85,7.28Zm-88.65-12.72v-9.71h75.34v9.71h-75.34Zm112.95,55.71c-1.94-.04-3.88,0-5.82,0-2.4,0-2.43-.04-2.43-2.5,0-20.35,0-40.71,0-61.06v-1.86h10.02v2.19c0,12.04,0,39.4,0,54.46-.03,2.34-.05,4.68,.01,7.02,.04,1.32-.53,1.8-1.78,1.77Zm9.76-72.07c-.02,.43-.72,.94-1.21,1.19-.37,.19-.92,.04-1.39,.04-27.53,0-55.06,0-82.59,0s-55.06,0-82.59,0q-2.3,0-2.3-2.29c0-1.88-.04-3.77,.02-5.65,.16-4.91,3.92-8.92,8.82-9.44,.88-.09,1.76-.11,2.64-.11,49.06,0,98.12,0,147.18,.02,1.57,0,3.22,.08,4.69,.57,4.01,1.33,6.29,4.27,6.71,8.44,.24,2.39,.12,4.82,.02,7.23Z"/><path class="cls-6" d="M1411.68,717.84c-3.8,6.03-4.88,13.06-4.9,20.18,0,3.28,0,6.56,0,10.01-2.89,0-5.58,0-8.27,0-8.41,.04-16.83-.12-25.23,.18-6.7,.24-12.45,5.53-13.42,12.18-.51,3.46-.42,7.04-.28,10.55,.11,2.86,2.67,5.01,5.57,5.15,.74,.04,1.49,0,2.39,0v2.3c0,20.53,0,41.06,0,61.59,0,4.38,2.5,6.88,6.88,6.94,2,.03,4.01-.1,6,.03,4.64,.3,7.83-2.45,7.79-7.73-.15-20.29-.06-40.59-.06-60.89v-2.15h18.55v9.7c-8.64,1.57-12.86,5.59-13.09,12.43-.1,2.92,.72,5.57,2.47,7.92,2.65,3.55,6.34,5.02,10.71,5.22v2.09c0,8.94,0,17.88,0,26.83,0,4.07,2.37,6.48,6.43,6.56,1.88,.04,3.76,.01,5.65,0,4.91-.01,7.13-2.21,7.13-7.1,0-8.77,0-17.53,0-26.3v-2.08h47.68c0,.78,0,1.48,0,2.17,0,8.82-.01,17.65,0,26.47,0,4.53,2.31,6.79,6.87,6.82,1.82,.01,3.65,.01,5.47,0,4.53-.03,6.87-2.34,6.87-6.83,0-8.94,0-17.88,0-26.83v-1.81c7.73-.74,12.58-5.08,13.12-11.47,.27-3.11-.4-5.96-2.21-8.51-2.64-3.72-6.4-5.32-10.79-5.47v-9.77h18.51v2.21c0,20.53,0,41.06,0,61.59,0,3.9,2.09,6.52,5.7,6.79,3.04,.22,6.12,.21,9.16,0,3.42-.23,5.66-2.8,5.73-6.23,.01-.6,.02-1.2,.02-1.8,.11-.38,.04-.88,0-1.35,0-1.35,0-2.7-.01-4.05,0-14.83,0-42.85,0-55.03v-2.33c3.93,.52,6.7-.84,8.06-4.53v-10.59c-.07-.09-.19-.16-.22-.26-2.37-8.66-7.52-12.63-16.45-12.64-9.47,0-18.94,0-28.41,0h-2.22c0-.97,.02-1.72,0-2.48-.14-4.64,.16-9.34-.5-13.91-4.26-29.94-37.38-46.21-63.69-31.32-3.14,1.78-6.17,3.94-8.74,6.51-2.43,2.44-6.46,8.09-8.29,11Zm10.86-5.87c.54-.73,1.15-1.42,1.82-2.04h0c18.88-17.28,49.06-11.11,59.82,12.11,3.82,8.24,3.52,16.91,3.36,25.61,0,.09-.13,.18-.2,.27h-75.5c.25-5.51,.09-10.96,.88-16.26,.33-2.17,1.01-4.29,1.79-6.39,1.21-3.27,2.88-6.34,4.95-9.14l3.07-4.15Zm-39.69,66.12c0,20.34,0,40.68,0,61.02,0,2.52-.02,2.54-2.57,2.54-1.76,0-3.53-.08-5.29,.02-1.73,.11-2.2-.6-2.19-2.27,.05-14.52,.03-29.04,.03-43.56,0-5.88,0-11.76,0-17.63v-2.04h10.02v1.91Zm36.23,63.58c-1.88-.07-3.76-.03-5.63-.01-.92,0-1.39-.29-1.39-1.32,.03-9.56,.01-19.12,.01-28.81h8.63c0,6.74,0,13.31,0,19.88,0,2.88-.04,5.75,.02,8.63,.02,1.22-.42,1.68-1.64,1.64Zm66.59,.01c-1.76-.12-3.53-.05-5.29-.02-.94,.02-1.41-.33-1.41-1.33,.03-9.47,.03-18.94,.05-28.41,0-.11,.08-.21,.18-.48h8.3c.04,.55,.1,1.05,.1,1.56,0,8.88-.03,17.77,.04,26.65,.01,1.52-.38,2.14-1.97,2.03Zm15.12-43.01c.03,4.18-3.15,7.36-7.55,7.41-5.29,.06-10.58,.02-15.87,.02-9.17,0-18.34,0-27.51,0-14.35,0-28.69,.01-43.04,0-4.6,0-7.85-2.99-7.94-7.2-.08-3.78,2.57-6.85,6.4-7.41,.46-.07,.94-.09,1.4-.09,28.75,0,57.5,0,86.25,0,4.57,0,7.82,3.05,7.85,7.28Zm-88.65-12.72v-9.71h75.34v9.71h-75.34Zm112.95,55.71c-1.94-.04-3.88,0-5.82,0-2.4,0-2.43-.04-2.43-2.5,0-20.35,0-40.71,0-61.06v-1.86h10.02v2.19c0,12.04,0,39.4,0,54.46-.03,2.34-.05,4.68,.01,7.02,.04,1.32-.53,1.8-1.78,1.77Zm9.76-72.07c-.02,.43-.72,.94-1.21,1.19-.37,.19-.92,.04-1.39,.04-27.53,0-55.06,0-82.59,0s-55.06,0-82.59,0q-2.3,0-2.3-2.29c0-1.88-.04-3.77,.02-5.65,.16-4.91,3.92-8.92,8.82-9.44,.88-.09,1.76-.11,2.64-.11,49.06,0,98.12,0,147.18,.02,1.57,0,3.22,.08,4.69,.57,4.01,1.33,6.29,4.27,6.71,8.44,.24,2.39,.12,4.82,.02,7.23Z"/><path class="cls-6" d="M1894.96,717.84c-3.8,6.03-4.88,13.06-4.9,20.18,0,3.28,0,6.56,0,10.01-2.89,0-5.58,0-8.27,0-8.41,.04-16.83-.12-25.23,.18-6.7,.24-12.45,5.53-13.42,12.18-.51,3.46-.42,7.04-.28,10.55,.11,2.86,2.67,5.01,5.57,5.15,.74,.04,1.49,0,2.39,0v2.3c0,20.53,0,41.06,0,61.59,0,4.38,2.5,6.88,6.88,6.94,2,.03,4.01-.1,6,.03,4.64,.3,7.83-2.45,7.79-7.73-.15-20.29-.06-40.59-.06-60.89v-2.15h18.55v9.7c-8.64,1.57-12.86,5.59-13.09,12.43-.1,2.92,.72,5.57,2.47,7.92,2.65,3.55,6.34,5.02,10.71,5.22v2.09c0,8.94,0,17.88,0,26.83,0,4.07,2.37,6.48,6.43,6.56,1.88,.04,3.76,.01,5.65,0,4.91-.01,7.13-2.21,7.13-7.1,0-8.77,0-17.53,0-26.3v-2.08h47.68c0,.78,0,1.48,0,2.17,0,8.82-.01,17.65,0,26.47,0,4.53,2.31,6.79,6.87,6.82,1.82,.01,3.65,.01,5.47,0,4.53-.03,6.87-2.34,6.87-6.83,0-8.94,0-17.88,0-26.83v-1.81c7.73-.74,12.58-5.08,13.12-11.47,.27-3.11-.4-5.96-2.21-8.51-2.64-3.72-6.4-5.32-10.79-5.47v-9.77h18.51v2.21c0,20.53,0,41.06,0,61.59,0,3.9,2.09,6.52,5.7,6.79,3.04,.22,6.12,.21,9.16,0,3.42-.23,5.66-2.8,5.73-6.23,.01-.6,.02-1.2,.02-1.8,.11-.38,.04-.88,0-1.35,0-1.35,0-2.7-.01-4.05,0-14.83,0-42.85,0-55.03v-2.33c3.93,.52,6.7-.84,8.06-4.53v-10.59c-.07-.09-.19-.16-.22-.26-2.37-8.66-7.52-12.63-16.45-12.64-9.47,0-18.94,0-28.41,0h-2.22c0-.97,.02-1.72,0-2.48-.14-4.64,.16-9.34-.5-13.91-4.26-29.94-37.38-46.21-63.69-31.32-3.14,1.78-6.17,3.94-8.74,6.51-2.43,2.44-6.46,8.09-8.29,11Zm10.86-5.87c.54-.73,1.15-1.42,1.82-2.04h0c18.88-17.28,49.06-11.11,59.82,12.11,3.82,8.24,3.52,16.91,3.36,25.61,0,.09-.13,.18-.2,.27h-75.5c.25-5.51,.09-10.96,.88-16.26,.33-2.17,1.01-4.29,1.79-6.39,1.21-3.27,2.88-6.34,4.95-9.14l3.07-4.15Zm-39.69,66.12c0,20.34,0,40.68,0,61.02,0,2.52-.02,2.54-2.57,2.54-1.76,0-3.53-.08-5.29,.02-1.73,.11-2.2-.6-2.19-2.27,.05-14.52,.03-29.04,.03-43.56,0-5.88,0-11.76,0-17.63v-2.04h10.02v1.91Zm36.23,63.58c-1.88-.07-3.76-.03-5.63-.01-.92,0-1.39-.29-1.39-1.32,.03-9.56,.01-19.12,.01-28.81h8.63c0,6.74,0,13.31,0,19.88,0,2.88-.04,5.75,.02,8.63,.02,1.22-.42,1.68-1.64,1.64Zm66.59,.01c-1.76-.12-3.53-.05-5.29-.02-.94,.02-1.41-.33-1.41-1.33,.03-9.47,.03-18.94,.05-28.41,0-.11,.08-.21,.18-.48h8.3c.04,.55,.1,1.05,.1,1.56,0,8.88-.03,17.77,.04,26.65,.01,1.52-.38,2.14-1.97,2.03Zm15.12-43.01c.03,4.18-3.15,7.36-7.55,7.41-5.29,.06-10.58,.02-15.87,.02-9.17,0-18.34,0-27.51,0-14.35,0-28.69,.01-43.04,0-4.6,0-7.85-2.99-7.94-7.2-.08-3.78,2.57-6.85,6.4-7.41,.46-.07,.94-.09,1.4-.09,28.75,0,57.5,0,86.25,0,4.57,0,7.82,3.05,7.85,7.28Zm-88.65-12.72v-9.71h75.34v9.71h-75.34Zm112.95,55.71c-1.94-.04-3.88,0-5.82,0-2.4,0-2.43-.04-2.43-2.5,0-20.35,0-40.71,0-61.06v-1.86h10.02v2.19c0,12.04,0,39.4,0,54.46-.03,2.34-.05,4.68,.01,7.02,.04,1.32-.53,1.8-1.78,1.77Zm9.76-72.07c-.02,.43-.72,.94-1.21,1.19-.37,.19-.92,.04-1.39,.04-27.53,0-55.06,0-82.59,0s-55.06,0-82.59,0q-2.3,0-2.3-2.29c0-1.88-.04-3.77,.02-5.65,.16-4.91,3.92-8.92,8.82-9.44,.88-.09,1.76-.11,2.64-.11,49.06,0,98.12,0,147.18,.02,1.57,0,3.22,.08,4.69,.57,4.01,1.33,6.29,4.27,6.71,8.44,.24,2.39,.12,4.82,.02,7.23Z"/><path class="cls-6" d="M-38.15,240.42c-3.8,6.03-4.88,13.06-4.9,20.18,0,3.28,0,6.56,0,10.01-2.89,0-5.58,0-8.27,0-8.41,.04-16.83-.12-25.23,.18-6.7,.24-12.45,5.53-13.42,12.18-.51,3.46-.42,7.04-.28,10.55,.11,2.86,2.67,5.01,5.57,5.15,.74,.04,1.49,0,2.39,0v2.3c0,20.53,0,41.06,0,61.59,0,4.38,2.5,6.88,6.88,6.94,2,.03,4.01-.1,6,.03,4.64,.3,7.83-2.45,7.79-7.73-.15-20.29-.06-40.59-.06-60.89v-2.15h18.55v9.7c-8.64,1.57-12.86,5.59-13.09,12.43-.1,2.92,.72,5.57,2.47,7.92,2.65,3.55,6.34,5.02,10.71,5.22v2.09c0,8.94,0,17.88,0,26.83,0,4.07,2.37,6.48,6.43,6.56,1.88,.04,3.76,.01,5.65,0,4.91-.01,7.13-2.21,7.13-7.1,0-8.77,0-17.53,0-26.3v-2.08H23.84c0,.78,0,1.48,0,2.17,0,8.82-.01,17.65,0,26.47,0,4.53,2.31,6.79,6.87,6.82,1.82,.01,3.65,.01,5.47,0,4.53-.03,6.87-2.34,6.87-6.83,0-8.94,0-17.88,0-26.83v-1.81c7.73-.74,12.58-5.08,13.12-11.47,.27-3.11-.4-5.96-2.21-8.51-2.64-3.72-6.4-5.32-10.79-5.47v-9.77h18.51v2.21c0,20.53,0,41.06,0,61.59,0,3.9,2.09,6.52,5.7,6.79,3.04,.22,6.12,.21,9.16,0,3.42-.23,5.66-2.8,5.73-6.23,.01-.6,.02-1.2,.02-1.8,.11-.38,.04-.88,0-1.35,0-1.35,0-2.7-.01-4.05,0-14.83,0-42.85,0-55.03v-2.33c3.93,.52,6.7-.84,8.06-4.53v-10.59c-.07-.09-.19-.16-.22-.26-2.37-8.66-7.52-12.63-16.45-12.64-9.47,0-18.94,0-28.41,0h-2.22c0-.97,.02-1.72,0-2.48-.14-4.64,.16-9.34-.5-13.91-4.26-29.94-37.38-46.21-63.69-31.32-3.14,1.78-6.17,3.94-8.74,6.51-2.43,2.44-6.46,8.09-8.29,11Zm10.86-5.87c.54-.73,1.15-1.42,1.82-2.04h0c18.88-17.28,49.06-11.11,59.82,12.11,3.82,8.24,3.52,16.91,3.36,25.61,0,.09-.13,.18-.2,.27H-37.99c.25-5.51,.09-10.96,.88-16.26,.33-2.17,1.01-4.29,1.79-6.39,1.21-3.27,2.88-6.34,4.95-9.14l3.07-4.15Zm-39.69,66.12c0,20.34,0,40.68,0,61.02,0,2.52-.02,2.54-2.57,2.54-1.76,0-3.53-.08-5.29,.02-1.73,.11-2.2-.6-2.19-2.27,.05-14.52,.03-29.04,.03-43.56,0-5.88,0-11.76,0-17.63v-2.04h10.02v1.91Zm36.23,63.58c-1.88-.07-3.76-.03-5.63-.01-.92,0-1.39-.29-1.39-1.32,.03-9.56,.01-19.12,.01-28.81h8.63c0,6.74,0,13.31,0,19.88,0,2.88-.04,5.75,.02,8.63,.02,1.22-.42,1.68-1.64,1.64Zm66.59,.01c-1.76-.12-3.53-.05-5.29-.02-.94,.02-1.41-.33-1.41-1.33,.03-9.47,.03-18.94,.05-28.41,0-.11,.08-.21,.18-.48h8.3c.04,.55,.1,1.05,.1,1.56,0,8.88-.03,17.77,.04,26.65,.01,1.52-.38,2.14-1.97,2.03Zm15.12-43.01c.03,4.18-3.15,7.36-7.55,7.41-5.29,.06-10.58,.02-15.87,.02-9.17,0-18.34,0-27.51,0-14.35,0-28.69,.01-43.04,0-4.6,0-7.85-2.99-7.94-7.2-.08-3.78,2.57-6.85,6.4-7.41,.46-.07,.94-.09,1.4-.09,28.75,0,57.5,0,86.25,0,4.57,0,7.82,3.05,7.85,7.28Zm-88.65-12.72v-9.71H37.65v9.71H-37.69Zm112.95,55.71c-1.94-.04-3.88,0-5.82,0-2.4,0-2.43-.04-2.43-2.5,0-20.35,0-40.71,0-61.06v-1.86h10.02v2.19c0,12.04,0,39.4,0,54.46-.03,2.34-.05,4.68,.01,7.02,.04,1.32-.53,1.8-1.78,1.77Zm9.76-72.07c-.02,.43-.72,.94-1.21,1.19-.37,.19-.92,.04-1.39,.04-27.53,0-55.06,0-82.59,0s-55.06,0-82.59,0q-2.3,0-2.3-2.29c0-1.88-.04-3.77,.02-5.65,.16-4.91,3.92-8.92,8.82-9.44,.88-.09,1.76-.11,2.64-.11,49.06,0,98.12,0,147.18,.02,1.57,0,3.22,.08,4.69,.57,4.01,1.33,6.29,4.27,6.71,8.44,.24,2.39,.12,4.82,.02,7.23Z"/><path class="cls-6" d="M445.13,240.42c-3.8,6.03-4.88,13.06-4.9,20.18,0,3.28,0,6.56,0,10.01-2.89,0-5.58,0-8.27,0-8.41,.04-16.83-.12-25.23,.18-6.7,.24-12.45,5.53-13.42,12.18-.51,3.46-.42,7.04-.28,10.55,.11,2.86,2.67,5.01,5.57,5.15,.74,.04,1.49,0,2.39,0v2.3c0,20.53,0,41.06,0,61.59,0,4.38,2.5,6.88,6.88,6.94,2,.03,4.01-.1,6,.03,4.64,.3,7.83-2.45,7.79-7.73-.15-20.29-.06-40.59-.06-60.89v-2.15h18.55v9.7c-8.64,1.57-12.86,5.59-13.09,12.43-.1,2.92,.72,5.57,2.47,7.92,2.65,3.55,6.34,5.02,10.71,5.22v2.09c0,8.94,0,17.88,0,26.83,0,4.07,2.37,6.48,6.43,6.56,1.88,.04,3.76,.01,5.65,0,4.91-.01,7.13-2.21,7.13-7.1,0-8.77,0-17.53,0-26.3v-2.08h47.68c0,.78,0,1.48,0,2.17,0,8.82-.01,17.65,0,26.47,0,4.53,2.31,6.79,6.87,6.82,1.82,.01,3.65,.01,5.47,0,4.53-.03,6.87-2.34,6.87-6.83,0-8.94,0-17.88,0-26.83v-1.81c7.73-.74,12.58-5.08,13.12-11.47,.27-3.11-.4-5.96-2.21-8.51-2.64-3.72-6.4-5.32-10.79-5.47v-9.77h18.51v2.21c0,20.53,0,41.06,0,61.59,0,3.9,2.09,6.52,5.7,6.79,3.04,.22,6.12,.21,9.16,0,3.42-.23,5.66-2.8,5.73-6.23,.01-.6,.02-1.2,.02-1.8,.11-.38,.04-.88,0-1.35,0-1.35,0-2.7-.01-4.05,0-14.83,0-42.85,0-55.03v-2.33c3.93,.52,6.7-.84,8.06-4.53v-10.59c-.07-.09-.19-.16-.22-.26-2.37-8.66-7.52-12.63-16.45-12.64-9.47,0-18.94,0-28.41,0h-2.22c0-.97,.02-1.72,0-2.48-.14-4.64,.16-9.34-.5-13.91-4.26-29.94-37.38-46.21-63.69-31.32-3.14,1.78-6.17,3.94-8.74,6.51-2.43,2.44-6.46,8.09-8.29,11Zm10.86-5.87c.54-.73,1.15-1.42,1.82-2.04h0c18.88-17.28,49.06-11.11,59.82,12.11,3.82,8.24,3.52,16.91,3.36,25.61,0,.09-.13,.18-.2,.27h-75.5c.25-5.51,.09-10.96,.88-16.26,.33-2.17,1.01-4.29,1.79-6.39,1.21-3.27,2.88-6.34,4.95-9.14l3.07-4.15Zm-39.69,66.12c0,20.34,0,40.68,0,61.02,0,2.52-.02,2.54-2.57,2.54-1.76,0-3.53-.08-5.29,.02-1.73,.11-2.2-.6-2.19-2.27,.05-14.52,.03-29.04,.03-43.56,0-5.88,0-11.76,0-17.63v-2.04h10.02v1.91Zm36.23,63.58c-1.88-.07-3.76-.03-5.63-.01-.92,0-1.39-.29-1.39-1.32,.03-9.56,.01-19.12,.01-28.81h8.63c0,6.74,0,13.31,0,19.88,0,2.88-.04,5.75,.02,8.63,.02,1.22-.42,1.68-1.64,1.64Zm66.59,.01c-1.76-.12-3.53-.05-5.29-.02-.94,.02-1.41-.33-1.41-1.33,.03-9.47,.03-18.94,.05-28.41,0-.11,.08-.21,.18-.48h8.3c.04,.55,.1,1.05,.1,1.56,0,8.88-.03,17.77,.04,26.65,.01,1.52-.38,2.14-1.97,2.03Zm15.12-43.01c.03,4.18-3.15,7.36-7.55,7.41-5.29,.06-10.58,.02-15.87,.02-9.17,0-18.34,0-27.51,0-14.35,0-28.69,.01-43.04,0-4.6,0-7.85-2.99-7.94-7.2-.08-3.78,2.57-6.85,6.4-7.41,.46-.07,.94-.09,1.4-.09,28.75,0,57.5,0,86.25,0,4.57,0,7.82,3.05,7.85,7.28Zm-88.65-12.72v-9.71h75.34v9.71h-75.34Zm112.95,55.71c-1.94-.04-3.88,0-5.82,0-2.4,0-2.43-.04-2.43-2.5,0-20.35,0-40.71,0-61.06v-1.86h10.02v2.19c0,12.04,0,39.4,0,54.46-.03,2.34-.05,4.68,.01,7.02,.04,1.32-.53,1.8-1.78,1.77Zm9.76-72.07c-.02,.43-.72,.94-1.21,1.19-.37,.19-.92,.04-1.39,.04-27.53,0-55.06,0-82.59,0s-55.06,0-82.59,0q-2.3,0-2.3-2.29c0-1.88-.04-3.77,.02-5.65,.16-4.91,3.92-8.92,8.82-9.44,.88-.09,1.76-.11,2.64-.11,49.06,0,98.12,0,147.18,.02,1.57,0,3.22,.08,4.69,.57,4.01,1.33,6.29,4.27,6.71,8.44,.24,2.39,.12,4.82,.02,7.23Z"/><path class="cls-6" d="M928.4,240.42c-3.8,6.03-4.88,13.06-4.9,20.18,0,3.28,0,6.56,0,10.01-2.89,0-5.58,0-8.27,0-8.41,.04-16.83-.12-25.23,.18-6.7,.24-12.45,5.53-13.42,12.18-.51,3.46-.42,7.04-.28,10.55,.11,2.86,2.67,5.01,5.57,5.15,.74,.04,1.49,0,2.39,0v2.3c0,20.53,0,41.06,0,61.59,0,4.38,2.5,6.88,6.88,6.94,2,.03,4.01-.1,6,.03,4.64,.3,7.83-2.45,7.79-7.73-.15-20.29-.06-40.59-.06-60.89v-2.15h18.55v9.7c-8.64,1.57-12.86,5.59-13.09,12.43-.1,2.92,.72,5.57,2.47,7.92,2.65,3.55,6.34,5.02,10.71,5.22v2.09c0,8.94,0,17.88,0,26.83,0,4.07,2.37,6.48,6.43,6.56,1.88,.04,3.76,.01,5.65,0,4.91-.01,7.13-2.21,7.13-7.1,0-8.77,0-17.53,0-26.3v-2.08h47.68c0,.78,0,1.48,0,2.17,0,8.82-.01,17.65,0,26.47,0,4.53,2.31,6.79,6.87,6.82,1.82,.01,3.65,.01,5.47,0,4.53-.03,6.87-2.34,6.87-6.83,0-8.94,0-17.88,0-26.83v-1.81c7.73-.74,12.58-5.08,13.12-11.47,.27-3.11-.4-5.96-2.21-8.51-2.64-3.72-6.4-5.32-10.79-5.47v-9.77h18.51v2.21c0,20.53,0,41.06,0,61.59,0,3.9,2.09,6.52,5.7,6.79,3.04,.22,6.12,.21,9.16,0,3.42-.23,5.66-2.8,5.73-6.23,.01-.6,.02-1.2,.02-1.8,.11-.38,.04-.88,0-1.35,0-1.35,0-2.7-.01-4.05,0-14.83,0-42.85,0-55.03v-2.33c3.93,.52,6.7-.84,8.06-4.53v-10.59c-.07-.09-.19-.16-.22-.26-2.37-8.66-7.52-12.63-16.45-12.64-9.47,0-18.94,0-28.41,0h-2.22c0-.97,.02-1.72,0-2.48-.14-4.64,.16-9.34-.5-13.91-4.26-29.94-37.38-46.21-63.69-31.32-3.14,1.78-6.17,3.94-8.74,6.51-2.43,2.44-6.46,8.09-8.29,11Zm10.86-5.87c.54-.73,1.15-1.42,1.82-2.04h0c18.88-17.28,49.06-11.11,59.82,12.11,3.82,8.24,3.52,16.91,3.36,25.61,0,.09-.13,.18-.2,.27h-75.5c.25-5.51,.09-10.96,.88-16.26,.33-2.17,1.01-4.29,1.79-6.39,1.21-3.27,2.88-6.34,4.95-9.14l3.07-4.15Zm-39.69,66.12c0,20.34,0,40.68,0,61.02,0,2.52-.02,2.54-2.57,2.54-1.76,0-3.53-.08-5.29,.02-1.73,.11-2.2-.6-2.19-2.27,.05-14.52,.03-29.04,.03-43.56,0-5.88,0-11.76,0-17.63v-2.04h10.02v1.91Zm36.23,63.58c-1.88-.07-3.76-.03-5.63-.01-.92,0-1.39-.29-1.39-1.32,.03-9.56,.01-19.12,.01-28.81h8.63c0,6.74,0,13.31,0,19.88,0,2.88-.04,5.75,.02,8.63,.02,1.22-.42,1.68-1.64,1.64Zm66.59,.01c-1.76-.12-3.53-.05-5.29-.02-.94,.02-1.41-.33-1.41-1.33,.03-9.47,.03-18.94,.05-28.41,0-.11,.08-.21,.18-.48h8.3c.04,.55,.1,1.05,.1,1.56,0,8.88-.03,17.77,.04,26.65,.01,1.52-.38,2.14-1.97,2.03Zm15.12-43.01c.03,4.18-3.15,7.36-7.55,7.41-5.29,.06-10.58,.02-15.87,.02-9.17,0-18.34,0-27.51,0-14.35,0-28.69,.01-43.04,0-4.6,0-7.85-2.99-7.94-7.2-.08-3.78,2.57-6.85,6.4-7.41,.46-.07,.94-.09,1.4-.09,28.75,0,57.5,0,86.25,0,4.57,0,7.82,3.05,7.85,7.28Zm-88.65-12.72v-9.71h75.34v9.71h-75.34Zm112.95,55.71c-1.94-.04-3.88,0-5.82,0-2.4,0-2.43-.04-2.43-2.5,0-20.35,0-40.71,0-61.06v-1.86h10.02v2.19c0,12.04,0,39.4,0,54.46-.03,2.34-.05,4.68,.01,7.02,.04,1.32-.53,1.8-1.78,1.77Zm9.76-72.07c-.02,.43-.72,.94-1.21,1.19-.37,.19-.92,.04-1.39,.04-27.53,0-55.06,0-82.59,0s-55.06,0-82.59,0q-2.3,0-2.3-2.29c0-1.88-.04-3.77,.02-5.65,.16-4.91,3.92-8.92,8.82-9.44,.88-.09,1.76-.11,2.64-.11,49.06,0,98.12,0,147.18,.02,1.57,0,3.22,.08,4.69,.57,4.01,1.33,6.29,4.27,6.71,8.44,.24,2.39,.12,4.82,.02,7.23Z"/><path class="cls-6" d="M1411.68,240.42c-3.8,6.03-4.88,13.06-4.9,20.18,0,3.28,0,6.56,0,10.01-2.89,0-5.58,0-8.27,0-8.41,.04-16.83-.12-25.23,.18-6.7,.24-12.45,5.53-13.42,12.18-.51,3.46-.42,7.04-.28,10.55,.11,2.86,2.67,5.01,5.57,5.15,.74,.04,1.49,0,2.39,0v2.3c0,20.53,0,41.06,0,61.59,0,4.38,2.5,6.88,6.88,6.94,2,.03,4.01-.1,6,.03,4.64,.3,7.83-2.45,7.79-7.73-.15-20.29-.06-40.59-.06-60.89v-2.15h18.55v9.7c-8.64,1.57-12.86,5.59-13.09,12.43-.1,2.92,.72,5.57,2.47,7.92,2.65,3.55,6.34,5.02,10.71,5.22v2.09c0,8.94,0,17.88,0,26.83,0,4.07,2.37,6.48,6.43,6.56,1.88,.04,3.76,.01,5.65,0,4.91-.01,7.13-2.21,7.13-7.1,0-8.77,0-17.53,0-26.3v-2.08h47.68c0,.78,0,1.48,0,2.17,0,8.82-.01,17.65,0,26.47,0,4.53,2.31,6.79,6.87,6.82,1.82,.01,3.65,.01,5.47,0,4.53-.03,6.87-2.34,6.87-6.83,0-8.94,0-17.88,0-26.83v-1.81c7.73-.74,12.58-5.08,13.12-11.47,.27-3.11-.4-5.96-2.21-8.51-2.64-3.72-6.4-5.32-10.79-5.47v-9.77h18.51v2.21c0,20.53,0,41.06,0,61.59,0,3.9,2.09,6.52,5.7,6.79,3.04,.22,6.12,.21,9.16,0,3.42-.23,5.66-2.8,5.73-6.23,.01-.6,.02-1.2,.02-1.8,.11-.38,.04-.88,0-1.35,0-1.35,0-2.7-.01-4.05,0-14.83,0-42.85,0-55.03v-2.33c3.93,.52,6.7-.84,8.06-4.53v-10.59c-.07-.09-.19-.16-.22-.26-2.37-8.66-7.52-12.63-16.45-12.64-9.47,0-18.94,0-28.41,0h-2.22c0-.97,.02-1.72,0-2.48-.14-4.64,.16-9.34-.5-13.91-4.26-29.94-37.38-46.21-63.69-31.32-3.14,1.78-6.17,3.94-8.74,6.51-2.43,2.44-6.46,8.09-8.29,11Zm10.86-5.87c.54-.73,1.15-1.42,1.82-2.04h0c18.88-17.28,49.06-11.11,59.82,12.11,3.82,8.24,3.52,16.91,3.36,25.61,0,.09-.13,.18-.2,.27h-75.5c.25-5.51,.09-10.96,.88-16.26,.33-2.17,1.01-4.29,1.79-6.39,1.21-3.27,2.88-6.34,4.95-9.14l3.07-4.15Zm-39.69,66.12c0,20.34,0,40.68,0,61.02,0,2.52-.02,2.54-2.57,2.54-1.76,0-3.53-.08-5.29,.02-1.73,.11-2.2-.6-2.19-2.27,.05-14.52,.03-29.04,.03-43.56,0-5.88,0-11.76,0-17.63v-2.04h10.02v1.91Zm36.23,63.58c-1.88-.07-3.76-.03-5.63-.01-.92,0-1.39-.29-1.39-1.32,.03-9.56,.01-19.12,.01-28.81h8.63c0,6.74,0,13.31,0,19.88,0,2.88-.04,5.75,.02,8.63,.02,1.22-.42,1.68-1.64,1.64Zm66.59,.01c-1.76-.12-3.53-.05-5.29-.02-.94,.02-1.41-.33-1.41-1.33,.03-9.47,.03-18.94,.05-28.41,0-.11,.08-.21,.18-.48h8.3c.04,.55,.1,1.05,.1,1.56,0,8.88-.03,17.77,.04,26.65,.01,1.52-.38,2.14-1.97,2.03Zm15.12-43.01c.03,4.18-3.15,7.36-7.55,7.41-5.29,.06-10.58,.02-15.87,.02-9.17,0-18.34,0-27.51,0-14.35,0-28.69,.01-43.04,0-4.6,0-7.85-2.99-7.94-7.2-.08-3.78,2.57-6.85,6.4-7.41,.46-.07,.94-.09,1.4-.09,28.75,0,57.5,0,86.25,0,4.57,0,7.82,3.05,7.85,7.28Zm-88.65-12.72v-9.71h75.34v9.71h-75.34Zm112.95,55.71c-1.94-.04-3.88,0-5.82,0-2.4,0-2.43-.04-2.43-2.5,0-20.35,0-40.71,0-61.06v-1.86h10.02v2.19c0,12.04,0,39.4,0,54.46-.03,2.34-.05,4.68,.01,7.02,.04,1.32-.53,1.8-1.78,1.77Zm9.76-72.07c-.02,.43-.72,.94-1.21,1.19-.37,.19-.92,.04-1.39,.04-27.53,0-55.06,0-82.59,0s-55.06,0-82.59,0q-2.3,0-2.3-2.29c0-1.88-.04-3.77,.02-5.65,.16-4.91,3.92-8.92,8.82-9.44,.88-.09,1.76-.11,2.64-.11,49.06,0,98.12,0,147.18,.02,1.57,0,3.22,.08,4.69,.57,4.01,1.33,6.29,4.27,6.71,8.44,.24,2.39,.12,4.82,.02,7.23Z"/><path class="cls-6" d="M1894.96,240.42c-3.8,6.03-4.88,13.06-4.9,20.18,0,3.28,0,6.56,0,10.01-2.89,0-5.58,0-8.27,0-8.41,.04-16.83-.12-25.23,.18-6.7,.24-12.45,5.53-13.42,12.18-.51,3.46-.42,7.04-.28,10.55,.11,2.86,2.67,5.01,5.57,5.15,.74,.04,1.49,0,2.39,0v2.3c0,20.53,0,41.06,0,61.59,0,4.38,2.5,6.88,6.88,6.94,2,.03,4.01-.1,6,.03,4.64,.3,7.83-2.45,7.79-7.73-.15-20.29-.06-40.59-.06-60.89v-2.15h18.55v9.7c-8.64,1.57-12.86,5.59-13.09,12.43-.1,2.92,.72,5.57,2.47,7.92,2.65,3.55,6.34,5.02,10.71,5.22v2.09c0,8.94,0,17.88,0,26.83,0,4.07,2.37,6.48,6.43,6.56,1.88,.04,3.76,.01,5.65,0,4.91-.01,7.13-2.21,7.13-7.1,0-8.77,0-17.53,0-26.3v-2.08h47.68c0,.78,0,1.48,0,2.17,0,8.82-.01,17.65,0,26.47,0,4.53,2.31,6.79,6.87,6.82,1.82,.01,3.65,.01,5.47,0,4.53-.03,6.87-2.34,6.87-6.83,0-8.94,0-17.88,0-26.83v-1.81c7.73-.74,12.58-5.08,13.12-11.47,.27-3.11-.4-5.96-2.21-8.51-2.64-3.72-6.4-5.32-10.79-5.47v-9.77h18.51v2.21c0,20.53,0,41.06,0,61.59,0,3.9,2.09,6.52,5.7,6.79,3.04,.22,6.12,.21,9.16,0,3.42-.23,5.66-2.8,5.73-6.23,.01-.6,.02-1.2,.02-1.8,.11-.38,.04-.88,0-1.35,0-1.35,0-2.7-.01-4.05,0-14.83,0-42.85,0-55.03v-2.33c3.93,.52,6.7-.84,8.06-4.53v-10.59c-.07-.09-.19-.16-.22-.26-2.37-8.66-7.52-12.63-16.45-12.64-9.47,0-18.94,0-28.41,0h-2.22c0-.97,.02-1.72,0-2.48-.14-4.64,.16-9.34-.5-13.91-4.26-29.94-37.38-46.21-63.69-31.32-3.14,1.78-6.17,3.94-8.74,6.51-2.43,2.44-6.46,8.09-8.29,11Zm10.86-5.87c.54-.73,1.15-1.42,1.82-2.04h0c18.88-17.28,49.06-11.11,59.82,12.11,3.82,8.24,3.52,16.91,3.36,25.61,0,.09-.13,.18-.2,.27h-75.5c.25-5.51,.09-10.96,.88-16.26,.33-2.17,1.01-4.29,1.79-6.39,1.21-3.27,2.88-6.34,4.95-9.14l3.07-4.15Zm-39.69,66.12c0,20.34,0,40.68,0,61.02,0,2.52-.02,2.54-2.57,2.54-1.76,0-3.53-.08-5.29,.02-1.73,.11-2.2-.6-2.19-2.27,.05-14.52,.03-29.04,.03-43.56,0-5.88,0-11.76,0-17.63v-2.04h10.02v1.91Zm36.23,63.58c-1.88-.07-3.76-.03-5.63-.01-.92,0-1.39-.29-1.39-1.32,.03-9.56,.01-19.12,.01-28.81h8.63c0,6.74,0,13.31,0,19.88,0,2.88-.04,5.75,.02,8.63,.02,1.22-.42,1.68-1.64,1.64Zm66.59,.01c-1.76-.12-3.53-.05-5.29-.02-.94,.02-1.41-.33-1.41-1.33,.03-9.47,.03-18.94,.05-28.41,0-.11,.08-.21,.18-.48h8.3c.04,.55,.1,1.05,.1,1.56,0,8.88-.03,17.77,.04,26.65,.01,1.52-.38,2.14-1.97,2.03Zm15.12-43.01c.03,4.18-3.15,7.36-7.55,7.41-5.29,.06-10.58,.02-15.87,.02-9.17,0-18.34,0-27.51,0-14.35,0-28.69,.01-43.04,0-4.6,0-7.85-2.99-7.94-7.2-.08-3.78,2.57-6.85,6.4-7.41,.46-.07,.94-.09,1.4-.09,28.75,0,57.5,0,86.25,0,4.57,0,7.82,3.05,7.85,7.28Zm-88.65-12.72v-9.71h75.34v9.71h-75.34Zm112.95,55.71c-1.94-.04-3.88,0-5.82,0-2.4,0-2.43-.04-2.43-2.5,0-20.35,0-40.71,0-61.06v-1.86h10.02v2.19c0,12.04,0,39.4,0,54.46-.03,2.34-.05,4.68,.01,7.02,.04,1.32-.53,1.8-1.78,1.77Zm9.76-72.07c-.02,.43-.72,.94-1.21,1.19-.37,.19-.92,.04-1.39,.04-27.53,0-55.06,0-82.59,0s-55.06,0-82.59,0q-2.3,0-2.3-2.29c0-1.88-.04-3.77,.02-5.65,.16-4.91,3.92-8.92,8.82-9.44,.88-.09,1.76-.11,2.64-.11,49.06,0,98.12,0,147.18,.02,1.57,0,3.22,.08,4.69,.57,4.01,1.33,6.29,4.27,6.71,8.44,.24,2.39,.12,4.82,.02,7.23Z"/><path class="cls-6" d="M195.53,2.42c-3.8,6.03-4.88,13.06-4.9,20.18,0,3.28,0,6.56,0,10.01-2.89,0-5.58,0-8.27,0-8.41,.04-16.83-.12-25.23,.18-6.7,.24-12.45,5.53-13.42,12.18-.51,3.46-.42,7.04-.28,10.55,.11,2.86,2.67,5.01,5.57,5.15,.74,.04,1.49,0,2.39,0v2.3c0,20.53,0,41.06,0,61.59,0,4.38,2.5,6.88,6.88,6.94,2,.03,4.01-.1,6,.03,4.64,.3,7.83-2.45,7.79-7.73-.15-20.29-.06-40.59-.06-60.89v-2.15h18.55v9.7c-8.64,1.57-12.86,5.59-13.09,12.43-.1,2.92,.72,5.57,2.47,7.92,2.65,3.55,6.34,5.02,10.71,5.22v2.09c0,8.94,0,17.88,0,26.83,0,4.07,2.37,6.48,6.43,6.56,1.88,.04,3.76,.01,5.65,0,4.91-.01,7.13-2.21,7.13-7.1,0-8.77,0-17.53,0-26.3v-2.08h47.68c0,.78,0,1.48,0,2.17,0,8.82-.01,17.65,0,26.47,0,4.53,2.31,6.79,6.87,6.82,1.82,.01,3.65,.01,5.47,0,4.53-.03,6.87-2.34,6.87-6.83,0-8.94,0-17.88,0-26.83v-1.81c7.73-.74,12.58-5.08,13.12-11.47,.27-3.11-.4-5.96-2.21-8.51-2.64-3.72-6.4-5.32-10.79-5.47v-9.77h18.51v2.21c0,20.53,0,41.06,0,61.59,0,3.9,2.09,6.52,5.7,6.79,3.04,.22,6.12,.21,9.16,0,3.42-.23,5.66-2.8,5.73-6.23,.01-.6,.02-1.2,.02-1.8,.11-.38,.04-.88,0-1.35,0-1.35,0-2.7-.01-4.05,0-14.83,0-42.85,0-55.03v-2.33c3.93,.52,6.7-.84,8.06-4.53v-10.59c-.07-.09-.19-.16-.22-.26-2.37-8.66-7.52-12.63-16.45-12.64-9.47,0-18.94,0-28.41,0h-2.22c0-.97,.02-1.72,0-2.48-.14-4.64,.16-9.34-.5-13.91-4.26-29.94-37.38-46.21-63.69-31.32-3.14,1.78-6.17,3.94-8.74,6.51-2.43,2.44-6.46,8.09-8.29,11Zm10.86-5.87c.54-.73,1.15-1.42,1.82-2.04h0c18.88-17.28,49.06-11.11,59.82,12.11,3.82,8.24,3.52,16.91,3.36,25.61,0,.09-.13,.18-.2,.27h-75.5c.25-5.51,.09-10.96,.88-16.26,.33-2.17,1.01-4.29,1.79-6.39,1.21-3.27,2.88-6.34,4.95-9.14l3.07-4.15Zm-39.69,66.12c0,20.34,0,40.68,0,61.02,0,2.52-.02,2.54-2.57,2.54-1.76,0-3.53-.08-5.29,.02-1.73,.11-2.2-.6-2.19-2.27,.05-14.52,.03-29.04,.03-43.56,0-5.88,0-11.76,0-17.63v-2.04h10.02v1.91Zm36.23,63.58c-1.88-.07-3.76-.03-5.63-.01-.92,0-1.39-.29-1.39-1.32,.03-9.56,.01-19.12,.01-28.81h8.63c0,6.74,0,13.31,0,19.88,0,2.88-.04,5.75,.02,8.63,.02,1.22-.42,1.68-1.64,1.64Zm66.59,.01c-1.76-.12-3.53-.05-5.29-.02-.94,.02-1.41-.33-1.41-1.33,.03-9.47,.03-18.94,.05-28.41,0-.11,.08-.21,.18-.48h8.3c.04,.55,.1,1.05,.1,1.56,0,8.88-.03,17.77,.04,26.65,.01,1.52-.38,2.14-1.97,2.03Zm15.12-43.01c.03,4.18-3.15,7.36-7.55,7.41-5.29,.06-10.58,.02-15.87,.02-9.17,0-18.34,0-27.51,0-14.35,0-28.69,.01-43.04,0-4.6,0-7.85-2.99-7.94-7.2-.08-3.78,2.57-6.85,6.4-7.41,.46-.07,.94-.09,1.4-.09,28.75,0,57.5,0,86.25,0,4.57,0,7.82,3.05,7.85,7.28Zm-88.65-12.72v-9.71h75.34v9.71h-75.34Zm112.95,55.71c-1.94-.04-3.88,0-5.82,0-2.4,0-2.43-.04-2.43-2.5,0-20.35,0-40.71,0-61.06v-1.86h10.02v2.19c0,12.04,0,39.4,0,54.46-.03,2.34-.05,4.68,.01,7.02,.04,1.32-.53,1.8-1.78,1.77Zm9.76-72.07c-.02,.43-.72,.94-1.21,1.19-.37,.19-.92,.04-1.39,.04-27.53,0-55.06,0-82.59,0s-55.06,0-82.59,0q-2.3,0-2.3-2.29c0-1.88-.04-3.77,.02-5.65,.16-4.91,3.92-8.92,8.82-9.44,.88-.09,1.76-.11,2.64-.11,49.06,0,98.12,0,147.18,.02,1.57,0,3.22,.08,4.69,.57,4.01,1.33,6.29,4.27,6.71,8.44,.24,2.39,.12,4.82,.02,7.23Z"/><path class="cls-6" d="M678.81,2.42c-3.8,6.03-4.88,13.06-4.9,20.18,0,3.28,0,6.56,0,10.01-2.89,0-5.58,0-8.27,0-8.41,.04-16.83-.12-25.23,.18-6.7,.24-12.45,5.53-13.42,12.18-.51,3.46-.42,7.04-.28,10.55,.11,2.86,2.67,5.01,5.57,5.15,.74,.04,1.49,0,2.39,0v2.3c0,20.53,0,41.06,0,61.59,0,4.38,2.5,6.88,6.88,6.94,2,.03,4.01-.1,6,.03,4.64,.3,7.83-2.45,7.79-7.73-.15-20.29-.06-40.59-.06-60.89v-2.15h18.55v9.7c-8.64,1.57-12.86,5.59-13.09,12.43-.1,2.92,.72,5.57,2.47,7.92,2.65,3.55,6.34,5.02,10.71,5.22v2.09c0,8.94,0,17.88,0,26.83,0,4.07,2.37,6.48,6.43,6.56,1.88,.04,3.76,.01,5.65,0,4.91-.01,7.13-2.21,7.13-7.1,0-8.77,0-17.53,0-26.3v-2.08h47.68c0,.78,0,1.48,0,2.17,0,8.82-.01,17.65,0,26.47,0,4.53,2.31,6.79,6.87,6.82,1.82,.01,3.65,.01,5.47,0,4.53-.03,6.87-2.34,6.87-6.83,0-8.94,0-17.88,0-26.83v-1.81c7.73-.74,12.58-5.08,13.12-11.47,.27-3.11-.4-5.96-2.21-8.51-2.64-3.72-6.4-5.32-10.79-5.47v-9.77h18.51v2.21c0,20.53,0,41.06,0,61.59,0,3.9,2.09,6.52,5.7,6.79,3.04,.22,6.12,.21,9.16,0,3.42-.23,5.66-2.8,5.73-6.23,.01-.6,.02-1.2,.02-1.8,.11-.38,.04-.88,0-1.35,0-1.35,0-2.7-.01-4.05,0-14.83,0-42.85,0-55.03v-2.33c3.93,.52,6.7-.84,8.06-4.53v-10.59c-.07-.09-.19-.16-.22-.26-2.37-8.66-7.52-12.63-16.45-12.64-9.47,0-18.94,0-28.41,0h-2.22c0-.97,.02-1.72,0-2.48-.14-4.64,.16-9.34-.5-13.91-4.26-29.94-37.38-46.21-63.69-31.32-3.14,1.78-6.17,3.94-8.74,6.51-2.43,2.44-6.46,8.09-8.29,11Zm10.86-5.87c.54-.73,1.15-1.42,1.82-2.04h0c18.88-17.28,49.06-11.11,59.82,12.11,3.82,8.24,3.52,16.91,3.36,25.61,0,.09-.13,.18-.2,.27h-75.5c.25-5.51,.09-10.96,.88-16.26,.33-2.17,1.01-4.29,1.79-6.39,1.21-3.27,2.88-6.34,4.95-9.14l3.07-4.15Zm-39.69,66.12c0,20.34,0,40.68,0,61.02,0,2.52-.02,2.54-2.57,2.54-1.76,0-3.53-.08-5.29,.02-1.73,.11-2.2-.6-2.19-2.27,.05-14.52,.03-29.04,.03-43.56,0-5.88,0-11.76,0-17.63v-2.04h10.02v1.91Zm36.23,63.58c-1.88-.07-3.76-.03-5.63-.01-.92,0-1.39-.29-1.39-1.32,.03-9.56,.01-19.12,.01-28.81h8.63c0,6.74,0,13.31,0,19.88,0,2.88-.04,5.75,.02,8.63,.02,1.22-.42,1.68-1.64,1.64Zm66.59,.01c-1.76-.12-3.53-.05-5.29-.02-.94,.02-1.41-.33-1.41-1.33,.03-9.47,.03-18.94,.05-28.41,0-.11,.08-.21,.18-.48h8.3c.04,.55,.1,1.05,.1,1.56,0,8.88-.03,17.77,.04,26.65,.01,1.52-.38,2.14-1.97,2.03Zm15.12-43.01c.03,4.18-3.15,7.36-7.55,7.41-5.29,.06-10.58,.02-15.87,.02-9.17,0-18.34,0-27.51,0-14.35,0-28.69,.01-43.04,0-4.6,0-7.85-2.99-7.94-7.2-.08-3.78,2.57-6.85,6.4-7.41,.46-.07,.94-.09,1.4-.09,28.75,0,57.5,0,86.25,0,4.57,0,7.82,3.05,7.85,7.28Zm-88.65-12.72v-9.71h75.34v9.71h-75.34Zm112.95,55.71c-1.94-.04-3.88,0-5.82,0-2.4,0-2.43-.04-2.43-2.5,0-20.35,0-40.71,0-61.06v-1.86h10.02v2.19c0,12.04,0,39.4,0,54.46-.03,2.34-.05,4.68,.01,7.02,.04,1.32-.53,1.8-1.78,1.77Zm9.76-72.07c-.02,.43-.72,.94-1.21,1.19-.37,.19-.92,.04-1.39,.04-27.53,0-55.06,0-82.59,0s-55.06,0-82.59,0q-2.3,0-2.3-2.29c0-1.88-.04-3.77,.02-5.65,.16-4.91,3.92-8.92,8.82-9.44,.88-.09,1.76-.11,2.64-.11,49.06,0,98.12,0,147.18,.02,1.57,0,3.22,.08,4.69,.57,4.01,1.33,6.29,4.27,6.71,8.44,.24,2.39,.12,4.82,.02,7.23Z"/><path class="cls-6" d="M1162.09,2.42c-3.8,6.03-4.88,13.06-4.9,20.18,0,3.28,0,6.56,0,10.01-2.89,0-5.58,0-8.27,0-8.41,.04-16.83-.12-25.23,.18-6.7,.24-12.45,5.53-13.42,12.18-.51,3.46-.42,7.04-.28,10.55,.11,2.86,2.67,5.01,5.57,5.15,.74,.04,1.49,0,2.39,0v2.3c0,20.53,0,41.06,0,61.59,0,4.38,2.5,6.88,6.88,6.94,2,.03,4.01-.1,6,.03,4.64,.3,7.83-2.45,7.79-7.73-.15-20.29-.06-40.59-.06-60.89v-2.15h18.55v9.7c-8.64,1.57-12.86,5.59-13.09,12.43-.1,2.92,.72,5.57,2.47,7.92,2.65,3.55,6.34,5.02,10.71,5.22v2.09c0,8.94,0,17.88,0,26.83,0,4.07,2.37,6.48,6.43,6.56,1.88,.04,3.76,.01,5.65,0,4.91-.01,7.13-2.21,7.13-7.1,0-8.77,0-17.53,0-26.3v-2.08h47.68c0,.78,0,1.48,0,2.17,0,8.82-.01,17.65,0,26.47,0,4.53,2.31,6.79,6.87,6.82,1.82,.01,3.65,.01,5.47,0,4.53-.03,6.87-2.34,6.87-6.83,0-8.94,0-17.88,0-26.83v-1.81c7.73-.74,12.58-5.08,13.12-11.47,.27-3.11-.4-5.96-2.21-8.51-2.64-3.72-6.4-5.32-10.79-5.47v-9.77h18.51v2.21c0,20.53,0,41.06,0,61.59,0,3.9,2.09,6.52,5.7,6.79,3.04,.22,6.12,.21,9.16,0,3.42-.23,5.66-2.8,5.73-6.23,.01-.6,.02-1.2,.02-1.8,.11-.38,.04-.88,0-1.35,0-1.35,0-2.7-.01-4.05,0-14.83,0-42.85,0-55.03v-2.33c3.93,.52,6.7-.84,8.06-4.53v-10.59c-.07-.09-.19-.16-.22-.26-2.37-8.66-7.52-12.63-16.45-12.64-9.47,0-18.94,0-28.41,0h-2.22c0-.97,.02-1.72,0-2.48-.14-4.64,.16-9.34-.5-13.91-4.26-29.94-37.38-46.21-63.69-31.32-3.14,1.78-6.17,3.94-8.74,6.51-2.43,2.44-6.46,8.09-8.29,11Zm10.86-5.87c.54-.73,1.15-1.42,1.82-2.04h0c18.88-17.28,49.06-11.11,59.82,12.11,3.82,8.24,3.52,16.91,3.36,25.61,0,.09-.13,.18-.2,.27h-75.5c.25-5.51,.09-10.96,.88-16.26,.33-2.17,1.01-4.29,1.79-6.39,1.21-3.27,2.88-6.34,4.95-9.14l3.07-4.15Zm-39.69,66.12c0,20.34,0,40.68,0,61.02,0,2.52-.02,2.54-2.57,2.54-1.76,0-3.53-.08-5.29,.02-1.73,.11-2.2-.6-2.19-2.27,.05-14.52,.03-29.04,.03-43.56,0-5.88,0-11.76,0-17.63v-2.04h10.02v1.91Zm36.23,63.58c-1.88-.07-3.76-.03-5.63-.01-.92,0-1.39-.29-1.39-1.32,.03-9.56,.01-19.12,.01-28.81h8.63c0,6.74,0,13.31,0,19.88,0,2.88-.04,5.75,.02,8.63,.02,1.22-.42,1.68-1.64,1.64Zm66.59,.01c-1.76-.12-3.53-.05-5.29-.02-.94,.02-1.41-.33-1.41-1.33,.03-9.47,.03-18.94,.05-28.41,0-.11,.08-.21,.18-.48h8.3c.04,.55,.1,1.05,.1,1.56,0,8.88-.03,17.77,.04,26.65,.01,1.52-.38,2.14-1.97,2.03Zm15.12-43.01c.03,4.18-3.15,7.36-7.55,7.41-5.29,.06-10.58,.02-15.87,.02-9.17,0-18.34,0-27.51,0-14.35,0-28.69,.01-43.04,0-4.6,0-7.85-2.99-7.94-7.2-.08-3.78,2.57-6.85,6.4-7.41,.46-.07,.94-.09,1.4-.09,28.75,0,57.5,0,86.25,0,4.57,0,7.82,3.05,7.85,7.28Zm-88.65-12.72v-9.71h75.34v9.71h-75.34Zm112.95,55.71c-1.94-.04-3.88,0-5.82,0-2.4,0-2.43-.04-2.43-2.5,0-20.35,0-40.71,0-61.06v-1.86h10.02v2.19c0,12.04,0,39.4,0,54.46-.03,2.34-.05,4.68,.01,7.02,.04,1.32-.53,1.8-1.78,1.77Zm9.76-72.07c-.02,.43-.72,.94-1.21,1.19-.37,.19-.92,.04-1.39,.04-27.53,0-55.06,0-82.59,0s-55.06,0-82.59,0q-2.3,0-2.3-2.29c0-1.88-.04-3.77,.02-5.65,.16-4.91,3.92-8.92,8.82-9.44,.88-.09,1.76-.11,2.64-.11,49.06,0,98.12,0,147.18,.02,1.57,0,3.22,.08,4.69,.57,4.01,1.33,6.29,4.27,6.71,8.44,.24,2.39,.12,4.82,.02,7.23Z"/><path class="cls-6" d="M1645.37,2.42c-3.8,6.03-4.88,13.06-4.9,20.18,0,3.28,0,6.56,0,10.01-2.89,0-5.58,0-8.27,0-8.41,.04-16.83-.12-25.23,.18-6.7,.24-12.45,5.53-13.42,12.18-.51,3.46-.42,7.04-.28,10.55,.11,2.86,2.67,5.01,5.57,5.15,.74,.04,1.49,0,2.39,0v2.3c0,20.53,0,41.06,0,61.59,0,4.38,2.5,6.88,6.88,6.94,2,.03,4.01-.1,6,.03,4.64,.3,7.83-2.45,7.79-7.73-.15-20.29-.06-40.59-.06-60.89v-2.15h18.55v9.7c-8.64,1.57-12.86,5.59-13.09,12.43-.1,2.92,.72,5.57,2.47,7.92,2.65,3.55,6.34,5.02,10.71,5.22v2.09c0,8.94,0,17.88,0,26.83,0,4.07,2.37,6.48,6.43,6.56,1.88,.04,3.76,.01,5.65,0,4.91-.01,7.13-2.21,7.13-7.1,0-8.77,0-17.53,0-26.3v-2.08h47.68c0,.78,0,1.48,0,2.17,0,8.82-.01,17.65,0,26.47,0,4.53,2.31,6.79,6.87,6.82,1.82,.01,3.65,.01,5.47,0,4.53-.03,6.87-2.34,6.87-6.83,0-8.94,0-17.88,0-26.83v-1.81c7.73-.74,12.58-5.08,13.12-11.47,.27-3.11-.4-5.96-2.21-8.51-2.64-3.72-6.4-5.32-10.79-5.47v-9.77h18.51v2.21c0,20.53,0,41.06,0,61.59,0,3.9,2.09,6.52,5.7,6.79,3.04,.22,6.12,.21,9.16,0,3.42-.23,5.66-2.8,5.73-6.23,.01-.6,.02-1.2,.02-1.8,.11-.38,.04-.88,0-1.35,0-1.35,0-2.7-.01-4.05,0-14.83,0-42.85,0-55.03v-2.33c3.93,.52,6.7-.84,8.06-4.53v-10.59c-.07-.09-.19-.16-.22-.26-2.37-8.66-7.52-12.63-16.45-12.64-9.47,0-18.94,0-28.41,0h-2.22c0-.97,.02-1.72,0-2.48-.14-4.64,.16-9.34-.5-13.91-4.26-29.94-37.38-46.21-63.69-31.32-3.14,1.78-6.17,3.94-8.74,6.51-2.43,2.44-6.46,8.09-8.29,11Zm10.86-5.87c.54-.73,1.15-1.42,1.82-2.04h0c18.88-17.28,49.06-11.11,59.82,12.11,3.82,8.24,3.52,16.91,3.36,25.61,0,.09-.13,.18-.2,.27h-75.5c.25-5.51,.09-10.96,.88-16.26,.33-2.17,1.01-4.29,1.79-6.39,1.21-3.27,2.88-6.34,4.95-9.14l3.07-4.15Zm-39.69,66.12c0,20.34,0,40.68,0,61.02,0,2.52-.02,2.54-2.57,2.54-1.76,0-3.53-.08-5.29,.02-1.73,.11-2.2-.6-2.19-2.27,.05-14.52,.03-29.04,.03-43.56,0-5.88,0-11.76,0-17.63v-2.04h10.02v1.91Zm36.23,63.58c-1.88-.07-3.76-.03-5.63-.01-.92,0-1.39-.29-1.39-1.32,.03-9.56,.01-19.12,.01-28.81h8.63c0,6.74,0,13.31,0,19.88,0,2.88-.04,5.75,.02,8.63,.02,1.22-.42,1.68-1.64,1.64Zm66.59,.01c-1.76-.12-3.53-.05-5.29-.02-.94,.02-1.41-.33-1.41-1.33,.03-9.47,.03-18.94,.05-28.41,0-.11,.08-.21,.18-.48h8.3c.04,.55,.1,1.05,.1,1.56,0,8.88-.03,17.77,.04,26.65,.01,1.52-.38,2.14-1.97,2.03Zm15.12-43.01c.03,4.18-3.15,7.36-7.55,7.41-5.29,.06-10.58,.02-15.87,.02-9.17,0-18.34,0-27.51,0-14.35,0-28.69,.01-43.04,0-4.6,0-7.85-2.99-7.94-7.2-.08-3.78,2.57-6.85,6.4-7.41,.46-.07,.94-.09,1.4-.09,28.75,0,57.5,0,86.25,0,4.57,0,7.82,3.05,7.85,7.28Zm-88.65-12.72v-9.71h75.34v9.71h-75.34Zm112.95,55.71c-1.94-.04-3.88,0-5.82,0-2.4,0-2.43-.04-2.43-2.5,0-20.35,0-40.71,0-61.06v-1.86h10.02v2.19c0,12.04,0,39.4,0,54.46-.03,2.34-.05,4.68,.01,7.02,.04,1.32-.53,1.8-1.78,1.77Zm9.76-72.07c-.02,.43-.72,.94-1.21,1.19-.37,.19-.92,.04-1.39,.04-27.53,0-55.06,0-82.59,0s-55.06,0-82.59,0q-2.3,0-2.3-2.29c0-1.88-.04-3.77,.02-5.65,.16-4.91,3.92-8.92,8.82-9.44,.88-.09,1.76-.11,2.64-.11,49.06,0,98.12,0,147.18,.02,1.57,0,3.22,.08,4.69,.57,4.01,1.33,6.29,4.27,6.71,8.44,.24,2.39,.12,4.82,.02,7.23Z"/><path class="cls-6" d="M195.43,479.13c-3.8,6.03-4.88,13.06-4.9,20.18,0,3.28,0,6.56,0,10.01-2.89,0-5.58,0-8.27,0-8.41,.04-16.83-.12-25.23,.18-6.7,.24-12.45,5.53-13.42,12.18-.51,3.46-.42,7.04-.28,10.55,.11,2.86,2.67,5.01,5.57,5.15,.74,.04,1.49,0,2.39,0v2.3c0,20.53,0,41.06,0,61.59,0,4.38,2.5,6.88,6.88,6.94,2,.03,4.01-.1,6,.03,4.64,.3,7.83-2.45,7.79-7.73-.15-20.29-.06-40.59-.06-60.89v-2.15h18.55v9.7c-8.64,1.57-12.86,5.59-13.09,12.43-.1,2.92,.72,5.57,2.47,7.92,2.65,3.55,6.34,5.02,10.71,5.22v2.09c0,8.94,0,17.88,0,26.83,0,4.07,2.37,6.48,6.43,6.56,1.88,.04,3.76,.01,5.65,0,4.91-.01,7.13-2.21,7.13-7.1,0-8.77,0-17.53,0-26.3v-2.08h47.68c0,.78,0,1.48,0,2.17,0,8.82-.01,17.65,0,26.47,0,4.53,2.31,6.79,6.87,6.82,1.82,.01,3.65,.01,5.47,0,4.53-.03,6.87-2.34,6.87-6.83,0-8.94,0-17.88,0-26.83v-1.81c7.73-.74,12.58-5.08,13.12-11.47,.27-3.11-.4-5.96-2.21-8.51-2.64-3.72-6.4-5.32-10.79-5.47v-9.77h18.51v2.21c0,20.53,0,41.06,0,61.59,0,3.9,2.09,6.52,5.7,6.79,3.04,.22,6.12,.21,9.16,0,3.42-.23,5.66-2.8,5.73-6.23,.01-.6,.02-1.2,.02-1.8,.11-.38,.04-.88,0-1.35,0-1.35,0-2.7-.01-4.05,0-14.83,0-42.85,0-55.03v-2.33c3.93,.52,6.7-.84,8.06-4.53v-10.59c-.07-.09-.19-.16-.22-.26-2.37-8.66-7.52-12.63-16.45-12.64-9.47,0-18.94,0-28.41,0h-2.22c0-.97,.02-1.72,0-2.48-.14-4.64,.16-9.34-.5-13.91-4.26-29.94-37.38-46.21-63.69-31.32-3.14,1.78-6.17,3.94-8.74,6.51-2.43,2.44-6.46,8.09-8.29,11Zm10.86-5.87c.54-.73,1.15-1.42,1.82-2.04h0c18.88-17.28,49.06-11.11,59.82,12.11,3.82,8.24,3.52,16.91,3.36,25.61,0,.09-.13,.18-.2,.27h-75.5c.25-5.51,.09-10.96,.88-16.26,.33-2.17,1.01-4.29,1.79-6.39,1.21-3.27,2.88-6.34,4.95-9.14l3.07-4.15Zm-39.69,66.12c0,20.34,0,40.68,0,61.02,0,2.52-.02,2.54-2.57,2.54-1.76,0-3.53-.08-5.29,.02-1.73,.11-2.2-.6-2.19-2.27,.05-14.52,.03-29.04,.03-43.56,0-5.88,0-11.76,0-17.63v-2.04h10.02v1.91Zm36.23,63.58c-1.88-.07-3.76-.03-5.63-.01-.92,0-1.39-.29-1.39-1.32,.03-9.56,.01-19.12,.01-28.81h8.63c0,6.74,0,13.31,0,19.88,0,2.88-.04,5.75,.02,8.63,.02,1.22-.42,1.68-1.64,1.64Zm66.59,.01c-1.76-.12-3.53-.05-5.29-.02-.94,.02-1.41-.33-1.41-1.33,.03-9.47,.03-18.94,.05-28.41,0-.11,.08-.21,.18-.48h8.3c.04,.55,.1,1.05,.1,1.56,0,8.88-.03,17.77,.04,26.65,.01,1.52-.38,2.14-1.97,2.03Zm15.12-43.01c.03,4.18-3.15,7.36-7.55,7.41-5.29,.06-10.58,.02-15.87,.02-9.17,0-18.34,0-27.51,0-14.35,0-28.69,.01-43.04,0-4.6,0-7.85-2.99-7.94-7.2-.08-3.78,2.57-6.85,6.4-7.41,.46-.07,.94-.09,1.4-.09,28.75,0,57.5,0,86.25,0,4.57,0,7.82,3.05,7.85,7.28Zm-88.65-12.72v-9.71h75.34v9.71h-75.34Zm112.95,55.71c-1.94-.04-3.88,0-5.82,0-2.4,0-2.43-.04-2.43-2.5,0-20.35,0-40.71,0-61.06v-1.86h10.02v2.19c0,12.04,0,39.4,0,54.46-.03,2.34-.05,4.68,.01,7.02,.04,1.32-.53,1.8-1.78,1.77Zm9.76-72.07c-.02,.43-.72,.94-1.21,1.19-.37,.19-.92,.04-1.39,.04-27.53,0-55.06,0-82.59,0s-55.06,0-82.59,0q-2.3,0-2.3-2.29c0-1.88-.04-3.77,.02-5.65,.16-4.91,3.92-8.92,8.82-9.44,.88-.09,1.76-.11,2.64-.11,49.06,0,98.12,0,147.18,.02,1.57,0,3.22,.08,4.69,.57,4.01,1.33,6.29,4.27,6.71,8.44,.24,2.39,.12,4.82,.02,7.23Z"/><path class="cls-6" d="M678.71,479.13c-3.8,6.03-4.88,13.06-4.9,20.18,0,3.28,0,6.56,0,10.01-2.89,0-5.58,0-8.27,0-8.41,.04-16.83-.12-25.23,.18-6.7,.24-12.45,5.53-13.42,12.18-.51,3.46-.42,7.04-.28,10.55,.11,2.86,2.67,5.01,5.57,5.15,.74,.04,1.49,0,2.39,0v2.3c0,20.53,0,41.06,0,61.59,0,4.38,2.5,6.88,6.88,6.94,2,.03,4.01-.1,6,.03,4.64,.3,7.83-2.45,7.79-7.73-.15-20.29-.06-40.59-.06-60.89v-2.15h18.55v9.7c-8.64,1.57-12.86,5.59-13.09,12.43-.1,2.92,.72,5.57,2.47,7.92,2.65,3.55,6.34,5.02,10.71,5.22v2.09c0,8.94,0,17.88,0,26.83,0,4.07,2.37,6.48,6.43,6.56,1.88,.04,3.76,.01,5.65,0,4.91-.01,7.13-2.21,7.13-7.1,0-8.77,0-17.53,0-26.3v-2.08h47.68c0,.78,0,1.48,0,2.17,0,8.82-.01,17.65,0,26.47,0,4.53,2.31,6.79,6.87,6.82,1.82,.01,3.65,.01,5.47,0,4.53-.03,6.87-2.34,6.87-6.83,0-8.94,0-17.88,0-26.83v-1.81c7.73-.74,12.58-5.08,13.12-11.47,.27-3.11-.4-5.96-2.21-8.51-2.64-3.72-6.4-5.32-10.79-5.47v-9.77h18.51v2.21c0,20.53,0,41.06,0,61.59,0,3.9,2.09,6.52,5.7,6.79,3.04,.22,6.12,.21,9.16,0,3.42-.23,5.66-2.8,5.73-6.23,.01-.6,.02-1.2,.02-1.8,.11-.38,.04-.88,0-1.35,0-1.35,0-2.7-.01-4.05,0-14.83,0-42.85,0-55.03v-2.33c3.93,.52,6.7-.84,8.06-4.53v-10.59c-.07-.09-.19-.16-.22-.26-2.37-8.66-7.52-12.63-16.45-12.64-9.47,0-18.94,0-28.41,0h-2.22c0-.97,.02-1.72,0-2.48-.14-4.64,.16-9.34-.5-13.91-4.26-29.94-37.38-46.21-63.69-31.32-3.14,1.78-6.17,3.94-8.74,6.51-2.43,2.44-6.46,8.09-8.29,11Zm10.86-5.87c.54-.73,1.15-1.42,1.82-2.04h0c18.88-17.28,49.06-11.11,59.82,12.11,3.82,8.24,3.52,16.91,3.36,25.61,0,.09-.13,.18-.2,.27h-75.5c.25-5.51,.09-10.96,.88-16.26,.33-2.17,1.01-4.29,1.79-6.39,1.21-3.27,2.88-6.34,4.95-9.14l3.07-4.15Zm-39.69,66.12c0,20.34,0,40.68,0,61.02,0,2.52-.02,2.54-2.57,2.54-1.76,0-3.53-.08-5.29,.02-1.73,.11-2.2-.6-2.19-2.27,.05-14.52,.03-29.04,.03-43.56,0-5.88,0-11.76,0-17.63v-2.04h10.02v1.91Zm36.23,63.58c-1.88-.07-3.76-.03-5.63-.01-.92,0-1.39-.29-1.39-1.32,.03-9.56,.01-19.12,.01-28.81h8.63c0,6.74,0,13.31,0,19.88,0,2.88-.04,5.75,.02,8.63,.02,1.22-.42,1.68-1.64,1.64Zm66.59,.01c-1.76-.12-3.53-.05-5.29-.02-.94,.02-1.41-.33-1.41-1.33,.03-9.47,.03-18.94,.05-28.41,0-.11,.08-.21,.18-.48h8.3c.04,.55,.1,1.05,.1,1.56,0,8.88-.03,17.77,.04,26.65,.01,1.52-.38,2.14-1.97,2.03Zm15.12-43.01c.03,4.18-3.15,7.36-7.55,7.41-5.29,.06-10.58,.02-15.87,.02-9.17,0-18.34,0-27.51,0-14.35,0-28.69,.01-43.04,0-4.6,0-7.85-2.99-7.94-7.2-.08-3.78,2.57-6.85,6.4-7.41,.46-.07,.94-.09,1.4-.09,28.75,0,57.5,0,86.25,0,4.57,0,7.82,3.05,7.85,7.28Zm-88.65-12.72v-9.71h75.34v9.71h-75.34Zm112.95,55.71c-1.94-.04-3.88,0-5.82,0-2.4,0-2.43-.04-2.43-2.5,0-20.35,0-40.71,0-61.06v-1.86h10.02v2.19c0,12.04,0,39.4,0,54.46-.03,2.34-.05,4.68,.01,7.02,.04,1.32-.53,1.8-1.78,1.77Zm9.76-72.07c-.02,.43-.72,.94-1.21,1.19-.37,.19-.92,.04-1.39,.04-27.53,0-55.06,0-82.59,0s-55.06,0-82.59,0q-2.3,0-2.3-2.29c0-1.88-.04-3.77,.02-5.65,.16-4.91,3.92-8.92,8.82-9.44,.88-.09,1.76-.11,2.64-.11,49.06,0,98.12,0,147.18,.02,1.57,0,3.22,.08,4.69,.57,4.01,1.33,6.29,4.27,6.71,8.44,.24,2.39,.12,4.82,.02,7.23Z"/><path class="cls-6" d="M1161.99,479.13c-3.8,6.03-4.88,13.06-4.9,20.18,0,3.28,0,6.56,0,10.01-2.89,0-5.58,0-8.27,0-8.41,.04-16.83-.12-25.23,.18-6.7,.24-12.45,5.53-13.42,12.18-.51,3.46-.42,7.04-.28,10.55,.11,2.86,2.67,5.01,5.57,5.15,.74,.04,1.49,0,2.39,0v2.3c0,20.53,0,41.06,0,61.59,0,4.38,2.5,6.88,6.88,6.94,2,.03,4.01-.1,6,.03,4.64,.3,7.83-2.45,7.79-7.73-.15-20.29-.06-40.59-.06-60.89v-2.15h18.55v9.7c-8.64,1.57-12.86,5.59-13.09,12.43-.1,2.92,.72,5.57,2.47,7.92,2.65,3.55,6.34,5.02,10.71,5.22v2.09c0,8.94,0,17.88,0,26.83,0,4.07,2.37,6.48,6.43,6.56,1.88,.04,3.76,.01,5.65,0,4.91-.01,7.13-2.21,7.13-7.1,0-8.77,0-17.53,0-26.3v-2.08h47.68c0,.78,0,1.48,0,2.17,0,8.82-.01,17.65,0,26.47,0,4.53,2.31,6.79,6.87,6.82,1.82,.01,3.65,.01,5.47,0,4.53-.03,6.87-2.34,6.87-6.83,0-8.94,0-17.88,0-26.83v-1.81c7.73-.74,12.58-5.08,13.12-11.47,.27-3.11-.4-5.96-2.21-8.51-2.64-3.72-6.4-5.32-10.79-5.47v-9.77h18.51v2.21c0,20.53,0,41.06,0,61.59,0,3.9,2.09,6.52,5.7,6.79,3.04,.22,6.12,.21,9.16,0,3.42-.23,5.66-2.8,5.73-6.23,.01-.6,.02-1.2,.02-1.8,.11-.38,.04-.88,0-1.35,0-1.35,0-2.7-.01-4.05,0-14.83,0-42.85,0-55.03v-2.33c3.93,.52,6.7-.84,8.06-4.53v-10.59c-.07-.09-.19-.16-.22-.26-2.37-8.66-7.52-12.63-16.45-12.64-9.47,0-18.94,0-28.41,0h-2.22c0-.97,.02-1.72,0-2.48-.14-4.64,.16-9.34-.5-13.91-4.26-29.94-37.38-46.21-63.69-31.32-3.14,1.78-6.17,3.94-8.74,6.51-2.43,2.44-6.46,8.09-8.29,11Zm10.86-5.87c.54-.73,1.15-1.42,1.82-2.04h0c18.88-17.28,49.06-11.11,59.82,12.11,3.82,8.24,3.52,16.91,3.36,25.61,0,.09-.13,.18-.2,.27h-75.5c.25-5.51,.09-10.96,.88-16.26,.33-2.17,1.01-4.29,1.79-6.39,1.21-3.27,2.88-6.34,4.95-9.14l3.07-4.15Zm-39.69,66.12c0,20.34,0,40.68,0,61.02,0,2.52-.02,2.54-2.57,2.54-1.76,0-3.53-.08-5.29,.02-1.73,.11-2.2-.6-2.19-2.27,.05-14.52,.03-29.04,.03-43.56,0-5.88,0-11.76,0-17.63v-2.04h10.02v1.91Zm36.23,63.58c-1.88-.07-3.76-.03-5.63-.01-.92,0-1.39-.29-1.39-1.32,.03-9.56,.01-19.12,.01-28.81h8.63c0,6.74,0,13.31,0,19.88,0,2.88-.04,5.75,.02,8.63,.02,1.22-.42,1.68-1.64,1.64Zm66.59,.01c-1.76-.12-3.53-.05-5.29-.02-.94,.02-1.41-.33-1.41-1.33,.03-9.47,.03-18.94,.05-28.41,0-.11,.08-.21,.18-.48h8.3c.04,.55,.1,1.05,.1,1.56,0,8.88-.03,17.77,.04,26.65,.01,1.52-.38,2.14-1.97,2.03Zm15.12-43.01c.03,4.18-3.15,7.36-7.55,7.41-5.29,.06-10.58,.02-15.87,.02-9.17,0-18.34,0-27.51,0-14.35,0-28.69,.01-43.04,0-4.6,0-7.85-2.99-7.94-7.2-.08-3.78,2.57-6.85,6.4-7.41,.46-.07,.94-.09,1.4-.09,28.75,0,57.5,0,86.25,0,4.57,0,7.82,3.05,7.85,7.28Zm-88.65-12.72v-9.71h75.34v9.71h-75.34Zm112.95,55.71c-1.94-.04-3.88,0-5.82,0-2.4,0-2.43-.04-2.43-2.5,0-20.35,0-40.71,0-61.06v-1.86h10.02v2.19c0,12.04,0,39.4,0,54.46-.03,2.34-.05,4.68,.01,7.02,.04,1.32-.53,1.8-1.78,1.77Zm9.76-72.07c-.02,.43-.72,.94-1.21,1.19-.37,.19-.92,.04-1.39,.04-27.53,0-55.06,0-82.59,0s-55.06,0-82.59,0q-2.3,0-2.3-2.29c0-1.88-.04-3.77,.02-5.65,.16-4.91,3.92-8.92,8.82-9.44,.88-.09,1.76-.11,2.64-.11,49.06,0,98.12,0,147.18,.02,1.57,0,3.22,.08,4.69,.57,4.01,1.33,6.29,4.27,6.71,8.44,.24,2.39,.12,4.82,.02,7.23Z"/><path class="cls-6" d="M1645.27,479.13c-3.8,6.03-4.88,13.06-4.9,20.18,0,3.28,0,6.56,0,10.01-2.89,0-5.58,0-8.27,0-8.41,.04-16.83-.12-25.23,.18-6.7,.24-12.45,5.53-13.42,12.18-.51,3.46-.42,7.04-.28,10.55,.11,2.86,2.67,5.01,5.57,5.15,.74,.04,1.49,0,2.39,0v2.3c0,20.53,0,41.06,0,61.59,0,4.38,2.5,6.88,6.88,6.94,2,.03,4.01-.1,6,.03,4.64,.3,7.83-2.45,7.79-7.73-.15-20.29-.06-40.59-.06-60.89v-2.15h18.55v9.7c-8.64,1.57-12.86,5.59-13.09,12.43-.1,2.92,.72,5.57,2.47,7.92,2.65,3.55,6.34,5.02,10.71,5.22v2.09c0,8.94,0,17.88,0,26.83,0,4.07,2.37,6.48,6.43,6.56,1.88,.04,3.76,.01,5.65,0,4.91-.01,7.13-2.21,7.13-7.1,0-8.77,0-17.53,0-26.3v-2.08h47.68c0,.78,0,1.48,0,2.17,0,8.82-.01,17.65,0,26.47,0,4.53,2.31,6.79,6.87,6.82,1.82,.01,3.65,.01,5.47,0,4.53-.03,6.87-2.34,6.87-6.83,0-8.94,0-17.88,0-26.83v-1.81c7.73-.74,12.58-5.08,13.12-11.47,.27-3.11-.4-5.96-2.21-8.51-2.64-3.72-6.4-5.32-10.79-5.47v-9.77h18.51v2.21c0,20.53,0,41.06,0,61.59,0,3.9,2.09,6.52,5.7,6.79,3.04,.22,6.12,.21,9.16,0,3.42-.23,5.66-2.8,5.73-6.23,.01-.6,.02-1.2,.02-1.8,.11-.38,.04-.88,0-1.35,0-1.35,0-2.7-.01-4.05,0-14.83,0-42.85,0-55.03v-2.33c3.93,.52,6.7-.84,8.06-4.53v-10.59c-.07-.09-.19-.16-.22-.26-2.37-8.66-7.52-12.63-16.45-12.64-9.47,0-18.94,0-28.41,0h-2.22c0-.97,.02-1.72,0-2.48-.14-4.64,.16-9.34-.5-13.91-4.26-29.94-37.38-46.21-63.69-31.32-3.14,1.78-6.17,3.94-8.74,6.51-2.43,2.44-6.46,8.09-8.29,11Zm10.86-5.87c.54-.73,1.15-1.42,1.82-2.04h0c18.88-17.28,49.06-11.11,59.82,12.11,3.82,8.24,3.52,16.91,3.36,25.61,0,.09-.13,.18-.2,.27h-75.5c.25-5.51,.09-10.96,.88-16.26,.33-2.17,1.01-4.29,1.79-6.39,1.21-3.27,2.88-6.34,4.95-9.14l3.07-4.15Zm-39.69,66.12c0,20.34,0,40.68,0,61.02,0,2.52-.02,2.54-2.57,2.54-1.76,0-3.53-.08-5.29,.02-1.73,.11-2.2-.6-2.19-2.27,.05-14.52,.03-29.04,.03-43.56,0-5.88,0-11.76,0-17.63v-2.04h10.02v1.91Zm36.23,63.58c-1.88-.07-3.76-.03-5.63-.01-.92,0-1.39-.29-1.39-1.32,.03-9.56,.01-19.12,.01-28.81h8.63c0,6.74,0,13.31,0,19.88,0,2.88-.04,5.75,.02,8.63,.02,1.22-.42,1.68-1.64,1.64Zm66.59,.01c-1.76-.12-3.53-.05-5.29-.02-.94,.02-1.41-.33-1.41-1.33,.03-9.47,.03-18.94,.05-28.41,0-.11,.08-.21,.18-.48h8.3c.04,.55,.1,1.05,.1,1.56,0,8.88-.03,17.77,.04,26.65,.01,1.52-.38,2.14-1.97,2.03Zm15.12-43.01c.03,4.18-3.15,7.36-7.55,7.41-5.29,.06-10.58,.02-15.87,.02-9.17,0-18.34,0-27.51,0-14.35,0-28.69,.01-43.04,0-4.6,0-7.85-2.99-7.94-7.2-.08-3.78,2.57-6.85,6.4-7.41,.46-.07,.94-.09,1.4-.09,28.75,0,57.5,0,86.25,0,4.57,0,7.82,3.05,7.85,7.28Zm-88.65-12.72v-9.71h75.34v9.71h-75.34Zm112.95,55.71c-1.94-.04-3.88,0-5.82,0-2.4,0-2.43-.04-2.43-2.5,0-20.35,0-40.71,0-61.06v-1.86h10.02v2.19c0,12.04,0,39.4,0,54.46-.03,2.34-.05,4.68,.01,7.02,.04,1.32-.53,1.8-1.78,1.77Zm9.76-72.07c-.02,.43-.72,.94-1.21,1.19-.37,.19-.92,.04-1.39,.04-27.53,0-55.06,0-82.59,0s-55.06,0-82.59,0q-2.3,0-2.3-2.29c0-1.88-.04-3.77,.02-5.65,.16-4.91,3.92-8.92,8.82-9.44,.88-.09,1.76-.11,2.64-.11,49.06,0,98.12,0,147.18,.02,1.57,0,3.22,.08,4.69,.57,4.01,1.33,6.29,4.27,6.71,8.44,.24,2.39,.12,4.82,.02,7.23Z"/><path class="cls-6" d="M195.33,950.85c-3.8,6.03-4.88,13.06-4.9,20.18,0,3.28,0,6.56,0,10.01-2.89,0-5.58,0-8.27,0-8.41,.04-16.83-.12-25.23,.18-6.7,.24-12.45,5.53-13.42,12.18-.51,3.46-.42,7.04-.28,10.55,.11,2.86,2.67,5.01,5.57,5.15,.74,.04,1.49,0,2.39,0v2.3c0,20.53,0,41.06,0,61.59,0,4.38,2.5,6.88,6.88,6.94,2,.03,4.01-.1,6,.03,4.64,.3,7.83-2.45,7.79-7.73-.15-20.29-.06-40.59-.06-60.89v-2.15h18.55v9.7c-8.64,1.57-12.86,5.59-13.09,12.43-.1,2.92,.72,5.57,2.47,7.92,2.65,3.55,6.34,5.02,10.71,5.22v2.09c0,8.94,0,17.88,0,26.83,0,4.07,2.37,6.48,6.43,6.56,1.88,.04,3.76,.01,5.65,0,4.91-.01,7.13-2.21,7.13-7.1,0-8.77,0-17.53,0-26.3v-2.08h47.68c0,.78,0,1.48,0,2.17,0,8.82-.01,17.65,0,26.47,0,4.53,2.31,6.79,6.87,6.82,1.82,.01,3.65,.01,5.47,0,4.53-.03,6.87-2.34,6.87-6.83,0-8.94,0-17.88,0-26.83v-1.81c7.73-.74,12.58-5.08,13.12-11.47,.27-3.11-.4-5.96-2.21-8.51-2.64-3.72-6.4-5.32-10.79-5.47v-9.77h18.51v2.21c0,20.53,0,41.06,0,61.59,0,3.9,2.09,6.52,5.7,6.79,3.04,.22,6.12,.21,9.16,0,3.42-.23,5.66-2.8,5.73-6.23,.01-.6,.02-1.2,.02-1.8,.11-.38,.04-.88,0-1.35,0-1.35,0-2.7-.01-4.05,0-14.83,0-42.85,0-55.03v-2.33c3.93,.52,6.7-.84,8.06-4.53v-10.59c-.07-.09-.19-.16-.22-.26-2.37-8.66-7.52-12.63-16.45-12.64-9.47,0-18.94,0-28.41,0h-2.22c0-.97,.02-1.72,0-2.48-.14-4.64,.16-9.34-.5-13.91-4.26-29.94-37.38-46.21-63.69-31.32-3.14,1.78-6.17,3.94-8.74,6.51-2.43,2.44-6.46,8.09-8.29,11Zm10.86-5.87c.54-.73,1.15-1.42,1.82-2.04h0c18.88-17.28,49.06-11.11,59.82,12.11,3.82,8.24,3.52,16.91,3.36,25.61,0,.09-.13,.18-.2,.27h-75.5c.25-5.51,.09-10.96,.88-16.26,.33-2.17,1.01-4.29,1.79-6.39,1.21-3.27,2.88-6.34,4.95-9.14l3.07-4.15Zm-39.69,66.12c0,20.34,0,40.68,0,61.02,0,2.52-.02,2.54-2.57,2.54-1.76,0-3.53-.08-5.29,.02-1.73,.11-2.2-.6-2.19-2.27,.05-14.52,.03-29.04,.03-43.56,0-5.88,0-11.76,0-17.63v-2.04h10.02v1.91Zm36.23,63.58c-1.88-.07-3.76-.03-5.63-.01-.92,0-1.39-.29-1.39-1.32,.03-9.56,.01-19.12,.01-28.81h8.63c0,6.74,0,13.31,0,19.88,0,2.88-.04,5.75,.02,8.63,.02,1.22-.42,1.68-1.64,1.64Zm66.59,.01c-1.76-.12-3.53-.05-5.29-.02-.94,.02-1.41-.33-1.41-1.33,.03-9.47,.03-18.94,.05-28.41,0-.11,.08-.21,.18-.48h8.3c.04,.55,.1,1.05,.1,1.56,0,8.88-.03,17.77,.04,26.65,.01,1.52-.38,2.14-1.97,2.03Zm15.12-43.01c.03,4.18-3.15,7.36-7.55,7.41-5.29,.06-10.58,.02-15.87,.02-9.17,0-18.34,0-27.51,0-14.35,0-28.69,.01-43.04,0-4.6,0-7.85-2.99-7.94-7.2-.08-3.78,2.57-6.85,6.4-7.41,.46-.07,.94-.09,1.4-.09,28.75,0,57.5,0,86.25,0,4.57,0,7.82,3.05,7.85,7.28Zm-88.65-12.72v-9.71h75.34v9.71h-75.34Zm112.95,55.71c-1.94-.04-3.88,0-5.82,0-2.4,0-2.43-.04-2.43-2.5,0-20.35,0-40.71,0-61.06v-1.86h10.02v2.19c0,12.04,0,39.4,0,54.46-.03,2.34-.05,4.68,.01,7.02,.04,1.32-.53,1.8-1.78,1.77Zm9.76-72.07c-.02,.43-.72,.94-1.21,1.19-.37,.19-.92,.04-1.39,.04-27.53,0-55.06,0-82.59,0s-55.06,0-82.59,0q-2.3,0-2.3-2.29c0-1.88-.04-3.77,.02-5.65,.16-4.91,3.92-8.92,8.82-9.44,.88-.09,1.76-.11,2.64-.11,49.06,0,98.12,0,147.18,.02,1.57,0,3.22,.08,4.69,.57,4.01,1.33,6.29,4.27,6.71,8.44,.24,2.39,.12,4.82,.02,7.23Z"/><path class="cls-6" d="M678.61,950.85c-3.8,6.03-4.88,13.06-4.9,20.18,0,3.28,0,6.56,0,10.01-2.89,0-5.58,0-8.27,0-8.41,.04-16.83-.12-25.23,.18-6.7,.24-12.45,5.53-13.42,12.18-.51,3.46-.42,7.04-.28,10.55,.11,2.86,2.67,5.01,5.57,5.15,.74,.04,1.49,0,2.39,0v2.3c0,20.53,0,41.06,0,61.59,0,4.38,2.5,6.88,6.88,6.94,2,.03,4.01-.1,6,.03,4.64,.3,7.83-2.45,7.79-7.73-.15-20.29-.06-40.59-.06-60.89v-2.15h18.55v9.7c-8.64,1.57-12.86,5.59-13.09,12.43-.1,2.92,.72,5.57,2.47,7.92,2.65,3.55,6.34,5.02,10.71,5.22v2.09c0,8.94,0,17.88,0,26.83,0,4.07,2.37,6.48,6.43,6.56,1.88,.04,3.76,.01,5.65,0,4.91-.01,7.13-2.21,7.13-7.1,0-8.77,0-17.53,0-26.3v-2.08h47.68c0,.78,0,1.48,0,2.17,0,8.82-.01,17.65,0,26.47,0,4.53,2.31,6.79,6.87,6.82,1.82,.01,3.65,.01,5.47,0,4.53-.03,6.87-2.34,6.87-6.83,0-8.94,0-17.88,0-26.83v-1.81c7.73-.74,12.58-5.08,13.12-11.47,.27-3.11-.4-5.96-2.21-8.51-2.64-3.72-6.4-5.32-10.79-5.47v-9.77h18.51v2.21c0,20.53,0,41.06,0,61.59,0,3.9,2.09,6.52,5.7,6.79,3.04,.22,6.12,.21,9.16,0,3.42-.23,5.66-2.8,5.73-6.23,.01-.6,.02-1.2,.02-1.8,.11-.38,.04-.88,0-1.35,0-1.35,0-2.7-.01-4.05,0-14.83,0-42.85,0-55.03v-2.33c3.93,.52,6.7-.84,8.06-4.53v-10.59c-.07-.09-.19-.16-.22-.26-2.37-8.66-7.52-12.63-16.45-12.64-9.47,0-18.94,0-28.41,0h-2.22c0-.97,.02-1.72,0-2.48-.14-4.64,.16-9.34-.5-13.91-4.26-29.94-37.38-46.21-63.69-31.32-3.14,1.78-6.17,3.94-8.74,6.51-2.43,2.44-6.46,8.09-8.29,11Zm10.86-5.87c.54-.73,1.15-1.42,1.82-2.04h0c18.88-17.28,49.06-11.11,59.82,12.11,3.82,8.24,3.52,16.91,3.36,25.61,0,.09-.13,.18-.2,.27h-75.5c.25-5.51,.09-10.96,.88-16.26,.33-2.17,1.01-4.29,1.79-6.39,1.21-3.27,2.88-6.34,4.95-9.14l3.07-4.15Zm-39.69,66.12c0,20.34,0,40.68,0,61.02,0,2.52-.02,2.54-2.57,2.54-1.76,0-3.53-.08-5.29,.02-1.73,.11-2.2-.6-2.19-2.27,.05-14.52,.03-29.04,.03-43.56,0-5.88,0-11.76,0-17.63v-2.04h10.02v1.91Zm36.23,63.58c-1.88-.07-3.76-.03-5.63-.01-.92,0-1.39-.29-1.39-1.32,.03-9.56,.01-19.12,.01-28.81h8.63c0,6.74,0,13.31,0,19.88,0,2.88-.04,5.75,.02,8.63,.02,1.22-.42,1.68-1.64,1.64Zm66.59,.01c-1.76-.12-3.53-.05-5.29-.02-.94,.02-1.41-.33-1.41-1.33,.03-9.47,.03-18.94,.05-28.41,0-.11,.08-.21,.18-.48h8.3c.04,.55,.1,1.05,.1,1.56,0,8.88-.03,17.77,.04,26.65,.01,1.52-.38,2.14-1.97,2.03Zm15.12-43.01c.03,4.18-3.15,7.36-7.55,7.41-5.29,.06-10.58,.02-15.87,.02-9.17,0-18.34,0-27.51,0-14.35,0-28.69,.01-43.04,0-4.6,0-7.85-2.99-7.94-7.2-.08-3.78,2.57-6.85,6.4-7.41,.46-.07,.94-.09,1.4-.09,28.75,0,57.5,0,86.25,0,4.57,0,7.82,3.05,7.85,7.28Zm-88.65-12.72v-9.71h75.34v9.71h-75.34Zm112.95,55.71c-1.94-.04-3.88,0-5.82,0-2.4,0-2.43-.04-2.43-2.5,0-20.35,0-40.71,0-61.06v-1.86h10.02v2.19c0,12.04,0,39.4,0,54.46-.03,2.34-.05,4.68,.01,7.02,.04,1.32-.53,1.8-1.78,1.77Zm9.76-72.07c-.02,.43-.72,.94-1.21,1.19-.37,.19-.92,.04-1.39,.04-27.53,0-55.06,0-82.59,0s-55.06,0-82.59,0q-2.3,0-2.3-2.29c0-1.88-.04-3.77,.02-5.65,.16-4.91,3.92-8.92,8.82-9.44,.88-.09,1.76-.11,2.64-.11,49.06,0,98.12,0,147.18,.02,1.57,0,3.22,.08,4.69,.57,4.01,1.33,6.29,4.27,6.71,8.44,.24,2.39,.12,4.82,.02,7.23Z"/><path class="cls-6" d="M1161.89,950.85c-3.8,6.03-4.88,13.06-4.9,20.18,0,3.28,0,6.56,0,10.01-2.89,0-5.58,0-8.27,0-8.41,.04-16.83-.12-25.23,.18-6.7,.24-12.45,5.53-13.42,12.18-.51,3.46-.42,7.04-.28,10.55,.11,2.86,2.67,5.01,5.57,5.15,.74,.04,1.49,0,2.39,0v2.3c0,20.53,0,41.06,0,61.59,0,4.38,2.5,6.88,6.88,6.94,2,.03,4.01-.1,6,.03,4.64,.3,7.83-2.45,7.79-7.73-.15-20.29-.06-40.59-.06-60.89v-2.15h18.55v9.7c-8.64,1.57-12.86,5.59-13.09,12.43-.1,2.92,.72,5.57,2.47,7.92,2.65,3.55,6.34,5.02,10.71,5.22v2.09c0,8.94,0,17.88,0,26.83,0,4.07,2.37,6.48,6.43,6.56,1.88,.04,3.76,.01,5.65,0,4.91-.01,7.13-2.21,7.13-7.1,0-8.77,0-17.53,0-26.3v-2.08h47.68c0,.78,0,1.48,0,2.17,0,8.82-.01,17.65,0,26.47,0,4.53,2.31,6.79,6.87,6.82,1.82,.01,3.65,.01,5.47,0,4.53-.03,6.87-2.34,6.87-6.83,0-8.94,0-17.88,0-26.83v-1.81c7.73-.74,12.58-5.08,13.12-11.47,.27-3.11-.4-5.96-2.21-8.51-2.64-3.72-6.4-5.32-10.79-5.47v-9.77h18.51v2.21c0,20.53,0,41.06,0,61.59,0,3.9,2.09,6.52,5.7,6.79,3.04,.22,6.12,.21,9.16,0,3.42-.23,5.66-2.8,5.73-6.23,.01-.6,.02-1.2,.02-1.8,.11-.38,.04-.88,0-1.35,0-1.35,0-2.7-.01-4.05,0-14.83,0-42.85,0-55.03v-2.33c3.93,.52,6.7-.84,8.06-4.53v-10.59c-.07-.09-.19-.16-.22-.26-2.37-8.66-7.52-12.63-16.45-12.64-9.47,0-18.94,0-28.41,0h-2.22c0-.97,.02-1.72,0-2.48-.14-4.64,.16-9.34-.5-13.91-4.26-29.94-37.38-46.21-63.69-31.32-3.14,1.78-6.17,3.94-8.74,6.51-2.43,2.44-6.46,8.09-8.29,11Zm10.86-5.87c.54-.73,1.15-1.42,1.82-2.04h0c18.88-17.28,49.06-11.11,59.82,12.11,3.82,8.24,3.52,16.91,3.36,25.61,0,.09-.13,.18-.2,.27h-75.5c.25-5.51,.09-10.96,.88-16.26,.33-2.17,1.01-4.29,1.79-6.39,1.21-3.27,2.88-6.34,4.95-9.14l3.07-4.15Zm-39.69,66.12c0,20.34,0,40.68,0,61.02,0,2.52-.02,2.54-2.57,2.54-1.76,0-3.53-.08-5.29,.02-1.73,.11-2.2-.6-2.19-2.27,.05-14.52,.03-29.04,.03-43.56,0-5.88,0-11.76,0-17.63v-2.04h10.02v1.91Zm36.23,63.58c-1.88-.07-3.76-.03-5.63-.01-.92,0-1.39-.29-1.39-1.32,.03-9.56,.01-19.12,.01-28.81h8.63c0,6.74,0,13.31,0,19.88,0,2.88-.04,5.75,.02,8.63,.02,1.22-.42,1.68-1.64,1.64Zm66.59,.01c-1.76-.12-3.53-.05-5.29-.02-.94,.02-1.41-.33-1.41-1.33,.03-9.47,.03-18.94,.05-28.41,0-.11,.08-.21,.18-.48h8.3c.04,.55,.1,1.05,.1,1.56,0,8.88-.03,17.77,.04,26.65,.01,1.52-.38,2.14-1.97,2.03Zm15.12-43.01c.03,4.18-3.15,7.36-7.55,7.41-5.29,.06-10.58,.02-15.87,.02-9.17,0-18.34,0-27.51,0-14.35,0-28.69,.01-43.04,0-4.6,0-7.85-2.99-7.94-7.2-.08-3.78,2.57-6.85,6.4-7.41,.46-.07,.94-.09,1.4-.09,28.75,0,57.5,0,86.25,0,4.57,0,7.82,3.05,7.85,7.28Zm-88.65-12.72v-9.71h75.34v9.71h-75.34Zm112.95,55.71c-1.94-.04-3.88,0-5.82,0-2.4,0-2.43-.04-2.43-2.5,0-20.35,0-40.71,0-61.06v-1.86h10.02v2.19c0,12.04,0,39.4,0,54.46-.03,2.34-.05,4.68,.01,7.02,.04,1.32-.53,1.8-1.78,1.77Zm9.76-72.07c-.02,.43-.72,.94-1.21,1.19-.37,.19-.92,.04-1.39,.04-27.53,0-55.06,0-82.59,0s-55.06,0-82.59,0q-2.3,0-2.3-2.29c0-1.88-.04-3.77,.02-5.65,.16-4.91,3.92-8.92,8.82-9.44,.88-.09,1.76-.11,2.64-.11,49.06,0,98.12,0,147.18,.02,1.57,0,3.22,.08,4.69,.57,4.01,1.33,6.29,4.27,6.71,8.44,.24,2.39,.12,4.82,.02,7.23Z"/><path class="cls-6" d="M1645.17,950.85c-3.8,6.03-4.88,13.06-4.9,20.18,0,3.28,0,6.56,0,10.01-2.89,0-5.58,0-8.27,0-8.41,.04-16.83-.12-25.23,.18-6.7,.24-12.45,5.53-13.42,12.18-.51,3.46-.42,7.04-.28,10.55,.11,2.86,2.67,5.01,5.57,5.15,.74,.04,1.49,0,2.39,0v2.3c0,20.53,0,41.06,0,61.59,0,4.38,2.5,6.88,6.88,6.94,2,.03,4.01-.1,6,.03,4.64,.3,7.83-2.45,7.79-7.73-.15-20.29-.06-40.59-.06-60.89v-2.15h18.55v9.7c-8.64,1.57-12.86,5.59-13.09,12.43-.1,2.92,.72,5.57,2.47,7.92,2.65,3.55,6.34,5.02,10.71,5.22v2.09c0,8.94,0,17.88,0,26.83,0,4.07,2.37,6.48,6.43,6.56,1.88,.04,3.76,.01,5.65,0,4.91-.01,7.13-2.21,7.13-7.1,0-8.77,0-17.53,0-26.3v-2.08h47.68c0,.78,0,1.48,0,2.17,0,8.82-.01,17.65,0,26.47,0,4.53,2.31,6.79,6.87,6.82,1.82,.01,3.65,.01,5.47,0,4.53-.03,6.87-2.34,6.87-6.83,0-8.94,0-17.88,0-26.83v-1.81c7.73-.74,12.58-5.08,13.12-11.47,.27-3.11-.4-5.96-2.21-8.51-2.64-3.72-6.4-5.32-10.79-5.47v-9.77h18.51v2.21c0,20.53,0,41.06,0,61.59,0,3.9,2.09,6.52,5.7,6.79,3.04,.22,6.12,.21,9.16,0,3.42-.23,5.66-2.8,5.73-6.23,.01-.6,.02-1.2,.02-1.8,.11-.38,.04-.88,0-1.35,0-1.35,0-2.7-.01-4.05,0-14.83,0-42.85,0-55.03v-2.33c3.93,.52,6.7-.84,8.06-4.53v-10.59c-.07-.09-.19-.16-.22-.26-2.37-8.66-7.52-12.63-16.45-12.64-9.47,0-18.94,0-28.41,0h-2.22c0-.97,.02-1.72,0-2.48-.14-4.64,.16-9.34-.5-13.91-4.26-29.94-37.38-46.21-63.69-31.32-3.14,1.78-6.17,3.94-8.74,6.51-2.43,2.44-6.46,8.09-8.29,11Zm10.86-5.87c.54-.73,1.15-1.42,1.82-2.04h0c18.88-17.28,49.06-11.11,59.82,12.11,3.82,8.24,3.52,16.91,3.36,25.61,0,.09-.13,.18-.2,.27h-75.5c.25-5.51,.09-10.96,.88-16.26,.33-2.17,1.01-4.29,1.79-6.39,1.21-3.27,2.88-6.34,4.95-9.14l3.07-4.15Zm-39.69,66.12c0,20.34,0,40.68,0,61.02,0,2.52-.02,2.54-2.57,2.54-1.76,0-3.53-.08-5.29,.02-1.73,.11-2.2-.6-2.19-2.27,.05-14.52,.03-29.04,.03-43.56,0-5.88,0-11.76,0-17.63v-2.04h10.02v1.91Zm36.23,63.58c-1.88-.07-3.76-.03-5.63-.01-.92,0-1.39-.29-1.39-1.32,.03-9.56,.01-19.12,.01-28.81h8.63c0,6.74,0,13.31,0,19.88,0,2.88-.04,5.75,.02,8.63,.02,1.22-.42,1.68-1.64,1.64Zm66.59,.01c-1.76-.12-3.53-.05-5.29-.02-.94,.02-1.41-.33-1.41-1.33,.03-9.47,.03-18.94,.05-28.41,0-.11,.08-.21,.18-.48h8.3c.04,.55,.1,1.05,.1,1.56,0,8.88-.03,17.77,.04,26.65,.01,1.52-.38,2.14-1.97,2.03Zm15.12-43.01c.03,4.18-3.15,7.36-7.55,7.41-5.29,.06-10.58,.02-15.87,.02-9.17,0-18.34,0-27.51,0-14.35,0-28.69,.01-43.04,0-4.6,0-7.85-2.99-7.94-7.2-.08-3.78,2.57-6.85,6.4-7.41,.46-.07,.94-.09,1.4-.09,28.75,0,57.5,0,86.25,0,4.57,0,7.82,3.05,7.85,7.28Zm-88.65-12.72v-9.71h75.34v9.71h-75.34Zm112.95,55.71c-1.94-.04-3.88,0-5.82,0-2.4,0-2.43-.04-2.43-2.5,0-20.35,0-40.71,0-61.06v-1.86h10.02v2.19c0,12.04,0,39.4,0,54.46-.03,2.34-.05,4.68,.01,7.02,.04,1.32-.53,1.8-1.78,1.77Zm9.76-72.07c-.02,.43-.72,.94-1.21,1.19-.37,.19-.92,.04-1.39,.04-27.53,0-55.06,0-82.59,0s-55.06,0-82.59,0q-2.3,0-2.3-2.29c0-1.88-.04-3.77,.02-5.65,.16-4.91,3.92-8.92,8.82-9.44,.88-.09,1.76-.11,2.64-.11,49.06,0,98.12,0,147.18,.02,1.57,0,3.22,.08,4.69,.57,4.01,1.33,6.29,4.27,6.71,8.44,.24,2.39,.12,4.82,.02,7.23Z"/></g></g></g></svg>