<?xml version="1.0" encoding="UTF-8"?><svg xmlns="http://www.w3.org/2000/svg" xmlns:xlink="http://www.w3.org/1999/xlink" viewBox="0 0 1920 1080"><defs><style>.cls-1{fill:#ffd05a;}.cls-2{clip-path:url(#clippath-1);}.cls-3{clip-path:url(#clippath);}.cls-4{fill:none;}.cls-5{fill:#30bf4b;fill-rule:evenodd;}.cls-6{fill:#28a745;}</style><clipPath id="clippath"><rect class="cls-4" x="-2010.61" width="1920" height="1080"/></clipPath><clipPath id="clippath-1"><rect class="cls-4" x="0" width="1920" height="1080"/></clipPath></defs><g id="Chorale"><g class="cls-3"><path class="cls-1" d="M-95.07,369.17c-3.51-1.02-7.18-1.68-10.5-3.15-6.22-2.76-10.76-7.37-12.22-14.21-1.71-8.05,1.47-14.5,7.93-19.05,10.03-7.07,20.84-7.41,31.93-2.51,.52,.23,1.02,.51,1.8,.89v-2.04c0-22.93,.05-45.85-.05-68.78-.02-3.67,1.33-5.78,4.73-7.23,23.75-10.07,47.48-20.2,71.13-30.52,4.82-2.1,8.52,1,8.5,5.55-.15,28.83-.16,57.67-.03,86.5,.04,8.87-3.95,15.03-11.42,19.23-10.55,5.93-25.31,4.65-34.13-2.88-9.99-8.53-9.51-22.37,1.28-29.86,10.08-7,20.87-7.35,31.96-2.43,.52,.23,1.02,.49,1.66,.8v-43.28c-.66,.24-1.3,.44-1.9,.7-19.85,8.51-39.7,17.04-59.57,25.5-1.31,.56-1.65,1.23-1.65,2.58,.04,20.18,.03,40.36,.03,60.53,0,10.74-4.92,17.9-15.06,21.57-2.61,.94-5.4,1.39-8.1,2.07h-6.32Zm29.48-97.53c.75-.3,1.28-.5,1.81-.72,11.32-4.85,22.63-9.7,33.95-14.55,8.64-3.7,17.28-7.38,25.89-11.14,.62-.27,1.43-1,1.45-1.55,.15-2.79,.07-5.6,.07-8.62-.83,.34-1.53,.61-2.21,.91-7.78,3.33-15.55,6.67-23.33,10.01-12.07,5.17-24.15,10.33-36.2,15.55-.6,.26-1.34,1.03-1.37,1.6-.14,2.74-.06,5.49-.06,8.52Zm47.17,34.34c-4.05,.12-7.99,1.04-11.42,3.54-5.5,4.01-5.53,9.93-.08,13.97,6.33,4.7,16.91,4.75,23.28,.11,5.63-4.1,5.61-10.14-.08-14.19-3.46-2.46-7.4-3.35-11.7-3.43Zm-73.56,52.68c4.17-.08,8.11-.98,11.57-3.44,5.68-4.05,5.68-10.1,.05-14.19-6.4-4.64-16.93-4.58-23.27,.13-5.38,4-5.42,9.88-.04,13.87,3.46,2.57,7.45,3.52,11.7,3.63Z"/><path class="cls-1" d="M-95.07,845.18c-3.51-1.02-7.18-1.68-10.5-3.15-6.22-2.76-10.76-7.37-12.22-14.21-1.71-8.05,1.47-14.5,7.93-19.05,10.03-7.07,20.84-7.41,31.93-2.51,.52,.23,1.02,.51,1.8,.89v-2.04c0-22.93,.05-45.85-.05-68.78-.02-3.67,1.33-5.78,4.73-7.23,23.75-10.07,47.48-20.2,71.13-30.52,4.82-2.1,8.52,1,8.5,5.55-.15,28.83-.16,57.67-.03,86.5,.04,8.87-3.95,15.03-11.42,19.23-10.55,5.93-25.31,4.65-34.13-2.88-9.99-8.53-9.51-22.37,1.28-29.86,10.08-7,20.87-7.35,31.96-2.43,.52,.23,1.02,.49,1.66,.8v-43.28c-.66,.24-1.3,.44-1.9,.7-19.85,8.51-39.7,17.04-59.57,25.5-1.31,.56-1.65,1.23-1.65,2.58,.04,20.18,.03,40.36,.03,60.53,0,10.74-4.92,17.9-15.06,21.57-2.61,.94-5.4,1.39-8.1,2.07h-6.32Zm29.48-97.53c.75-.3,1.28-.5,1.81-.72,11.32-4.85,22.63-9.7,33.95-14.55,8.64-3.7,17.28-7.38,25.89-11.14,.62-.27,1.43-1,1.45-1.55,.15-2.79,.07-5.6,.07-8.62-.83,.34-1.53,.61-2.21,.91-7.78,3.33-15.55,6.67-23.33,10.01-12.07,5.17-24.15,10.33-36.2,15.55-.6,.26-1.34,1.03-1.37,1.6-.14,2.74-.06,5.49-.06,8.52Zm47.17,34.34c-4.05,.12-7.99,1.04-11.42,3.54-5.5,4.01-5.53,9.93-.08,13.97,6.33,4.7,16.91,4.75,23.28,.11,5.63-4.1,5.61-10.14-.08-14.19-3.46-2.46-7.4-3.35-11.7-3.43Zm-73.56,52.68c4.17-.08,8.11-.98,11.57-3.44,5.68-4.05,5.68-10.1,.05-14.19-6.4-4.64-16.93-4.58-23.27,.13-5.38,4-5.42,9.88-.04,13.87,3.46,2.57,7.45,3.52,11.7,3.63Z"/></g></g><g id="Calque_3"><rect class="cls-6" x="0" width="1920" height="1080"/><g class="cls-2"><g><path class="cls-5" d="M236.67,31.61c1.05,1.06,1.64,2.49,1.64,3.98s-.59,2.92-1.64,3.98l-21.82,21.83c-1.06,1.04-2.49,1.63-3.97,1.63-1.49,0-2.92-.59-3.97-1.65-1.05-1.05-1.64-2.48-1.64-3.97,0-1.49,.59-2.92,1.64-3.97l21.83-21.82c1.06-1.05,2.49-1.64,3.97-1.64s2.92,.59,3.97,1.64h0ZM256.83-2.43c1.84-1.83,4.34-2.86,6.94-2.86s5.09,1.03,6.93,2.86c1.84,1.84,2.87,4.33,2.87,6.94s-1.03,5.1-2.87,6.94c-1.84,1.84-4.34,2.87-6.94,2.87s-5.1-1.03-6.94-2.87c-1.84-1.84-2.87-4.33-2.87-6.94s1.03-5.1,2.87-6.94h0Zm6.94,28c6.55,0,12.72-3.04,16.71-8.23,3.99-5.19,5.34-11.94,3.64-18.27-1.69-6.33-6.23-11.5-12.28-14.01-6.05-2.51-12.92-2.06-18.59,1.21-5.67,3.27-9.5,8.99-10.36,15.49-.86,6.49,1.36,13.01,5.98,17.64,3.94,3.96,9.3,6.18,14.88,6.17h0Zm-102.62,76.5h0c2.19-.83,4.32-1.83,6.36-2.99l1.68,1.68c-1.15,2.05-2.15,4.18-3,6.37-2.11,5.07-4.09,9.88-10.86,14.22-4.03,2.67-8.62,4.38-13.42,4.99,.62-4.75,2.3-9.3,4.92-13.31,4.37-6.85,9.19-8.83,14.31-10.96h0Zm-23.78,4.91c-4.91,7.55-7.31,16.45-6.86,25.44,.07,1.39,.65,2.71,1.64,3.7,.99,.99,2.3,1.57,3.7,1.64,.72,.02,1.43,.05,2.14,.05h0c8.32,0,16.46-2.44,23.42-7,9.72-6.25,12.74-13.55,15.16-19.39h0c.86-2.64,2.21-5.09,3.99-7.22,1.05-1.05,1.64-2.48,1.64-3.96s-.59-2.91-1.64-3.96l-8.56-8.59c-1.06-1.05-2.48-1.64-3.97-1.64s-2.92,.59-3.97,1.64c-2.13,1.78-4.57,3.15-7.21,4.01-5.89,2.44-13.22,5.45-19.49,15.29h0Zm123.72-25.79l-22.54,22.53-3.17-17.41c6.3-3.26,12.37-6.96,18.17-11.06,2.4-1.71,4.75-3.46,7.06-5.27l.48,11.21Zm-53.66,2.26c9.99-.3,24.43-6.65,39.65-17.38,13.93-9.84,26.4-21.88,32.52-31.41,12.76-19.42,19.51-42.16,19.39-65.4h-.67c-22.84,.01-45.19,6.66-64.33,19.13-9.65,6.15-21.79,18.66-31.69,32.61-10.81,15.25-17.18,29.75-17.51,39.81h0c-.04,1.43-.63,2.79-1.64,3.8l-5.12,5.12,20.48,20.49,5.12-5.12c1.01-1.01,2.37-1.6,3.8-1.66h0Zm-42.9-53.75l22.54-22.53,11.2,.48c-1.76,2.23-3.48,4.54-5.14,6.87h0c-4.16,5.85-7.9,11.99-11.19,18.36l-17.41-3.19h0Zm124.53,11.03c15.02-22.86,22.38-49.89,21.02-77.21-.07-1.39-.66-2.71-1.64-3.7-.99-.99-2.31-1.57-3.7-1.64-27.14-1.34-54.02,5.93-76.78,20.77-7.51,5.09-14.37,11.07-20.43,17.83l-22.44-.95c-1.57-.07-3.1,.52-4.21,1.63l-31.87,31.88c-.98,.97-1.56,2.26-1.65,3.63-.08,1.37,.34,2.73,1.19,3.81,.85,1.08,2.07,1.81,3.42,2.05l25.3,4.62c-1.82,4.74-3.02,9.7-3.57,14.75l-7.59,7.57h0c-1.05,1.06-1.64,2.49-1.64,3.98s.59,2.92,1.64,3.98l28.43,28.42c1.05,1.06,2.48,1.66,3.97,1.66s2.92-.6,3.97-1.66l7.59-7.6h0c5.05-.54,10-1.74,14.73-3.56l4.59,25.31h0c.19,1.01,.64,1.95,1.32,2.72,.68,.77,1.55,1.34,2.53,1.65,.54,.17,1.11,.25,1.67,.25,1.49,0,2.93-.59,3.98-1.65l31.86-31.86c1.12-1.11,1.71-2.64,1.64-4.21l-.96-22.42h0c6.66-5.93,12.57-12.66,17.6-20.02h0Z"/><path class="cls-5" d="M731.33,31.61c1.05,1.06,1.64,2.49,1.64,3.98s-.59,2.92-1.64,3.98l-21.82,21.83c-1.06,1.04-2.49,1.63-3.97,1.63-1.49,0-2.92-.59-3.97-1.65-1.05-1.05-1.64-2.48-1.64-3.97,0-1.49,.59-2.92,1.64-3.97l21.83-21.82c1.06-1.05,2.49-1.64,3.97-1.64s2.92,.59,3.97,1.64h0Zm20.16-34.04c1.84-1.83,4.34-2.86,6.94-2.86s5.09,1.03,6.93,2.86c1.84,1.84,2.87,4.33,2.87,6.94s-1.03,5.1-2.87,6.94c-1.84,1.84-4.34,2.87-6.94,2.87s-5.1-1.03-6.94-2.87c-1.84-1.84-2.87-4.33-2.87-6.94s1.03-5.1,2.87-6.94h0Zm6.94,28c6.55,0,12.72-3.04,16.71-8.23,3.99-5.19,5.34-11.94,3.64-18.27-1.69-6.33-6.23-11.5-12.28-14.01-6.05-2.51-12.92-2.06-18.59,1.21-5.67,3.27-9.5,8.99-10.36,15.49-.86,6.49,1.36,13.01,5.98,17.64,3.94,3.96,9.3,6.18,14.88,6.17h0Zm-102.62,76.5h0c2.19-.83,4.32-1.83,6.36-2.99l1.68,1.68c-1.15,2.05-2.15,4.18-3,6.37-2.11,5.07-4.09,9.88-10.86,14.22-4.03,2.67-8.62,4.38-13.42,4.99,.62-4.75,2.3-9.3,4.92-13.31,4.37-6.85,9.19-8.83,14.31-10.96h0Zm-23.78,4.91c-4.91,7.55-7.31,16.45-6.86,25.44,.07,1.39,.65,2.71,1.64,3.7,.99,.99,2.3,1.57,3.7,1.64,.72,.02,1.43,.05,2.14,.05h0c8.32,0,16.46-2.44,23.42-7,9.72-6.25,12.74-13.55,15.16-19.39h0c.86-2.64,2.21-5.09,3.99-7.22,1.05-1.05,1.64-2.48,1.64-3.96s-.59-2.91-1.64-3.96l-8.56-8.59c-1.06-1.05-2.48-1.64-3.97-1.64s-2.92,.59-3.97,1.64c-2.13,1.78-4.57,3.15-7.21,4.01-5.89,2.44-13.22,5.45-19.49,15.29h0Zm123.72-25.79l-22.54,22.53-3.17-17.41c6.3-3.26,12.37-6.96,18.17-11.06,2.4-1.71,4.75-3.46,7.06-5.27l.48,11.21Zm-53.66,2.26c9.99-.3,24.43-6.65,39.65-17.38,13.93-9.84,26.4-21.88,32.52-31.41,12.76-19.42,19.51-42.16,19.39-65.4h-.67c-22.84,.01-45.19,6.66-64.33,19.13-9.65,6.15-21.79,18.66-31.69,32.61-10.81,15.25-17.18,29.75-17.51,39.81h0c-.04,1.43-.63,2.79-1.64,3.8l-5.12,5.12,20.48,20.49,5.12-5.12c1.01-1.01,2.37-1.6,3.8-1.66h0Zm-42.9-53.75l22.54-22.53,11.2,.48c-1.76,2.23-3.48,4.54-5.14,6.87h0c-4.16,5.85-7.9,11.99-11.19,18.36l-17.41-3.19h0Zm124.53,11.03c15.02-22.86,22.38-49.89,21.02-77.21-.07-1.39-.66-2.71-1.64-3.7-.99-.99-2.31-1.57-3.7-1.64-27.14-1.34-54.02,5.93-76.78,20.77-7.51,5.09-14.37,11.07-20.43,17.83l-22.44-.95c-1.57-.07-3.1,.52-4.21,1.63l-31.87,31.88c-.98,.97-1.56,2.26-1.65,3.63-.08,1.37,.34,2.73,1.19,3.81,.85,1.08,2.07,1.81,3.42,2.05l25.3,4.62c-1.82,4.74-3.02,9.7-3.57,14.75l-7.59,7.57h0c-1.05,1.06-1.64,2.49-1.64,3.98s.59,2.92,1.64,3.98l28.43,28.42c1.05,1.06,2.48,1.66,3.97,1.66s2.92-.6,3.97-1.66l7.59-7.6h0c5.05-.54,10-1.74,14.73-3.56l4.59,25.31h0c.19,1.01,.64,1.95,1.32,2.72,.68,.77,1.55,1.34,2.53,1.65,.54,.17,1.11,.25,1.67,.25,1.49,0,2.93-.59,3.98-1.65l31.86-31.86c1.12-1.11,1.71-2.64,1.64-4.21l-.96-22.42h0c6.66-5.93,12.57-12.66,17.6-20.02h0Z"/><path class="cls-5" d="M1225.98,31.61c1.05,1.06,1.64,2.49,1.64,3.98s-.59,2.92-1.64,3.98l-21.82,21.83c-1.06,1.04-2.49,1.63-3.97,1.63-1.49,0-2.92-.59-3.97-1.65-1.05-1.05-1.64-2.48-1.64-3.97,0-1.49,.59-2.92,1.64-3.97l21.83-21.82c1.06-1.05,2.49-1.64,3.97-1.64s2.92,.59,3.97,1.64h0Zm20.16-34.04c1.84-1.83,4.34-2.86,6.94-2.86s5.09,1.03,6.93,2.86c1.84,1.84,2.87,4.33,2.87,6.94s-1.03,5.1-2.87,6.94c-1.84,1.84-4.34,2.87-6.94,2.87s-5.1-1.03-6.94-2.87c-1.84-1.84-2.87-4.33-2.87-6.94s1.03-5.1,2.87-6.94h0Zm6.94,28c6.55,0,12.72-3.04,16.71-8.23,3.99-5.19,5.34-11.94,3.64-18.27-1.69-6.33-6.23-11.5-12.28-14.01-6.05-2.51-12.92-2.06-18.59,1.21-5.67,3.27-9.5,8.99-10.36,15.49-.86,6.49,1.36,13.01,5.98,17.64,3.94,3.96,9.3,6.18,14.88,6.17h0Zm-102.62,76.5h0c2.19-.83,4.32-1.83,6.36-2.99l1.68,1.68c-1.15,2.05-2.15,4.18-3,6.37-2.11,5.07-4.09,9.88-10.86,14.22-4.03,2.67-8.62,4.38-13.42,4.99,.62-4.75,2.3-9.3,4.92-13.31,4.37-6.85,9.19-8.83,14.31-10.96h0Zm-23.78,4.91c-4.91,7.55-7.31,16.45-6.86,25.44,.07,1.39,.65,2.71,1.64,3.7,.99,.99,2.3,1.57,3.7,1.64,.72,.02,1.43,.05,2.14,.05h0c8.32,0,16.46-2.44,23.42-7,9.72-6.25,12.74-13.55,15.16-19.39h0c.86-2.64,2.21-5.09,3.99-7.22,1.05-1.05,1.64-2.48,1.64-3.96s-.59-2.91-1.64-3.96l-8.56-8.59c-1.06-1.05-2.48-1.64-3.97-1.64s-2.92,.59-3.97,1.64c-2.13,1.78-4.57,3.15-7.21,4.01-5.89,2.44-13.22,5.45-19.49,15.29h0Zm123.72-25.79l-22.54,22.53-3.17-17.41c6.3-3.26,12.37-6.96,18.17-11.06,2.4-1.71,4.75-3.46,7.06-5.27l.48,11.21Zm-53.66,2.26c9.99-.3,24.43-6.65,39.65-17.38,13.93-9.84,26.4-21.88,32.52-31.41,12.76-19.42,19.51-42.16,19.39-65.4h-.67c-22.84,.01-45.19,6.66-64.33,19.13-9.65,6.15-21.79,18.66-31.69,32.61-10.81,15.25-17.18,29.75-17.51,39.81h0c-.04,1.43-.63,2.79-1.64,3.8l-5.12,5.12,20.48,20.49,5.12-5.12c1.01-1.01,2.37-1.6,3.8-1.66h0Zm-42.9-53.75l22.54-22.53,11.2,.48c-1.76,2.23-3.48,4.54-5.14,6.87h0c-4.16,5.85-7.9,11.99-11.19,18.36l-17.41-3.19h0Zm124.53,11.03c15.02-22.86,22.38-49.89,21.02-77.21-.07-1.39-.66-2.71-1.64-3.7-.99-.99-2.31-1.57-3.7-1.64-27.14-1.34-54.02,5.93-76.78,20.77-7.51,5.09-14.37,11.07-20.43,17.83l-22.44-.95c-1.57-.07-3.1,.52-4.21,1.63l-31.87,31.88c-.98,.97-1.56,2.26-1.65,3.63-.08,1.37,.34,2.73,1.19,3.81,.85,1.08,2.07,1.81,3.42,2.05l25.3,4.62c-1.82,4.74-3.02,9.7-3.57,14.75l-7.59,7.57h0c-1.05,1.06-1.64,2.49-1.64,3.98s.59,2.92,1.64,3.98l28.43,28.42c1.05,1.06,2.48,1.66,3.97,1.66s2.92-.6,3.97-1.66l7.59-7.6h0c5.05-.54,10-1.74,14.73-3.56l4.59,25.31h0c.19,1.01,.64,1.95,1.32,2.72,.68,.77,1.55,1.34,2.53,1.65,.54,.17,1.11,.25,1.67,.25,1.49,0,2.93-.59,3.98-1.65l31.86-31.86c1.12-1.11,1.71-2.64,1.64-4.21l-.96-22.42h0c6.66-5.93,12.57-12.66,17.6-20.02h0Z"/><path class="cls-5" d="M1720.64,31.61c1.05,1.06,1.64,2.49,1.64,3.98s-.59,2.92-1.64,3.98l-21.82,21.83c-1.06,1.04-2.49,1.63-3.97,1.63-1.49,0-2.92-.59-3.97-1.65-1.05-1.05-1.64-2.48-1.64-3.97,0-1.49,.59-2.92,1.64-3.97l21.83-21.82c1.06-1.05,2.49-1.64,3.97-1.64s2.92,.59,3.97,1.64h0Zm20.16-34.04c1.84-1.83,4.34-2.86,6.94-2.86s5.09,1.03,6.93,2.86c1.84,1.84,2.87,4.33,2.87,6.94s-1.03,5.1-2.87,6.94c-1.84,1.84-4.34,2.87-6.94,2.87s-5.1-1.03-6.94-2.87c-1.84-1.84-2.87-4.33-2.87-6.94s1.03-5.1,2.87-6.94h0Zm6.94,28c6.55,0,12.72-3.04,16.71-8.23,3.99-5.19,5.34-11.94,3.64-18.27-1.69-6.33-6.23-11.5-12.28-14.01-6.05-2.51-12.92-2.06-18.59,1.21-5.67,3.27-9.5,8.99-10.36,15.49-.86,6.49,1.36,13.01,5.98,17.64,3.94,3.96,9.3,6.18,14.88,6.17h0Zm-102.62,76.5h0c2.19-.83,4.32-1.83,6.36-2.99l1.68,1.68c-1.15,2.05-2.15,4.18-3,6.37-2.11,5.07-4.09,9.88-10.86,14.22-4.03,2.67-8.62,4.38-13.42,4.99,.62-4.75,2.3-9.3,4.92-13.31,4.37-6.85,9.19-8.83,14.31-10.96h0Zm-23.78,4.91c-4.91,7.55-7.31,16.45-6.86,25.44,.07,1.39,.65,2.71,1.64,3.7,.99,.99,2.3,1.57,3.7,1.64,.72,.02,1.43,.05,2.14,.05h0c8.32,0,16.46-2.44,23.42-7,9.72-6.25,12.74-13.55,15.16-19.39h0c.86-2.64,2.21-5.09,3.99-7.22,1.05-1.05,1.64-2.48,1.64-3.96s-.59-2.91-1.64-3.96l-8.56-8.59c-1.06-1.05-2.48-1.64-3.97-1.64s-2.92,.59-3.97,1.64c-2.13,1.78-4.57,3.15-7.21,4.01-5.89,2.44-13.22,5.45-19.49,15.29h0Zm123.72-25.79l-22.54,22.53-3.17-17.41c6.3-3.26,12.37-6.96,18.17-11.06,2.4-1.71,4.75-3.46,7.06-5.27l.48,11.21Zm-53.66,2.26c9.99-.3,24.43-6.65,39.65-17.38,13.93-9.84,26.4-21.88,32.52-31.41,12.76-19.42,19.51-42.16,19.39-65.4h-.67c-22.84,.01-45.19,6.66-64.33,19.13-9.65,6.15-21.79,18.66-31.69,32.61-10.81,15.25-17.18,29.75-17.51,39.81h0c-.04,1.43-.63,2.79-1.64,3.8l-5.12,5.12,20.48,20.49,5.12-5.12c1.01-1.01,2.37-1.6,3.8-1.66h0Zm-42.9-53.75l22.54-22.53,11.2,.48c-1.76,2.23-3.48,4.54-5.14,6.87h0c-4.16,5.85-7.9,11.99-11.19,18.36l-17.41-3.19h0Zm124.53,11.03c15.02-22.86,22.38-49.89,21.02-77.21-.07-1.39-.66-2.71-1.64-3.7-.99-.99-2.31-1.57-3.7-1.64-27.14-1.34-54.02,5.93-76.78,20.77-7.51,5.09-14.37,11.07-20.43,17.83l-22.44-.95c-1.57-.07-3.1,.52-4.21,1.63l-31.87,31.88c-.98,.97-1.56,2.26-1.65,3.63-.08,1.37,.34,2.73,1.19,3.81,.85,1.08,2.07,1.81,3.42,2.05l25.3,4.62c-1.82,4.74-3.02,9.7-3.57,14.75l-7.59,7.57h0c-1.05,1.06-1.64,2.49-1.64,3.98s.59,2.92,1.64,3.98l28.43,28.42c1.05,1.06,2.48,1.66,3.97,1.66s2.92-.6,3.97-1.66l7.59-7.6h0c5.05-.54,10-1.74,14.73-3.56l4.59,25.31h0c.19,1.01,.64,1.95,1.32,2.72,.68,.77,1.55,1.34,2.53,1.65,.54,.17,1.11,.25,1.67,.25,1.49,0,2.93-.59,3.98-1.65l31.86-31.86c1.12-1.11,1.71-2.64,1.64-4.21l-.96-22.42h0c6.66-5.93,12.57-12.66,17.6-20.02h0Z"/><path class="cls-5" d="M236.67,527.71c1.05,1.06,1.64,2.49,1.64,3.98s-.59,2.92-1.64,3.98l-21.82,21.83c-1.06,1.04-2.49,1.63-3.97,1.63-1.49,0-2.92-.59-3.97-1.65-1.05-1.05-1.64-2.48-1.64-3.97,0-1.49,.59-2.92,1.64-3.97l21.83-21.82c1.06-1.05,2.49-1.64,3.97-1.64s2.92,.59,3.97,1.64h0Zm20.16-34.04c1.84-1.83,4.34-2.86,6.94-2.86s5.09,1.03,6.93,2.86c1.84,1.84,2.87,4.33,2.87,6.94s-1.03,5.1-2.87,6.94c-1.84,1.84-4.34,2.87-6.94,2.87s-5.1-1.03-6.94-2.87c-1.84-1.84-2.87-4.33-2.87-6.94s1.03-5.1,2.87-6.94h0Zm6.94,28c6.55,0,12.72-3.04,16.71-8.23,3.99-5.19,5.34-11.94,3.64-18.27-1.69-6.33-6.23-11.5-12.28-14.01-6.05-2.51-12.92-2.06-18.59,1.21-5.67,3.27-9.5,8.99-10.36,15.49-.86,6.49,1.36,13.01,5.98,17.64,3.94,3.96,9.3,6.18,14.88,6.17h0Zm-102.62,76.5h0c2.19-.83,4.32-1.83,6.36-2.99l1.68,1.68c-1.15,2.05-2.15,4.18-3,6.37-2.11,5.07-4.09,9.88-10.86,14.22-4.03,2.67-8.62,4.38-13.42,4.99,.62-4.75,2.3-9.3,4.92-13.31,4.37-6.85,9.19-8.83,14.31-10.96h0Zm-23.78,4.91c-4.91,7.55-7.31,16.45-6.86,25.44,.07,1.39,.65,2.71,1.64,3.7,.99,.99,2.3,1.57,3.7,1.64,.72,.02,1.43,.05,2.14,.05h0c8.32,0,16.46-2.44,23.42-7,9.72-6.25,12.74-13.55,15.16-19.39h0c.86-2.64,2.21-5.09,3.99-7.22,1.05-1.05,1.64-2.48,1.64-3.96s-.59-2.91-1.64-3.96l-8.56-8.59c-1.06-1.05-2.48-1.64-3.97-1.64s-2.92,.59-3.97,1.64c-2.13,1.78-4.57,3.15-7.21,4.01-5.89,2.44-13.22,5.45-19.49,15.29h0Zm123.72-25.79l-22.54,22.53-3.17-17.41c6.3-3.26,12.37-6.96,18.17-11.06,2.4-1.71,4.75-3.46,7.06-5.27l.48,11.21Zm-53.66,2.26c9.99-.3,24.43-6.65,39.65-17.38,13.93-9.84,26.4-21.88,32.52-31.41,12.76-19.42,19.51-42.16,19.39-65.4h-.67c-22.84,.01-45.19,6.66-64.33,19.13-9.65,6.15-21.79,18.66-31.69,32.61-10.81,15.25-17.18,29.75-17.51,39.81h0c-.04,1.43-.63,2.79-1.64,3.8l-5.12,5.12,20.48,20.49,5.12-5.12c1.01-1.01,2.37-1.6,3.8-1.66h0Zm-42.9-53.75l22.54-22.53,11.2,.48c-1.76,2.23-3.48,4.54-5.14,6.87h0c-4.16,5.85-7.9,11.99-11.19,18.36l-17.41-3.19h0Zm124.53,11.03c15.02-22.86,22.38-49.89,21.02-77.21-.07-1.39-.66-2.71-1.64-3.7-.99-.99-2.31-1.57-3.7-1.64-27.14-1.34-54.02,5.93-76.78,20.77-7.51,5.09-14.37,11.07-20.43,17.83l-22.44-.95c-1.57-.07-3.1,.52-4.21,1.63l-31.87,31.88c-.98,.97-1.56,2.26-1.65,3.63-.08,1.37,.34,2.73,1.19,3.81,.85,1.08,2.07,1.81,3.42,2.05l25.3,4.62c-1.82,4.74-3.02,9.7-3.57,14.75l-7.59,7.57h0c-1.05,1.06-1.64,2.49-1.64,3.98s.59,2.92,1.64,3.98l28.43,28.42c1.05,1.06,2.48,1.66,3.97,1.66s2.92-.6,3.97-1.66l7.59-7.6h0c5.05-.54,10-1.74,14.73-3.56l4.59,25.31h0c.19,1.01,.64,1.95,1.32,2.72,.68,.77,1.55,1.34,2.53,1.65,.54,.17,1.11,.25,1.67,.25,1.49,0,2.93-.59,3.98-1.65l31.86-31.86c1.12-1.11,1.71-2.64,1.64-4.21l-.96-22.42h0c6.66-5.93,12.57-12.66,17.6-20.02h0Z"/><path class="cls-5" d="M731.33,527.71c1.05,1.06,1.64,2.49,1.64,3.98s-.59,2.92-1.64,3.98l-21.82,21.83c-1.06,1.04-2.49,1.63-3.97,1.63-1.49,0-2.92-.59-3.97-1.65-1.05-1.05-1.64-2.48-1.64-3.97,0-1.49,.59-2.92,1.64-3.97l21.83-21.82c1.06-1.05,2.49-1.64,3.97-1.64s2.92,.59,3.97,1.64h0Zm20.16-34.04c1.84-1.83,4.34-2.86,6.94-2.86s5.09,1.03,6.93,2.86c1.84,1.84,2.87,4.33,2.87,6.94s-1.03,5.1-2.87,6.94c-1.84,1.84-4.34,2.87-6.94,2.87s-5.1-1.03-6.94-2.87c-1.84-1.84-2.87-4.33-2.87-6.94s1.03-5.1,2.87-6.94h0Zm6.94,28c6.55,0,12.72-3.04,16.71-8.23,3.99-5.19,5.34-11.94,3.64-18.27-1.69-6.33-6.23-11.5-12.28-14.01-6.05-2.51-12.92-2.06-18.59,1.21-5.67,3.27-9.5,8.99-10.36,15.49-.86,6.49,1.36,13.01,5.98,17.64,3.94,3.96,9.3,6.18,14.88,6.17h0Zm-102.62,76.5h0c2.19-.83,4.32-1.83,6.36-2.99l1.68,1.68c-1.15,2.05-2.15,4.18-3,6.37-2.11,5.07-4.09,9.88-10.86,14.22-4.03,2.67-8.62,4.38-13.42,4.99,.62-4.75,2.3-9.3,4.92-13.31,4.37-6.85,9.19-8.83,14.31-10.96h0Zm-23.78,4.91c-4.91,7.55-7.31,16.45-6.86,25.44,.07,1.39,.65,2.71,1.64,3.7,.99,.99,2.3,1.57,3.7,1.64,.72,.02,1.43,.05,2.14,.05h0c8.32,0,16.46-2.44,23.42-7,9.72-6.25,12.74-13.55,15.16-19.39h0c.86-2.64,2.21-5.09,3.99-7.22,1.05-1.05,1.64-2.48,1.64-3.96s-.59-2.91-1.64-3.96l-8.56-8.59c-1.06-1.05-2.48-1.64-3.97-1.64s-2.92,.59-3.97,1.64c-2.13,1.78-4.57,3.15-7.21,4.01-5.89,2.44-13.22,5.45-19.49,15.29h0Zm123.72-25.79l-22.54,22.53-3.17-17.41c6.3-3.26,12.37-6.96,18.17-11.06,2.4-1.71,4.75-3.46,7.06-5.27l.48,11.21Zm-53.66,2.26c9.99-.3,24.43-6.65,39.65-17.38,13.93-9.84,26.4-21.88,32.52-31.41,12.76-19.42,19.51-42.16,19.39-65.4h-.67c-22.84,.01-45.19,6.66-64.33,19.13-9.65,6.15-21.79,18.66-31.69,32.61-10.81,15.25-17.18,29.75-17.51,39.81h0c-.04,1.43-.63,2.79-1.64,3.8l-5.12,5.12,20.48,20.49,5.12-5.12c1.01-1.01,2.37-1.6,3.8-1.66h0Zm-42.9-53.75l22.54-22.53,11.2,.48c-1.76,2.23-3.48,4.54-5.14,6.87h0c-4.16,5.85-7.9,11.99-11.19,18.36l-17.41-3.19h0Zm124.53,11.03c15.02-22.86,22.38-49.89,21.02-77.21-.07-1.39-.66-2.71-1.64-3.7-.99-.99-2.31-1.57-3.7-1.64-27.14-1.34-54.02,5.93-76.78,20.77-7.51,5.09-14.37,11.07-20.43,17.83l-22.44-.95c-1.57-.07-3.1,.52-4.21,1.63l-31.87,31.88c-.98,.97-1.56,2.26-1.65,3.63-.08,1.37,.34,2.73,1.19,3.81,.85,1.08,2.07,1.81,3.42,2.05l25.3,4.62c-1.82,4.74-3.02,9.7-3.57,14.75l-7.59,7.57h0c-1.05,1.06-1.64,2.49-1.64,3.98s.59,2.92,1.64,3.98l28.43,28.42c1.05,1.06,2.48,1.66,3.97,1.66s2.92-.6,3.97-1.66l7.59-7.6h0c5.05-.54,10-1.74,14.73-3.56l4.59,25.31h0c.19,1.01,.64,1.95,1.32,2.72,.68,.77,1.55,1.34,2.53,1.65,.54,.17,1.11,.25,1.67,.25,1.49,0,2.93-.59,3.98-1.65l31.86-31.86c1.12-1.11,1.71-2.64,1.64-4.21l-.96-22.42h0c6.66-5.93,12.57-12.66,17.6-20.02h0Z"/><path class="cls-5" d="M1225.98,527.71c1.05,1.06,1.64,2.49,1.64,3.98s-.59,2.92-1.64,3.98l-21.82,21.83c-1.06,1.04-2.49,1.63-3.97,1.63-1.49,0-2.92-.59-3.97-1.65-1.05-1.05-1.64-2.48-1.64-3.97,0-1.49,.59-2.92,1.64-3.97l21.83-21.82c1.06-1.05,2.49-1.64,3.97-1.64s2.92,.59,3.97,1.64h0Zm20.16-34.04c1.84-1.83,4.34-2.86,6.94-2.86s5.09,1.03,6.93,2.86c1.84,1.84,2.87,4.33,2.87,6.94s-1.03,5.1-2.87,6.94c-1.84,1.84-4.34,2.87-6.94,2.87s-5.1-1.03-6.94-2.87c-1.84-1.84-2.87-4.33-2.87-6.94s1.03-5.1,2.87-6.94h0Zm6.94,28c6.55,0,12.72-3.04,16.71-8.23,3.99-5.19,5.34-11.94,3.64-18.27-1.69-6.33-6.23-11.5-12.28-14.01-6.05-2.51-12.92-2.06-18.59,1.21-5.67,3.27-9.5,8.99-10.36,15.49-.86,6.49,1.36,13.01,5.98,17.64,3.94,3.96,9.3,6.18,14.88,6.17h0Zm-102.62,76.5h0c2.19-.83,4.32-1.83,6.36-2.99l1.68,1.68c-1.15,2.05-2.15,4.18-3,6.37-2.11,5.07-4.09,9.88-10.86,14.22-4.03,2.67-8.62,4.38-13.42,4.99,.62-4.75,2.3-9.3,4.92-13.31,4.37-6.85,9.19-8.83,14.31-10.96h0Zm-23.78,4.91c-4.91,7.55-7.31,16.45-6.86,25.44,.07,1.39,.65,2.71,1.64,3.7,.99,.99,2.3,1.57,3.7,1.64,.72,.02,1.43,.05,2.14,.05h0c8.32,0,16.46-2.44,23.42-7,9.72-6.25,12.74-13.55,15.16-19.39h0c.86-2.64,2.21-5.09,3.99-7.22,1.05-1.05,1.64-2.48,1.64-3.96s-.59-2.91-1.64-3.96l-8.56-8.59c-1.06-1.05-2.48-1.64-3.97-1.64s-2.92,.59-3.97,1.64c-2.13,1.78-4.57,3.15-7.21,4.01-5.89,2.44-13.22,5.45-19.49,15.29h0Zm123.72-25.79l-22.54,22.53-3.17-17.41c6.3-3.26,12.37-6.96,18.17-11.06,2.4-1.71,4.75-3.46,7.06-5.27l.48,11.21Zm-53.66,2.26c9.99-.3,24.43-6.65,39.65-17.38,13.93-9.84,26.4-21.88,32.52-31.41,12.76-19.42,19.51-42.16,19.39-65.4h-.67c-22.84,.01-45.19,6.66-64.33,19.13-9.65,6.15-21.79,18.66-31.69,32.61-10.81,15.25-17.18,29.75-17.51,39.81h0c-.04,1.43-.63,2.79-1.64,3.8l-5.12,5.12,20.48,20.49,5.12-5.12c1.01-1.01,2.37-1.6,3.8-1.66h0Zm-42.9-53.75l22.54-22.53,11.2,.48c-1.76,2.23-3.48,4.54-5.14,6.87h0c-4.16,5.85-7.9,11.99-11.19,18.36l-17.41-3.19h0Zm124.53,11.03c15.02-22.86,22.38-49.89,21.02-77.21-.07-1.39-.66-2.71-1.64-3.7-.99-.99-2.31-1.57-3.7-1.64-27.14-1.34-54.02,5.93-76.78,20.77-7.51,5.09-14.37,11.07-20.43,17.83l-22.44-.95c-1.57-.07-3.1,.52-4.21,1.63l-31.87,31.88c-.98,.97-1.56,2.26-1.65,3.63-.08,1.37,.34,2.73,1.19,3.81,.85,1.08,2.07,1.81,3.42,2.05l25.3,4.62c-1.82,4.74-3.02,9.7-3.57,14.75l-7.59,7.57h0c-1.05,1.06-1.64,2.49-1.64,3.98s.59,2.92,1.64,3.98l28.43,28.42c1.05,1.06,2.48,1.66,3.97,1.66s2.92-.6,3.97-1.66l7.59-7.6h0c5.05-.54,10-1.74,14.73-3.56l4.59,25.31h0c.19,1.01,.64,1.95,1.32,2.72,.68,.77,1.55,1.34,2.53,1.65,.54,.17,1.11,.25,1.67,.25,1.49,0,2.93-.59,3.98-1.65l31.86-31.86c1.12-1.11,1.71-2.64,1.64-4.21l-.96-22.42h0c6.66-5.93,12.57-12.66,17.6-20.02h0Z"/><path class="cls-5" d="M1720.64,527.71c1.05,1.06,1.64,2.49,1.64,3.98s-.59,2.92-1.64,3.98l-21.82,21.83c-1.06,1.04-2.49,1.63-3.97,1.63-1.49,0-2.92-.59-3.97-1.65-1.05-1.05-1.64-2.48-1.64-3.97,0-1.49,.59-2.92,1.64-3.97l21.83-21.82c1.06-1.05,2.49-1.64,3.97-1.64s2.92,.59,3.97,1.64h0Zm20.16-34.04c1.84-1.83,4.34-2.86,6.94-2.86s5.09,1.03,6.93,2.86c1.84,1.84,2.87,4.33,2.87,6.94s-1.03,5.1-2.87,6.94c-1.84,1.84-4.34,2.87-6.94,2.87s-5.1-1.03-6.94-2.87c-1.84-1.84-2.87-4.33-2.87-6.94s1.03-5.1,2.87-6.94h0Zm6.94,28c6.55,0,12.72-3.04,16.71-8.23,3.99-5.19,5.34-11.94,3.64-18.27-1.69-6.33-6.23-11.5-12.28-14.01-6.05-2.51-12.92-2.06-18.59,1.21-5.67,3.27-9.5,8.99-10.36,15.49-.86,6.49,1.36,13.01,5.98,17.64,3.94,3.96,9.3,6.18,14.88,6.17h0Zm-102.62,76.5h0c2.19-.83,4.32-1.83,6.36-2.99l1.68,1.68c-1.15,2.05-2.15,4.18-3,6.37-2.11,5.07-4.09,9.88-10.86,14.22-4.03,2.67-8.62,4.38-13.42,4.99,.62-4.75,2.3-9.3,4.92-13.31,4.37-6.85,9.19-8.83,14.31-10.96h0Zm-23.78,4.91c-4.91,7.55-7.31,16.45-6.86,25.44,.07,1.39,.65,2.71,1.64,3.7,.99,.99,2.3,1.57,3.7,1.64,.72,.02,1.43,.05,2.14,.05h0c8.32,0,16.46-2.44,23.42-7,9.72-6.25,12.74-13.55,15.16-19.39h0c.86-2.64,2.21-5.09,3.99-7.22,1.05-1.05,1.64-2.48,1.64-3.96s-.59-2.91-1.64-3.96l-8.56-8.59c-1.06-1.05-2.48-1.64-3.97-1.64s-2.92,.59-3.97,1.64c-2.13,1.78-4.57,3.15-7.21,4.01-5.89,2.44-13.22,5.45-19.49,15.29h0Zm123.72-25.79l-22.54,22.53-3.17-17.41c6.3-3.26,12.37-6.96,18.17-11.06,2.4-1.71,4.75-3.46,7.06-5.27l.48,11.21Zm-53.66,2.26c9.99-.3,24.43-6.65,39.65-17.38,13.93-9.84,26.4-21.88,32.52-31.41,12.76-19.42,19.51-42.16,19.39-65.4h-.67c-22.84,.01-45.19,6.66-64.33,19.13-9.65,6.15-21.79,18.66-31.69,32.61-10.81,15.25-17.18,29.75-17.51,39.81h0c-.04,1.43-.63,2.79-1.64,3.8l-5.12,5.12,20.48,20.49,5.12-5.12c1.01-1.01,2.37-1.6,3.8-1.66h0Zm-42.9-53.75l22.54-22.53,11.2,.48c-1.76,2.23-3.48,4.54-5.14,6.87h0c-4.16,5.85-7.9,11.99-11.19,18.36l-17.41-3.19h0Zm124.53,11.03c15.02-22.86,22.38-49.89,21.02-77.21-.07-1.39-.66-2.71-1.64-3.7-.99-.99-2.31-1.57-3.7-1.64-27.14-1.34-54.02,5.93-76.78,20.77-7.51,5.09-14.37,11.07-20.43,17.83l-22.44-.95c-1.57-.07-3.1,.52-4.21,1.63l-31.87,31.88c-.98,.97-1.56,2.26-1.65,3.63-.08,1.37,.34,2.73,1.19,3.81,.85,1.08,2.07,1.81,3.42,2.05l25.3,4.62c-1.82,4.74-3.02,9.7-3.57,14.75l-7.59,7.57h0c-1.05,1.06-1.64,2.49-1.64,3.98s.59,2.92,1.64,3.98l28.43,28.42c1.05,1.06,2.48,1.66,3.97,1.66s2.92-.6,3.97-1.66l7.59-7.6h0c5.05-.54,10-1.74,14.73-3.56l4.59,25.31h0c.19,1.01,.64,1.95,1.32,2.72,.68,.77,1.55,1.34,2.53,1.65,.54,.17,1.11,.25,1.67,.25,1.49,0,2.93-.59,3.98-1.65l31.86-31.86c1.12-1.11,1.71-2.64,1.64-4.21l-.96-22.42h0c6.66-5.93,12.57-12.66,17.6-20.02h0Z"/><path class="cls-5" d="M236.67,1023.81c1.05,1.06,1.64,2.49,1.64,3.98s-.59,2.92-1.64,3.98l-21.82,21.83c-1.06,1.04-2.49,1.63-3.97,1.63-1.49,0-2.92-.59-3.97-1.65-1.05-1.05-1.64-2.48-1.64-3.97,0-1.49,.59-2.92,1.64-3.97l21.83-21.82c1.06-1.05,2.49-1.64,3.97-1.64s2.92,.59,3.97,1.64h0Zm20.16-34.04c1.84-1.83,4.34-2.86,6.94-2.86s5.09,1.03,6.93,2.86c1.84,1.84,2.87,4.33,2.87,6.94s-1.03,5.1-2.87,6.94-4.34,2.87-6.94,2.87-5.1-1.03-6.94-2.87c-1.84-1.84-2.87-4.33-2.87-6.94s1.03-5.1,2.87-6.94h0Zm6.94,28c6.55,0,12.72-3.04,16.71-8.23,3.99-5.19,5.34-11.94,3.64-18.27-1.69-6.33-6.23-11.5-12.28-14.01-6.05-2.51-12.92-2.06-18.59,1.21-5.67,3.27-9.5,8.99-10.36,15.49-.86,6.49,1.36,13.01,5.98,17.64,3.94,3.96,9.3,6.18,14.88,6.17h0Zm-102.62,76.5h0c2.19-.83,4.32-1.83,6.36-2.99l1.68,1.68c-1.15,2.05-2.15,4.18-3,6.37-2.11,5.07-4.09,9.88-10.86,14.22-4.03,2.67-8.62,4.38-13.42,4.99,.62-4.75,2.3-9.3,4.92-13.31,4.37-6.85,9.19-8.83,14.31-10.96h0Zm-23.78,4.91c-4.91,7.55-7.31,16.45-6.86,25.44,.07,1.39,.65,2.71,1.64,3.7,.99,.99,2.3,1.57,3.7,1.64,.72,.02,1.43,.05,2.14,.05h0c8.32,0,16.46-2.44,23.42-7,9.72-6.25,12.74-13.55,15.16-19.39h0c.86-2.64,2.21-5.09,3.99-7.22,1.05-1.05,1.64-2.48,1.64-3.96s-.59-2.91-1.64-3.96l-8.56-8.59c-1.06-1.05-2.48-1.64-3.97-1.64s-2.92,.59-3.97,1.64c-2.13,1.78-4.57,3.15-7.21,4.01-5.89,2.44-13.22,5.45-19.49,15.29h0Zm123.72-25.79l-22.54,22.53-3.17-17.41c6.3-3.26,12.37-6.96,18.17-11.06,2.4-1.71,4.75-3.46,7.06-5.27l.48,11.21Zm-53.66,2.26c9.99-.3,24.43-6.65,39.65-17.38,13.93-9.84,26.4-21.88,32.52-31.41,12.76-19.42,19.51-42.16,19.39-65.4h-.67c-22.84,.01-45.19,6.66-64.33,19.13-9.65,6.15-21.79,18.66-31.69,32.61-10.81,15.25-17.18,29.75-17.51,39.81h0c-.04,1.43-.63,2.79-1.64,3.8l-5.12,5.12,20.48,20.49,5.12-5.12c1.01-1.01,2.37-1.6,3.8-1.66h0Zm-42.9-53.75l22.54-22.53,11.2,.48c-1.76,2.23-3.48,4.54-5.14,6.87h0c-4.16,5.85-7.9,11.99-11.19,18.36l-17.41-3.19h0Zm124.53,11.03c15.02-22.86,22.38-49.89,21.02-77.21-.07-1.39-.66-2.71-1.64-3.7-.99-.99-2.31-1.57-3.7-1.64-27.14-1.34-54.02,5.93-76.78,20.77-7.51,5.09-14.37,11.07-20.43,17.83l-22.44-.95c-1.57-.07-3.1,.52-4.21,1.63l-31.87,31.88c-.98,.97-1.56,2.26-1.65,3.63-.08,1.37,.34,2.73,1.19,3.81,.85,1.08,2.07,1.81,3.42,2.05l25.3,4.62c-1.82,4.74-3.02,9.7-3.57,14.75l-7.59,7.57h0c-1.05,1.06-1.64,2.49-1.64,3.98s.59,2.92,1.64,3.98l28.43,28.42c1.05,1.06,2.48,1.66,3.97,1.66s2.92-.6,3.97-1.66l7.59-7.6h0c5.05-.54,10-1.74,14.73-3.56l4.59,25.31h0c.19,1.01,.64,1.95,1.32,2.72,.68,.77,1.55,1.34,2.53,1.65,.54,.17,1.11,.25,1.67,.25,1.49,0,2.93-.59,3.98-1.65l31.86-31.86c1.12-1.11,1.71-2.64,1.64-4.21l-.96-22.42h0c6.66-5.93,12.57-12.66,17.6-20.02h0Z"/><path class="cls-5" d="M731.33,1023.81c1.05,1.06,1.64,2.49,1.64,3.98s-.59,2.92-1.64,3.98l-21.82,21.83c-1.06,1.04-2.49,1.63-3.97,1.63-1.49,0-2.92-.59-3.97-1.65-1.05-1.05-1.64-2.48-1.64-3.97,0-1.49,.59-2.92,1.64-3.97l21.83-21.82c1.06-1.05,2.49-1.64,3.97-1.64s2.92,.59,3.97,1.64h0Zm20.16-34.04c1.84-1.83,4.34-2.86,6.94-2.86s5.09,1.03,6.93,2.86c1.84,1.84,2.87,4.33,2.87,6.94s-1.03,5.1-2.87,6.94-4.34,2.87-6.94,2.87-5.1-1.03-6.94-2.87c-1.84-1.84-2.87-4.33-2.87-6.94s1.03-5.1,2.87-6.94h0Zm6.94,28c6.55,0,12.72-3.04,16.71-8.23,3.99-5.19,5.34-11.94,3.64-18.27-1.69-6.33-6.23-11.5-12.28-14.01-6.05-2.51-12.92-2.06-18.59,1.21-5.67,3.27-9.5,8.99-10.36,15.49-.86,6.49,1.36,13.01,5.98,17.64,3.94,3.96,9.3,6.18,14.88,6.17h0Zm-102.62,76.5h0c2.19-.83,4.32-1.83,6.36-2.99l1.68,1.68c-1.15,2.05-2.15,4.18-3,6.37-2.11,5.07-4.09,9.88-10.86,14.22-4.03,2.67-8.62,4.38-13.42,4.99,.62-4.75,2.3-9.3,4.92-13.31,4.37-6.85,9.19-8.83,14.31-10.96h0Zm-23.78,4.91c-4.91,7.55-7.31,16.45-6.86,25.44,.07,1.39,.65,2.71,1.64,3.7,.99,.99,2.3,1.57,3.7,1.64,.72,.02,1.43,.05,2.14,.05h0c8.32,0,16.46-2.44,23.42-7,9.72-6.25,12.74-13.55,15.16-19.39h0c.86-2.64,2.21-5.09,3.99-7.22,1.05-1.05,1.64-2.48,1.64-3.96s-.59-2.91-1.64-3.96l-8.56-8.59c-1.06-1.05-2.48-1.64-3.97-1.64s-2.92,.59-3.97,1.64c-2.13,1.78-4.57,3.15-7.21,4.01-5.89,2.44-13.22,5.45-19.49,15.29h0Zm123.72-25.79l-22.54,22.53-3.17-17.41c6.3-3.26,12.37-6.96,18.17-11.06,2.4-1.71,4.75-3.46,7.06-5.27l.48,11.21Zm-53.66,2.26c9.99-.3,24.43-6.65,39.65-17.38,13.93-9.84,26.4-21.88,32.52-31.41,12.76-19.42,19.51-42.16,19.39-65.4h-.67c-22.84,.01-45.19,6.66-64.33,19.13-9.65,6.15-21.79,18.66-31.69,32.61-10.81,15.25-17.18,29.75-17.51,39.81h0c-.04,1.43-.63,2.79-1.64,3.8l-5.12,5.12,20.48,20.49,5.12-5.12c1.01-1.01,2.37-1.6,3.8-1.66h0Zm-42.9-53.75l22.54-22.53,11.2,.48c-1.76,2.23-3.48,4.54-5.14,6.87h0c-4.16,5.85-7.9,11.99-11.19,18.36l-17.41-3.19h0Zm124.53,11.03c15.02-22.86,22.38-49.89,21.02-77.21-.07-1.39-.66-2.71-1.64-3.7-.99-.99-2.31-1.57-3.7-1.64-27.14-1.34-54.02,5.93-76.78,20.77-7.51,5.09-14.37,11.07-20.43,17.83l-22.44-.95c-1.57-.07-3.1,.52-4.21,1.63l-31.87,31.88c-.98,.97-1.56,2.26-1.65,3.63-.08,1.37,.34,2.73,1.19,3.81,.85,1.08,2.07,1.81,3.42,2.05l25.3,4.62c-1.82,4.74-3.02,9.7-3.57,14.75l-7.59,7.57h0c-1.05,1.06-1.64,2.49-1.64,3.98s.59,2.92,1.64,3.98l28.43,28.42c1.05,1.06,2.48,1.66,3.97,1.66s2.92-.6,3.97-1.66l7.59-7.6h0c5.05-.54,10-1.74,14.73-3.56l4.59,25.31h0c.19,1.01,.64,1.95,1.32,2.72,.68,.77,1.55,1.34,2.53,1.65,.54,.17,1.11,.25,1.67,.25,1.49,0,2.93-.59,3.98-1.65l31.86-31.86c1.12-1.11,1.71-2.64,1.64-4.21l-.96-22.42h0c6.66-5.93,12.57-12.66,17.6-20.02h0Z"/><path class="cls-5" d="M1225.98,1023.81c1.05,1.06,1.64,2.49,1.64,3.98s-.59,2.92-1.64,3.98l-21.82,21.83c-1.06,1.04-2.49,1.63-3.97,1.63-1.49,0-2.92-.59-3.97-1.65-1.05-1.05-1.64-2.48-1.64-3.97,0-1.49,.59-2.92,1.64-3.97l21.83-21.82c1.06-1.05,2.49-1.64,3.97-1.64s2.92,.59,3.97,1.64h0Zm20.16-34.04c1.84-1.83,4.34-2.86,6.94-2.86s5.09,1.03,6.93,2.86c1.84,1.84,2.87,4.33,2.87,6.94s-1.03,5.1-2.87,6.94c-1.84,1.84-4.34,2.87-6.94,2.87s-5.1-1.03-6.94-2.87c-1.84-1.84-2.87-4.33-2.87-6.94s1.03-5.1,2.87-6.94h0Zm6.94,28c6.55,0,12.72-3.04,16.71-8.23,3.99-5.19,5.34-11.94,3.64-18.27-1.69-6.33-6.23-11.5-12.28-14.01-6.05-2.51-12.92-2.06-18.59,1.21-5.67,3.27-9.5,8.99-10.36,15.49-.86,6.49,1.36,13.01,5.98,17.64,3.94,3.96,9.3,6.18,14.88,6.17h0Zm-102.62,76.5h0c2.19-.83,4.32-1.83,6.36-2.99l1.68,1.68c-1.15,2.05-2.15,4.18-3,6.37-2.11,5.07-4.09,9.88-10.86,14.22-4.03,2.67-8.62,4.38-13.42,4.99,.62-4.75,2.3-9.3,4.92-13.31,4.37-6.85,9.19-8.83,14.31-10.96h0Zm-23.78,4.91c-4.91,7.55-7.31,16.45-6.86,25.44,.07,1.39,.65,2.71,1.64,3.7,.99,.99,2.3,1.57,3.7,1.64,.72,.02,1.43,.05,2.14,.05h0c8.32,0,16.46-2.44,23.42-7,9.72-6.25,12.74-13.55,15.16-19.39h0c.86-2.64,2.21-5.09,3.99-7.22,1.05-1.05,1.64-2.48,1.64-3.96s-.59-2.91-1.64-3.96l-8.56-8.59c-1.06-1.05-2.48-1.64-3.97-1.64s-2.92,.59-3.97,1.64c-2.13,1.78-4.57,3.15-7.21,4.01-5.89,2.44-13.22,5.45-19.49,15.29h0Zm123.72-25.79l-22.54,22.53-3.17-17.41c6.3-3.26,12.37-6.96,18.17-11.06,2.4-1.71,4.75-3.46,7.06-5.27l.48,11.21Zm-53.66,2.26c9.99-.3,24.43-6.65,39.65-17.38,13.93-9.84,26.4-21.88,32.52-31.41,12.76-19.42,19.51-42.16,19.39-65.4h-.67c-22.84,.01-45.19,6.66-64.33,19.13-9.65,6.15-21.79,18.66-31.69,32.61-10.81,15.25-17.18,29.75-17.51,39.81h0c-.04,1.43-.63,2.79-1.64,3.8l-5.12,5.12,20.48,20.49,5.12-5.12c1.01-1.01,2.37-1.6,3.8-1.66h0Zm-42.9-53.75l22.54-22.53,11.2,.48c-1.76,2.23-3.48,4.54-5.14,6.87h0c-4.16,5.85-7.9,11.99-11.19,18.36l-17.41-3.19h0Zm124.53,11.03c15.02-22.86,22.38-49.89,21.02-77.21-.07-1.39-.66-2.71-1.64-3.7-.99-.99-2.31-1.57-3.7-1.64-27.14-1.34-54.02,5.93-76.78,20.77-7.51,5.09-14.37,11.07-20.43,17.83l-22.44-.95c-1.57-.07-3.1,.52-4.21,1.63l-31.87,31.88c-.98,.97-1.56,2.26-1.65,3.63-.08,1.37,.34,2.73,1.19,3.81,.85,1.08,2.07,1.81,3.42,2.05l25.3,4.62c-1.82,4.74-3.02,9.7-3.57,14.75l-7.59,7.57h0c-1.05,1.06-1.64,2.49-1.64,3.98s.59,2.92,1.64,3.98l28.43,28.42c1.05,1.06,2.48,1.66,3.97,1.66s2.92-.6,3.97-1.66l7.59-7.6h0c5.05-.54,10-1.74,14.73-3.56l4.59,25.31h0c.19,1.01,.64,1.95,1.32,2.72,.68,.77,1.55,1.34,2.53,1.65,.54,.17,1.11,.25,1.67,.25,1.49,0,2.93-.59,3.98-1.65l31.86-31.86c1.12-1.11,1.71-2.64,1.64-4.21l-.96-22.42h0c6.66-5.93,12.57-12.66,17.6-20.02h0Z"/><path class="cls-5" d="M1720.64,1023.81c1.05,1.06,1.64,2.49,1.64,3.98s-.59,2.92-1.64,3.98l-21.82,21.83c-1.06,1.04-2.49,1.63-3.97,1.63-1.49,0-2.92-.59-3.97-1.65-1.05-1.05-1.64-2.48-1.64-3.97,0-1.49,.59-2.92,1.64-3.97l21.83-21.82c1.06-1.05,2.49-1.64,3.97-1.64s2.92,.59,3.97,1.64h0Zm20.16-34.04c1.84-1.83,4.34-2.86,6.94-2.86s5.09,1.03,6.93,2.86c1.84,1.84,2.87,4.33,2.87,6.94s-1.03,5.1-2.87,6.94c-1.84,1.84-4.34,2.87-6.94,2.87s-5.1-1.03-6.94-2.87c-1.84-1.84-2.87-4.33-2.87-6.94s1.03-5.1,2.87-6.94h0Zm6.94,28c6.55,0,12.72-3.04,16.71-8.23,3.99-5.19,5.34-11.94,3.64-18.27-1.69-6.33-6.23-11.5-12.28-14.01-6.05-2.51-12.92-2.06-18.59,1.21-5.67,3.27-9.5,8.99-10.36,15.49-.86,6.49,1.36,13.01,5.98,17.64,3.94,3.96,9.3,6.18,14.88,6.17h0Zm-102.62,76.5h0c2.19-.83,4.32-1.83,6.36-2.99l1.68,1.68c-1.15,2.05-2.15,4.18-3,6.37-2.11,5.07-4.09,9.88-10.86,14.22-4.03,2.67-8.62,4.38-13.42,4.99,.62-4.75,2.3-9.3,4.92-13.31,4.37-6.85,9.19-8.83,14.31-10.96h0Zm-23.78,4.91c-4.91,7.55-7.31,16.45-6.86,25.44,.07,1.39,.65,2.71,1.64,3.7,.99,.99,2.3,1.57,3.7,1.64,.72,.02,1.43,.05,2.14,.05h0c8.32,0,16.46-2.44,23.42-7,9.72-6.25,12.74-13.55,15.16-19.39h0c.86-2.64,2.21-5.09,3.99-7.22,1.05-1.05,1.64-2.48,1.64-3.96s-.59-2.91-1.64-3.96l-8.56-8.59c-1.06-1.05-2.48-1.64-3.97-1.64s-2.92,.59-3.97,1.64c-2.13,1.78-4.57,3.15-7.21,4.01-5.89,2.44-13.22,5.45-19.49,15.29h0Zm123.72-25.79l-22.54,22.53-3.17-17.41c6.3-3.26,12.37-6.96,18.17-11.06,2.4-1.71,4.75-3.46,7.06-5.27l.48,11.21Zm-53.66,2.26c9.99-.3,24.43-6.65,39.65-17.38,13.93-9.84,26.4-21.88,32.52-31.41,12.76-19.42,19.51-42.16,19.39-65.4h-.67c-22.84,.01-45.19,6.66-64.33,19.13-9.65,6.15-21.79,18.66-31.69,32.61-10.81,15.25-17.18,29.75-17.51,39.81h0c-.04,1.43-.63,2.79-1.64,3.8l-5.12,5.12,20.48,20.49,5.12-5.12c1.01-1.01,2.37-1.6,3.8-1.66h0Zm-42.9-53.75l22.54-22.53,11.2,.48c-1.76,2.23-3.48,4.54-5.14,6.87h0c-4.16,5.85-7.9,11.99-11.19,18.36l-17.41-3.19h0Zm124.53,11.03c15.02-22.86,22.38-49.89,21.02-77.21-.07-1.39-.66-2.71-1.64-3.7-.99-.99-2.31-1.57-3.7-1.64-27.14-1.34-54.02,5.93-76.78,20.77-7.51,5.09-14.37,11.07-20.43,17.83l-22.44-.95c-1.57-.07-3.1,.52-4.21,1.63l-31.87,31.88c-.98,.97-1.56,2.26-1.65,3.63-.08,1.37,.34,2.73,1.19,3.81,.85,1.08,2.07,1.81,3.42,2.05l25.3,4.62c-1.82,4.74-3.02,9.7-3.57,14.75l-7.59,7.57h0c-1.05,1.06-1.64,2.49-1.64,3.98s.59,2.92,1.64,3.98l28.43,28.42c1.05,1.06,2.48,1.66,3.97,1.66s2.92-.6,3.97-1.66l7.59-7.6h0c5.05-.54,10-1.74,14.73-3.56l4.59,25.31h0c.19,1.01,.64,1.95,1.32,2.72,.68,.77,1.55,1.34,2.53,1.65,.54,.17,1.11,.25,1.67,.25,1.49,0,2.93-.59,3.98-1.65l31.86-31.86c1.12-1.11,1.71-2.64,1.64-4.21l-.96-22.42h0c6.66-5.93,12.57-12.66,17.6-20.02h0Z"/><path class="cls-5" d="M-40.92,279.66c1.05,1.06,1.64,2.49,1.64,3.98s-.59,2.92-1.64,3.98l-21.82,21.83c-1.06,1.04-2.49,1.63-3.97,1.63-1.49,0-2.92-.59-3.97-1.65-1.05-1.05-1.64-2.48-1.64-3.97,0-1.49,.59-2.92,1.64-3.97l21.83-21.82c1.06-1.05,2.49-1.64,3.97-1.64s2.92,.59,3.97,1.64h0Zm20.16-34.04c1.84-1.83,4.34-2.86,6.94-2.86s5.09,1.03,6.93,2.86c1.84,1.84,2.87,4.33,2.87,6.94s-1.03,5.1-2.87,6.94c-1.84,1.84-4.34,2.87-6.94,2.87s-5.1-1.03-6.94-2.87c-1.84-1.84-2.87-4.33-2.87-6.94s1.03-5.1,2.87-6.94h0Zm6.94,28c6.55,0,12.72-3.04,16.71-8.23,3.99-5.19,5.34-11.94,3.64-18.27-1.69-6.33-6.23-11.5-12.28-14.01-6.05-2.51-12.92-2.06-18.59,1.21-5.67,3.27-9.5,8.99-10.36,15.49-.86,6.49,1.36,13.01,5.98,17.64,3.94,3.96,9.3,6.18,14.88,6.17h0Zm-102.62,76.5h0c2.19-.83,4.32-1.83,6.36-2.99l1.68,1.68c-1.15,2.05-2.15,4.18-3,6.37-2.11,5.07-4.09,9.88-10.86,14.22-4.03,2.67-8.62,4.38-13.42,4.99,.62-4.75,2.3-9.3,4.92-13.31,4.37-6.85,9.19-8.83,14.31-10.96h0Zm-23.78,4.91c-4.91,7.55-7.31,16.45-6.86,25.44,.07,1.39,.65,2.71,1.64,3.7,.99,.99,2.3,1.57,3.7,1.64,.72,.02,1.43,.05,2.14,.05h0c8.32,0,16.46-2.44,23.42-7,9.72-6.25,12.74-13.55,15.16-19.39h0c.86-2.64,2.21-5.09,3.99-7.22,1.05-1.05,1.64-2.48,1.64-3.96s-.59-2.91-1.64-3.96l-8.56-8.59c-1.06-1.05-2.48-1.64-3.97-1.64s-2.92,.59-3.97,1.64c-2.13,1.78-4.57,3.15-7.21,4.01-5.89,2.44-13.22,5.45-19.49,15.29h0Zm123.72-25.79l-22.54,22.53-3.17-17.41c6.3-3.26,12.37-6.96,18.17-11.06,2.4-1.71,4.75-3.46,7.06-5.27l.48,11.21Zm-53.66,2.26c9.99-.3,24.43-6.65,39.65-17.38,13.93-9.84,26.4-21.88,32.52-31.41,12.76-19.42,19.51-42.16,19.39-65.4h-.67c-22.84,.01-45.19,6.66-64.33,19.13-9.65,6.15-21.79,18.66-31.69,32.61-10.81,15.25-17.18,29.75-17.51,39.81h0c-.04,1.43-.63,2.79-1.64,3.8l-5.12,5.12,20.48,20.49,5.12-5.12c1.01-1.01,2.37-1.6,3.8-1.66h0Zm-42.9-53.75l22.54-22.53,11.2,.48c-1.76,2.23-3.48,4.54-5.14,6.87h0c-4.16,5.85-7.9,11.99-11.19,18.36l-17.41-3.19h0Zm124.53,11.03c15.02-22.86,22.38-49.89,21.02-77.21-.07-1.39-.66-2.71-1.64-3.7-.99-.99-2.31-1.57-3.7-1.64-27.14-1.34-54.02,5.93-76.78,20.77-7.51,5.09-14.37,11.07-20.43,17.83l-22.44-.95c-1.57-.07-3.1,.52-4.21,1.63l-31.87,31.88c-.98,.97-1.56,2.26-1.65,3.63-.08,1.37,.34,2.73,1.19,3.81,.85,1.08,2.07,1.81,3.42,2.05l25.3,4.62c-1.82,4.74-3.02,9.7-3.57,14.75l-7.59,7.57h0c-1.05,1.06-1.64,2.49-1.64,3.98s.59,2.92,1.64,3.98l28.43,28.42c1.05,1.06,2.48,1.66,3.97,1.66s2.92-.6,3.97-1.66l7.59-7.6h0c5.05-.54,10-1.74,14.73-3.56l4.59,25.31h0c.19,1.01,.64,1.95,1.32,2.72,.68,.77,1.55,1.34,2.53,1.65,.54,.17,1.11,.25,1.67,.25,1.49,0,2.93-.59,3.98-1.65l31.86-31.86c1.12-1.11,1.71-2.64,1.64-4.21l-.96-22.42h0c6.66-5.93,12.57-12.66,17.6-20.02h0Z"/><path class="cls-5" d="M453.73,279.66c1.05,1.06,1.64,2.49,1.64,3.98s-.59,2.92-1.64,3.98l-21.82,21.83c-1.06,1.04-2.49,1.63-3.97,1.63-1.49,0-2.92-.59-3.97-1.65-1.05-1.05-1.64-2.48-1.64-3.97,0-1.49,.59-2.92,1.64-3.97l21.83-21.82c1.06-1.05,2.49-1.64,3.97-1.64s2.92,.59,3.97,1.64h0Zm20.16-34.04c1.84-1.83,4.34-2.86,6.94-2.86s5.09,1.03,6.93,2.86c1.84,1.84,2.87,4.33,2.87,6.94s-1.03,5.1-2.87,6.94c-1.84,1.84-4.34,2.87-6.94,2.87s-5.1-1.03-6.94-2.87c-1.84-1.84-2.87-4.33-2.87-6.94s1.03-5.1,2.87-6.94h0Zm6.94,28c6.55,0,12.72-3.04,16.71-8.23,3.99-5.19,5.34-11.94,3.64-18.27-1.69-6.33-6.23-11.5-12.28-14.01-6.05-2.51-12.92-2.06-18.59,1.21-5.67,3.27-9.5,8.99-10.36,15.49-.86,6.49,1.36,13.01,5.98,17.64,3.94,3.96,9.3,6.18,14.88,6.17h0Zm-102.62,76.5h0c2.19-.83,4.32-1.83,6.36-2.99l1.68,1.68c-1.15,2.05-2.15,4.18-3,6.37-2.11,5.07-4.09,9.88-10.86,14.22-4.03,2.67-8.62,4.38-13.42,4.99,.62-4.75,2.3-9.3,4.92-13.31,4.37-6.85,9.19-8.83,14.31-10.96h0Zm-23.78,4.91c-4.91,7.55-7.31,16.45-6.86,25.44,.07,1.39,.65,2.71,1.64,3.7,.99,.99,2.3,1.57,3.7,1.64,.72,.02,1.43,.05,2.14,.05h0c8.32,0,16.46-2.44,23.42-7,9.72-6.25,12.74-13.55,15.16-19.39h0c.86-2.64,2.21-5.09,3.99-7.22,1.05-1.05,1.64-2.48,1.64-3.96s-.59-2.91-1.64-3.96l-8.56-8.59c-1.06-1.05-2.48-1.64-3.97-1.64s-2.92,.59-3.97,1.64c-2.13,1.78-4.57,3.15-7.21,4.01-5.89,2.44-13.22,5.45-19.49,15.29h0Zm123.72-25.79l-22.54,22.53-3.17-17.41c6.3-3.26,12.37-6.96,18.17-11.06,2.4-1.71,4.75-3.46,7.06-5.27l.48,11.21Zm-53.66,2.26c9.99-.3,24.43-6.65,39.65-17.38,13.93-9.84,26.4-21.88,32.52-31.41,12.76-19.42,19.51-42.16,19.39-65.4h-.67c-22.84,.01-45.19,6.66-64.33,19.13-9.65,6.15-21.79,18.66-31.69,32.61-10.81,15.25-17.18,29.75-17.51,39.81h0c-.04,1.43-.63,2.79-1.64,3.8l-5.12,5.12,20.48,20.49,5.12-5.12c1.01-1.01,2.37-1.6,3.8-1.66h0Zm-42.9-53.75l22.54-22.53,11.2,.48c-1.76,2.23-3.48,4.54-5.14,6.87h0c-4.16,5.85-7.9,11.99-11.19,18.36l-17.41-3.19h0Zm124.53,11.03c15.02-22.86,22.38-49.89,21.02-77.21-.07-1.39-.66-2.71-1.64-3.7-.99-.99-2.31-1.57-3.7-1.64-27.14-1.34-54.02,5.93-76.78,20.77-7.51,5.09-14.37,11.07-20.43,17.83l-22.44-.95c-1.57-.07-3.1,.52-4.21,1.63l-31.87,31.88c-.98,.97-1.56,2.26-1.65,3.63-.08,1.37,.34,2.73,1.19,3.81,.85,1.08,2.07,1.81,3.42,2.05l25.3,4.62c-1.82,4.74-3.02,9.7-3.57,14.75l-7.59,7.57h0c-1.05,1.06-1.64,2.49-1.64,3.98s.59,2.92,1.64,3.98l28.43,28.42c1.05,1.06,2.48,1.66,3.97,1.66s2.92-.6,3.97-1.66l7.59-7.6h0c5.05-.54,10-1.74,14.73-3.56l4.59,25.31h0c.19,1.01,.64,1.95,1.32,2.72,.68,.77,1.55,1.34,2.53,1.65,.54,.17,1.11,.25,1.67,.25,1.49,0,2.93-.59,3.98-1.65l31.86-31.86c1.12-1.11,1.71-2.64,1.64-4.21l-.96-22.42h0c6.66-5.93,12.57-12.66,17.6-20.02h0Z"/><path class="cls-5" d="M948.39,279.66c1.05,1.06,1.64,2.49,1.64,3.98s-.59,2.92-1.64,3.98l-21.82,21.83c-1.06,1.04-2.49,1.63-3.97,1.63-1.49,0-2.92-.59-3.97-1.65-1.05-1.05-1.64-2.48-1.64-3.97,0-1.49,.59-2.92,1.64-3.97l21.83-21.82c1.06-1.05,2.49-1.64,3.97-1.64s2.92,.59,3.97,1.64h0Zm20.16-34.04c1.84-1.83,4.34-2.86,6.94-2.86s5.09,1.03,6.93,2.86c1.84,1.84,2.87,4.33,2.87,6.94s-1.03,5.1-2.87,6.94c-1.84,1.84-4.34,2.87-6.94,2.87s-5.1-1.03-6.94-2.87c-1.84-1.84-2.87-4.33-2.87-6.94s1.03-5.1,2.87-6.94h0Zm6.94,28c6.55,0,12.72-3.04,16.71-8.23,3.99-5.19,5.34-11.94,3.64-18.27-1.69-6.33-6.23-11.5-12.28-14.01-6.05-2.51-12.92-2.06-18.59,1.21-5.67,3.27-9.5,8.99-10.36,15.49-.86,6.49,1.36,13.01,5.98,17.64,3.94,3.96,9.3,6.18,14.88,6.17h0Zm-102.62,76.5h0c2.19-.83,4.32-1.83,6.36-2.99l1.68,1.68c-1.15,2.05-2.15,4.18-3,6.37-2.11,5.07-4.09,9.88-10.86,14.22-4.03,2.67-8.62,4.38-13.42,4.99,.62-4.75,2.3-9.3,4.92-13.31,4.37-6.85,9.19-8.83,14.31-10.96h0Zm-23.78,4.91c-4.91,7.55-7.31,16.45-6.86,25.44,.07,1.39,.65,2.71,1.64,3.7,.99,.99,2.3,1.57,3.7,1.64,.72,.02,1.43,.05,2.14,.05h0c8.32,0,16.46-2.44,23.42-7,9.72-6.25,12.74-13.55,15.16-19.39h0c.86-2.64,2.21-5.09,3.99-7.22,1.05-1.05,1.64-2.48,1.64-3.96s-.59-2.91-1.64-3.96l-8.56-8.59c-1.06-1.05-2.48-1.64-3.97-1.64s-2.92,.59-3.97,1.64c-2.13,1.78-4.57,3.15-7.21,4.01-5.89,2.44-13.22,5.45-19.49,15.29h0Zm123.72-25.79l-22.54,22.53-3.17-17.41c6.3-3.26,12.37-6.96,18.17-11.06,2.4-1.71,4.75-3.46,7.06-5.27l.48,11.21Zm-53.66,2.26c9.99-.3,24.43-6.65,39.65-17.38,13.93-9.84,26.4-21.88,32.52-31.41,12.76-19.42,19.51-42.16,19.39-65.4h-.67c-22.84,.01-45.19,6.66-64.33,19.13-9.65,6.15-21.79,18.66-31.69,32.61-10.81,15.25-17.18,29.75-17.51,39.81h0c-.04,1.43-.63,2.79-1.64,3.8l-5.12,5.12,20.48,20.49,5.12-5.12c1.01-1.01,2.37-1.6,3.8-1.66h0Zm-42.9-53.75l22.54-22.53,11.2,.48c-1.76,2.23-3.48,4.54-5.14,6.87h0c-4.16,5.85-7.9,11.99-11.19,18.36l-17.41-3.19h0Zm124.53,11.03c15.02-22.86,22.38-49.89,21.02-77.21-.07-1.39-.66-2.71-1.64-3.7-.99-.99-2.31-1.57-3.7-1.64-27.14-1.34-54.02,5.93-76.78,20.77-7.51,5.09-14.37,11.07-20.43,17.83l-22.44-.95c-1.57-.07-3.1,.52-4.21,1.63l-31.87,31.88c-.98,.97-1.56,2.26-1.65,3.63-.08,1.37,.34,2.73,1.19,3.81,.85,1.08,2.07,1.81,3.42,2.05l25.3,4.62c-1.82,4.74-3.02,9.7-3.57,14.75l-7.59,7.57h0c-1.05,1.06-1.64,2.49-1.64,3.98s.59,2.92,1.64,3.98l28.43,28.42c1.05,1.06,2.48,1.66,3.97,1.66s2.92-.6,3.97-1.66l7.59-7.6h0c5.05-.54,10-1.74,14.73-3.56l4.59,25.31h0c.19,1.01,.64,1.95,1.32,2.72,.68,.77,1.55,1.34,2.53,1.65,.54,.17,1.11,.25,1.67,.25,1.49,0,2.93-.59,3.98-1.65l31.86-31.86c1.12-1.11,1.71-2.64,1.64-4.21l-.96-22.42h0c6.66-5.93,12.57-12.66,17.6-20.02h0Z"/><path class="cls-5" d="M1443.04,279.66c1.05,1.06,1.64,2.49,1.64,3.98s-.59,2.92-1.64,3.98l-21.82,21.83c-1.06,1.04-2.49,1.63-3.97,1.63-1.49,0-2.92-.59-3.97-1.65-1.05-1.05-1.64-2.48-1.64-3.97,0-1.49,.59-2.92,1.64-3.97l21.83-21.82c1.06-1.05,2.49-1.64,3.97-1.64s2.92,.59,3.97,1.64h0Zm20.16-34.04c1.84-1.83,4.34-2.86,6.94-2.86s5.09,1.03,6.93,2.86c1.84,1.84,2.87,4.33,2.87,6.94s-1.03,5.1-2.87,6.94-4.34,2.87-6.94,2.87-5.1-1.03-6.94-2.87c-1.84-1.84-2.87-4.33-2.87-6.94s1.03-5.1,2.87-6.94h0Zm6.94,28c6.55,0,12.72-3.04,16.71-8.23,3.99-5.19,5.34-11.94,3.64-18.27-1.69-6.33-6.23-11.5-12.28-14.01-6.05-2.51-12.92-2.06-18.59,1.21-5.67,3.27-9.5,8.99-10.36,15.49-.86,6.49,1.36,13.01,5.98,17.64,3.94,3.96,9.3,6.18,14.88,6.17h0Zm-102.62,76.5h0c2.19-.83,4.32-1.83,6.36-2.99l1.68,1.68c-1.15,2.05-2.15,4.18-3,6.37-2.11,5.07-4.09,9.88-10.86,14.22-4.03,2.67-8.62,4.38-13.42,4.99,.62-4.75,2.3-9.3,4.92-13.31,4.37-6.85,9.19-8.83,14.31-10.96h0Zm-23.78,4.91c-4.91,7.55-7.31,16.45-6.86,25.44,.07,1.39,.65,2.71,1.64,3.7,.99,.99,2.3,1.57,3.7,1.64,.72,.02,1.43,.05,2.14,.05h0c8.32,0,16.46-2.44,23.42-7,9.72-6.25,12.74-13.55,15.16-19.39h0c.86-2.64,2.21-5.09,3.99-7.22,1.05-1.05,1.64-2.48,1.64-3.96s-.59-2.91-1.64-3.96l-8.56-8.59c-1.06-1.05-2.48-1.64-3.97-1.64s-2.92,.59-3.97,1.64c-2.13,1.78-4.57,3.15-7.21,4.01-5.89,2.44-13.22,5.45-19.49,15.29h0Zm123.72-25.79l-22.54,22.53-3.17-17.41c6.3-3.26,12.37-6.96,18.17-11.06,2.4-1.71,4.75-3.46,7.06-5.27l.48,11.21Zm-53.66,2.26c9.99-.3,24.43-6.65,39.65-17.38,13.93-9.84,26.4-21.88,32.52-31.41,12.76-19.42,19.51-42.16,19.39-65.4h-.67c-22.84,.01-45.19,6.66-64.33,19.13-9.65,6.15-21.79,18.66-31.69,32.61-10.81,15.25-17.18,29.75-17.51,39.81h0c-.04,1.43-.63,2.79-1.64,3.8l-5.12,5.12,20.48,20.49,5.12-5.12c1.01-1.01,2.37-1.6,3.8-1.66h0Zm-42.9-53.75l22.54-22.53,11.2,.48c-1.76,2.23-3.48,4.54-5.14,6.87h0c-4.16,5.85-7.9,11.99-11.19,18.36l-17.41-3.19h0Zm124.53,11.03c15.02-22.86,22.38-49.89,21.02-77.21-.07-1.39-.66-2.71-1.64-3.7-.99-.99-2.31-1.57-3.7-1.64-27.14-1.34-54.02,5.93-76.78,20.77-7.51,5.09-14.37,11.07-20.43,17.83l-22.44-.95c-1.57-.07-3.1,.52-4.21,1.63l-31.87,31.88c-.98,.97-1.56,2.26-1.65,3.63-.08,1.37,.34,2.73,1.19,3.81,.85,1.08,2.07,1.81,3.42,2.05l25.3,4.62c-1.82,4.74-3.02,9.7-3.57,14.75l-7.59,7.57h0c-1.05,1.06-1.64,2.49-1.64,3.98s.59,2.92,1.64,3.98l28.43,28.42c1.05,1.06,2.48,1.66,3.97,1.66s2.92-.6,3.97-1.66l7.59-7.6h0c5.05-.54,10-1.74,14.73-3.56l4.59,25.31h0c.19,1.01,.64,1.95,1.32,2.72,.68,.77,1.55,1.34,2.53,1.65,.54,.17,1.11,.25,1.67,.25,1.49,0,2.93-.59,3.98-1.65l31.86-31.86c1.12-1.11,1.71-2.64,1.64-4.21l-.96-22.42h0c6.66-5.93,12.57-12.66,17.6-20.02h0Z"/><path class="cls-5" d="M1937.7,279.66c1.05,1.06,1.64,2.49,1.64,3.98s-.59,2.92-1.64,3.98l-21.82,21.83c-1.06,1.04-2.49,1.63-3.97,1.63-1.49,0-2.92-.59-3.97-1.65-1.05-1.05-1.64-2.48-1.64-3.97,0-1.49,.59-2.92,1.64-3.97l21.83-21.82c1.06-1.05,2.49-1.64,3.97-1.64s2.92,.59,3.97,1.64h0Zm20.16-34.04c1.84-1.83,4.34-2.86,6.94-2.86s5.09,1.03,6.93,2.86c1.84,1.84,2.87,4.33,2.87,6.94s-1.03,5.1-2.87,6.94-4.34,2.87-6.94,2.87-5.1-1.03-6.94-2.87c-1.84-1.84-2.87-4.33-2.87-6.94s1.03-5.1,2.87-6.94h0Zm6.94,28c6.55,0,12.72-3.04,16.71-8.23,3.99-5.19,5.34-11.94,3.64-18.27-1.69-6.33-6.23-11.5-12.28-14.01-6.05-2.51-12.92-2.06-18.59,1.21-5.67,3.27-9.5,8.99-10.36,15.49-.86,6.49,1.36,13.01,5.98,17.64,3.94,3.96,9.3,6.18,14.88,6.17h0Zm-102.62,76.5h0c2.19-.83,4.32-1.83,6.36-2.99l1.68,1.68c-1.15,2.05-2.15,4.18-3,6.37-2.11,5.07-4.09,9.88-10.86,14.22-4.03,2.67-8.62,4.38-13.42,4.99,.62-4.75,2.3-9.3,4.92-13.31,4.37-6.85,9.19-8.83,14.31-10.96h0Zm-23.78,4.91c-4.91,7.55-7.31,16.45-6.86,25.44,.07,1.39,.65,2.71,1.64,3.7,.99,.99,2.3,1.57,3.7,1.64,.72,.02,1.43,.05,2.14,.05h0c8.32,0,16.46-2.44,23.42-7,9.72-6.25,12.74-13.55,15.16-19.39h0c.86-2.64,2.21-5.09,3.99-7.22,1.05-1.05,1.64-2.48,1.64-3.96s-.59-2.91-1.64-3.96l-8.56-8.59c-1.06-1.05-2.48-1.64-3.97-1.64s-2.92,.59-3.97,1.64c-2.13,1.78-4.57,3.15-7.21,4.01-5.89,2.44-13.22,5.45-19.49,15.29h0Zm123.72-25.79l-22.54,22.53-3.17-17.41c6.3-3.26,12.37-6.96,18.17-11.06,2.4-1.71,4.75-3.46,7.06-5.27l.48,11.21Zm-53.66,2.26c9.99-.3,24.43-6.65,39.65-17.38,13.93-9.84,26.4-21.88,32.52-31.41,12.76-19.42,19.51-42.16,19.39-65.4h-.67c-22.84,.01-45.19,6.66-64.33,19.13-9.65,6.15-21.79,18.66-31.69,32.61-10.81,15.25-17.18,29.75-17.51,39.81h0c-.04,1.43-.63,2.79-1.64,3.8l-5.12,5.12,20.48,20.49,5.12-5.12c1.01-1.01,2.37-1.6,3.8-1.66h0Zm-42.9-53.75l22.54-22.53,11.2,.48c-1.76,2.23-3.48,4.54-5.14,6.87h0c-4.16,5.85-7.9,11.99-11.19,18.36l-17.41-3.19h0Zm124.53,11.03c15.02-22.86,22.38-49.89,21.02-77.21-.07-1.39-.66-2.71-1.64-3.7-.99-.99-2.31-1.57-3.7-1.64-27.14-1.34-54.02,5.93-76.78,20.77-7.51,5.09-14.37,11.07-20.43,17.83l-22.44-.95c-1.57-.07-3.1,.52-4.21,1.63l-31.87,31.88c-.98,.97-1.56,2.26-1.65,3.63-.08,1.37,.34,2.73,1.19,3.81,.85,1.08,2.07,1.81,3.42,2.05l25.3,4.62c-1.82,4.74-3.02,9.7-3.57,14.75l-7.59,7.57h0c-1.05,1.06-1.64,2.49-1.64,3.98s.59,2.92,1.64,3.98l28.43,28.42c1.05,1.06,2.48,1.66,3.97,1.66s2.92-.6,3.97-1.66l7.59-7.6h0c5.05-.54,10-1.74,14.73-3.56l4.59,25.31h0c.19,1.01,.64,1.95,1.32,2.72,.68,.77,1.55,1.34,2.53,1.65,.54,.17,1.11,.25,1.67,.25,1.49,0,2.93-.59,3.98-1.65l31.86-31.86c1.12-1.11,1.71-2.64,1.64-4.21l-.96-22.42h0c6.66-5.93,12.57-12.66,17.6-20.02h0Z"/><path class="cls-5" d="M-40.92,775.76c1.05,1.06,1.64,2.49,1.64,3.98s-.59,2.92-1.64,3.98l-21.82,21.83c-1.06,1.04-2.49,1.63-3.97,1.63-1.49,0-2.92-.59-3.97-1.65-1.05-1.05-1.64-2.48-1.64-3.97,0-1.49,.59-2.92,1.64-3.97l21.83-21.82c1.06-1.05,2.49-1.64,3.97-1.64s2.92,.59,3.97,1.64h0Zm20.16-34.04c1.84-1.83,4.34-2.86,6.94-2.86s5.09,1.03,6.93,2.86c1.84,1.84,2.87,4.33,2.87,6.94s-1.03,5.1-2.87,6.94c-1.84,1.84-4.34,2.87-6.94,2.87s-5.1-1.03-6.94-2.87c-1.84-1.84-2.87-4.33-2.87-6.94s1.03-5.1,2.87-6.94h0Zm6.94,28c6.55,0,12.72-3.04,16.71-8.23,3.99-5.19,5.34-11.94,3.64-18.27-1.69-6.33-6.23-11.5-12.28-14.01-6.05-2.51-12.92-2.06-18.59,1.21-5.67,3.27-9.5,8.99-10.36,15.49-.86,6.49,1.36,13.01,5.98,17.64,3.94,3.96,9.3,6.18,14.88,6.17h0Zm-102.62,76.5h0c2.19-.83,4.32-1.83,6.36-2.99l1.68,1.68c-1.15,2.05-2.15,4.18-3,6.37-2.11,5.07-4.09,9.88-10.86,14.22-4.03,2.67-8.62,4.38-13.42,4.99,.62-4.75,2.3-9.3,4.92-13.31,4.37-6.85,9.19-8.83,14.31-10.96h0Zm-23.78,4.91c-4.91,7.55-7.31,16.45-6.86,25.44,.07,1.39,.65,2.71,1.64,3.7,.99,.99,2.3,1.57,3.7,1.64,.72,.02,1.43,.05,2.14,.05h0c8.32,0,16.46-2.44,23.42-7,9.72-6.25,12.74-13.55,15.16-19.39h0c.86-2.64,2.21-5.09,3.99-7.22,1.05-1.05,1.64-2.48,1.64-3.96s-.59-2.91-1.64-3.96l-8.56-8.59c-1.06-1.05-2.48-1.64-3.97-1.64s-2.92,.59-3.97,1.64c-2.13,1.78-4.57,3.15-7.21,4.01-5.89,2.44-13.22,5.45-19.49,15.29h0Zm123.72-25.79l-22.54,22.53-3.17-17.41c6.3-3.26,12.37-6.96,18.17-11.06,2.4-1.71,4.75-3.46,7.06-5.27l.48,11.21Zm-53.66,2.26c9.99-.3,24.43-6.65,39.65-17.38,13.93-9.84,26.4-21.88,32.52-31.41,12.76-19.42,19.51-42.16,19.39-65.4h-.67c-22.84,.01-45.19,6.66-64.33,19.13-9.65,6.15-21.79,18.66-31.69,32.61-10.81,15.25-17.18,29.75-17.51,39.81h0c-.04,1.43-.63,2.79-1.64,3.8l-5.12,5.12,20.48,20.49,5.12-5.12c1.01-1.01,2.37-1.6,3.8-1.66h0Zm-42.9-53.75l22.54-22.53,11.2,.48c-1.76,2.23-3.48,4.54-5.14,6.87h0c-4.16,5.85-7.9,11.99-11.19,18.36l-17.41-3.19h0Zm124.53,11.03c15.02-22.86,22.38-49.89,21.02-77.21-.07-1.39-.66-2.71-1.64-3.7-.99-.99-2.31-1.57-3.7-1.64-27.14-1.34-54.02,5.93-76.78,20.77-7.51,5.09-14.37,11.07-20.43,17.83l-22.44-.95c-1.57-.07-3.1,.52-4.21,1.63l-31.87,31.88c-.98,.97-1.56,2.26-1.65,3.63-.08,1.37,.34,2.73,1.19,3.81,.85,1.08,2.07,1.81,3.42,2.05l25.3,4.62c-1.82,4.74-3.02,9.7-3.57,14.75l-7.59,7.57h0c-1.05,1.06-1.64,2.49-1.64,3.98s.59,2.92,1.64,3.98l28.43,28.42c1.05,1.06,2.48,1.66,3.97,1.66s2.92-.6,3.97-1.66l7.59-7.6h0c5.05-.54,10-1.74,14.73-3.56l4.59,25.31h0c.19,1.01,.64,1.95,1.32,2.72,.68,.77,1.55,1.34,2.53,1.65,.54,.17,1.11,.25,1.67,.25,1.49,0,2.93-.59,3.98-1.65l31.86-31.86c1.12-1.11,1.71-2.64,1.64-4.21l-.96-22.42h0c6.66-5.93,12.57-12.66,17.6-20.02h0Z"/><path class="cls-5" d="M453.73,775.76c1.05,1.06,1.64,2.49,1.64,3.98s-.59,2.92-1.64,3.98l-21.82,21.83c-1.06,1.04-2.49,1.63-3.97,1.63-1.49,0-2.92-.59-3.97-1.65-1.05-1.05-1.64-2.48-1.64-3.97,0-1.49,.59-2.92,1.64-3.97l21.83-21.82c1.06-1.05,2.49-1.64,3.97-1.64s2.92,.59,3.97,1.64h0Zm20.16-34.04c1.84-1.83,4.34-2.86,6.94-2.86s5.09,1.03,6.93,2.86c1.84,1.84,2.87,4.33,2.87,6.94s-1.03,5.1-2.87,6.94c-1.84,1.84-4.34,2.87-6.94,2.87s-5.1-1.03-6.94-2.87c-1.84-1.84-2.87-4.33-2.87-6.94s1.03-5.1,2.87-6.94h0Zm6.94,28c6.55,0,12.72-3.04,16.71-8.23,3.99-5.19,5.34-11.94,3.64-18.27-1.69-6.33-6.23-11.5-12.28-14.01-6.05-2.51-12.92-2.06-18.59,1.21-5.67,3.27-9.5,8.99-10.36,15.49-.86,6.49,1.36,13.01,5.98,17.64,3.94,3.96,9.3,6.18,14.88,6.17h0Zm-102.62,76.5h0c2.19-.83,4.32-1.83,6.36-2.99l1.68,1.68c-1.15,2.05-2.15,4.18-3,6.37-2.11,5.07-4.09,9.88-10.86,14.22-4.03,2.67-8.62,4.38-13.42,4.99,.62-4.75,2.3-9.3,4.92-13.31,4.37-6.85,9.19-8.83,14.31-10.96h0Zm-23.78,4.91c-4.91,7.55-7.31,16.45-6.86,25.44,.07,1.39,.65,2.71,1.64,3.7,.99,.99,2.3,1.57,3.7,1.64,.72,.02,1.43,.05,2.14,.05h0c8.32,0,16.46-2.44,23.42-7,9.72-6.25,12.74-13.55,15.16-19.39h0c.86-2.64,2.21-5.09,3.99-7.22,1.05-1.05,1.64-2.48,1.64-3.96s-.59-2.91-1.64-3.96l-8.56-8.59c-1.06-1.05-2.48-1.64-3.97-1.64s-2.92,.59-3.97,1.64c-2.13,1.78-4.57,3.15-7.21,4.01-5.89,2.44-13.22,5.45-19.49,15.29h0Zm123.72-25.79l-22.54,22.53-3.17-17.41c6.3-3.26,12.37-6.96,18.17-11.06,2.4-1.71,4.75-3.46,7.06-5.27l.48,11.21Zm-53.66,2.26c9.99-.3,24.43-6.65,39.65-17.38,13.93-9.84,26.4-21.88,32.52-31.41,12.76-19.42,19.51-42.16,19.39-65.4h-.67c-22.84,.01-45.19,6.66-64.33,19.13-9.65,6.15-21.79,18.66-31.69,32.61-10.81,15.25-17.18,29.75-17.51,39.81h0c-.04,1.43-.63,2.79-1.64,3.8l-5.12,5.12,20.48,20.49,5.12-5.12c1.01-1.01,2.37-1.6,3.8-1.66h0Zm-42.9-53.75l22.54-22.53,11.2,.48c-1.76,2.23-3.48,4.54-5.14,6.87h0c-4.16,5.85-7.9,11.99-11.19,18.36l-17.41-3.19h0Zm124.53,11.03c15.02-22.86,22.38-49.89,21.02-77.21-.07-1.39-.66-2.71-1.64-3.7-.99-.99-2.31-1.57-3.7-1.64-27.14-1.34-54.02,5.93-76.78,20.77-7.51,5.09-14.37,11.07-20.43,17.83l-22.44-.95c-1.57-.07-3.1,.52-4.21,1.63l-31.87,31.88c-.98,.97-1.56,2.26-1.65,3.63-.08,1.37,.34,2.73,1.19,3.81,.85,1.08,2.07,1.81,3.42,2.05l25.3,4.62c-1.82,4.74-3.02,9.7-3.57,14.75l-7.59,7.57h0c-1.05,1.06-1.64,2.49-1.64,3.98s.59,2.92,1.64,3.98l28.43,28.42c1.05,1.06,2.48,1.66,3.97,1.66s2.92-.6,3.97-1.66l7.59-7.6h0c5.05-.54,10-1.74,14.73-3.56l4.59,25.31h0c.19,1.01,.64,1.95,1.32,2.72,.68,.77,1.55,1.34,2.53,1.65,.54,.17,1.11,.25,1.67,.25,1.49,0,2.93-.59,3.98-1.65l31.86-31.86c1.12-1.11,1.71-2.64,1.64-4.21l-.96-22.42h0c6.66-5.93,12.57-12.66,17.6-20.02h0Z"/><path class="cls-5" d="M948.39,775.76c1.05,1.06,1.64,2.49,1.64,3.98s-.59,2.92-1.64,3.98l-21.82,21.83c-1.06,1.04-2.49,1.63-3.97,1.63-1.49,0-2.92-.59-3.97-1.65-1.05-1.05-1.64-2.48-1.64-3.97,0-1.49,.59-2.92,1.64-3.97l21.83-21.82c1.06-1.05,2.49-1.64,3.97-1.64s2.92,.59,3.97,1.64h0Zm20.16-34.04c1.84-1.83,4.34-2.86,6.94-2.86s5.09,1.03,6.93,2.86c1.84,1.84,2.87,4.33,2.87,6.94s-1.03,5.1-2.87,6.94c-1.84,1.84-4.34,2.87-6.94,2.87s-5.1-1.03-6.94-2.87c-1.84-1.84-2.87-4.33-2.87-6.94s1.03-5.1,2.87-6.94h0Zm6.94,28c6.55,0,12.72-3.04,16.71-8.23,3.99-5.19,5.34-11.94,3.64-18.27-1.69-6.33-6.23-11.5-12.28-14.01-6.05-2.51-12.92-2.06-18.59,1.21-5.67,3.27-9.5,8.99-10.36,15.49-.86,6.49,1.36,13.01,5.98,17.64,3.94,3.96,9.3,6.18,14.88,6.17h0Zm-102.62,76.5h0c2.19-.83,4.32-1.83,6.36-2.99l1.68,1.68c-1.15,2.05-2.15,4.18-3,6.37-2.11,5.07-4.09,9.88-10.86,14.22-4.03,2.67-8.62,4.38-13.42,4.99,.62-4.75,2.3-9.3,4.92-13.31,4.37-6.85,9.19-8.83,14.31-10.96h0Zm-23.78,4.91c-4.91,7.55-7.31,16.45-6.86,25.44,.07,1.39,.65,2.71,1.64,3.7,.99,.99,2.3,1.57,3.7,1.64,.72,.02,1.43,.05,2.14,.05h0c8.32,0,16.46-2.44,23.42-7,9.72-6.25,12.74-13.55,15.16-19.39h0c.86-2.64,2.21-5.09,3.99-7.22,1.05-1.05,1.64-2.48,1.64-3.96s-.59-2.91-1.64-3.96l-8.56-8.59c-1.06-1.05-2.48-1.64-3.97-1.64s-2.92,.59-3.97,1.64c-2.13,1.78-4.57,3.15-7.21,4.01-5.89,2.44-13.22,5.45-19.49,15.29h0Zm123.72-25.79l-22.54,22.53-3.17-17.41c6.3-3.26,12.37-6.96,18.17-11.06,2.4-1.71,4.75-3.46,7.06-5.27l.48,11.21Zm-53.66,2.26c9.99-.3,24.43-6.65,39.65-17.38,13.93-9.84,26.4-21.88,32.52-31.41,12.76-19.42,19.51-42.16,19.39-65.4h-.67c-22.84,.01-45.19,6.66-64.33,19.13-9.65,6.15-21.79,18.66-31.69,32.61-10.81,15.25-17.18,29.75-17.51,39.81h0c-.04,1.43-.63,2.79-1.64,3.8l-5.12,5.12,20.48,20.49,5.12-5.12c1.01-1.01,2.37-1.6,3.8-1.66h0Zm-42.9-53.75l22.54-22.53,11.2,.48c-1.76,2.23-3.48,4.54-5.14,6.87h0c-4.16,5.85-7.9,11.99-11.19,18.36l-17.41-3.19h0Zm124.53,11.03c15.02-22.86,22.38-49.89,21.02-77.21-.07-1.39-.66-2.71-1.64-3.7-.99-.99-2.31-1.57-3.7-1.64-27.14-1.34-54.02,5.93-76.78,20.77-7.51,5.09-14.37,11.07-20.43,17.83l-22.44-.95c-1.57-.07-3.1,.52-4.21,1.63l-31.87,31.88c-.98,.97-1.56,2.26-1.65,3.63-.08,1.37,.34,2.73,1.19,3.81,.85,1.08,2.07,1.81,3.42,2.05l25.3,4.62c-1.82,4.74-3.02,9.7-3.57,14.75l-7.59,7.57h0c-1.05,1.06-1.64,2.49-1.64,3.98s.59,2.92,1.64,3.98l28.43,28.42c1.05,1.06,2.48,1.66,3.97,1.66s2.92-.6,3.97-1.66l7.59-7.6h0c5.05-.54,10-1.74,14.73-3.56l4.59,25.31h0c.19,1.01,.64,1.95,1.32,2.72,.68,.77,1.55,1.34,2.53,1.65,.54,.17,1.11,.25,1.67,.25,1.49,0,2.93-.59,3.98-1.65l31.86-31.86c1.12-1.11,1.71-2.64,1.64-4.21l-.96-22.42h0c6.66-5.93,12.57-12.66,17.6-20.02h0Z"/><path class="cls-5" d="M1443.04,775.76c1.05,1.06,1.64,2.49,1.64,3.98s-.59,2.92-1.64,3.98l-21.82,21.83c-1.06,1.04-2.49,1.63-3.97,1.63-1.49,0-2.92-.59-3.97-1.65-1.05-1.05-1.64-2.48-1.64-3.97,0-1.49,.59-2.92,1.64-3.97l21.83-21.82c1.06-1.05,2.49-1.64,3.97-1.64s2.92,.59,3.97,1.64h0Zm20.16-34.04c1.84-1.83,4.34-2.86,6.94-2.86s5.09,1.03,6.93,2.86c1.84,1.84,2.87,4.33,2.87,6.94s-1.03,5.1-2.87,6.94-4.34,2.87-6.94,2.87-5.1-1.03-6.94-2.87c-1.84-1.84-2.87-4.33-2.87-6.94s1.03-5.1,2.87-6.94h0Zm6.94,28c6.55,0,12.72-3.04,16.71-8.23,3.99-5.19,5.34-11.94,3.64-18.27-1.69-6.33-6.23-11.5-12.28-14.01-6.05-2.51-12.92-2.06-18.59,1.21-5.67,3.27-9.5,8.99-10.36,15.49-.86,6.49,1.36,13.01,5.98,17.64,3.94,3.96,9.3,6.18,14.88,6.17h0Zm-102.62,76.5h0c2.19-.83,4.32-1.83,6.36-2.99l1.68,1.68c-1.15,2.05-2.15,4.18-3,6.37-2.11,5.07-4.09,9.88-10.86,14.22-4.03,2.67-8.62,4.38-13.42,4.99,.62-4.75,2.3-9.3,4.92-13.31,4.37-6.85,9.19-8.83,14.31-10.96h0Zm-23.78,4.91c-4.91,7.55-7.31,16.45-6.86,25.44,.07,1.39,.65,2.71,1.64,3.7,.99,.99,2.3,1.57,3.7,1.64,.72,.02,1.43,.05,2.14,.05h0c8.32,0,16.46-2.44,23.42-7,9.72-6.25,12.74-13.55,15.16-19.39h0c.86-2.64,2.21-5.09,3.99-7.22,1.05-1.05,1.64-2.48,1.64-3.96s-.59-2.91-1.64-3.96l-8.56-8.59c-1.06-1.05-2.48-1.64-3.97-1.64s-2.92,.59-3.97,1.64c-2.13,1.78-4.57,3.15-7.21,4.01-5.89,2.44-13.22,5.45-19.49,15.29h0Zm123.72-25.79l-22.54,22.53-3.17-17.41c6.3-3.26,12.37-6.96,18.17-11.06,2.4-1.71,4.75-3.46,7.06-5.27l.48,11.21Zm-53.66,2.26c9.99-.3,24.43-6.65,39.65-17.38,13.93-9.84,26.4-21.88,32.52-31.41,12.76-19.42,19.51-42.16,19.39-65.4h-.67c-22.84,.01-45.19,6.66-64.33,19.13-9.65,6.15-21.79,18.66-31.69,32.61-10.81,15.25-17.18,29.75-17.51,39.81h0c-.04,1.43-.63,2.79-1.64,3.8l-5.12,5.12,20.48,20.49,5.12-5.12c1.01-1.01,2.37-1.6,3.8-1.66h0Zm-42.9-53.75l22.54-22.53,11.2,.48c-1.76,2.23-3.48,4.54-5.14,6.87h0c-4.16,5.85-7.9,11.99-11.19,18.36l-17.41-3.19h0Zm124.53,11.03c15.02-22.86,22.38-49.89,21.02-77.21-.07-1.39-.66-2.71-1.64-3.7-.99-.99-2.31-1.57-3.7-1.64-27.14-1.34-54.02,5.93-76.78,20.77-7.51,5.09-14.37,11.07-20.43,17.83l-22.44-.95c-1.57-.07-3.1,.52-4.21,1.63l-31.87,31.88c-.98,.97-1.56,2.26-1.65,3.63-.08,1.37,.34,2.73,1.19,3.81,.85,1.08,2.07,1.81,3.42,2.05l25.3,4.62c-1.82,4.74-3.02,9.7-3.57,14.75l-7.59,7.57h0c-1.05,1.06-1.64,2.49-1.64,3.98s.59,2.92,1.64,3.98l28.43,28.42c1.05,1.06,2.48,1.66,3.97,1.66s2.92-.6,3.97-1.66l7.59-7.6h0c5.05-.54,10-1.74,14.73-3.56l4.59,25.31h0c.19,1.01,.64,1.95,1.32,2.72,.68,.77,1.55,1.34,2.53,1.65,.54,.17,1.11,.25,1.67,.25,1.49,0,2.93-.59,3.98-1.65l31.86-31.86c1.12-1.11,1.71-2.64,1.64-4.21l-.96-22.42h0c6.66-5.93,12.57-12.66,17.6-20.02h0Z"/><path class="cls-5" d="M1937.7,775.76c1.05,1.06,1.64,2.49,1.64,3.98s-.59,2.92-1.64,3.98l-21.82,21.83c-1.06,1.04-2.49,1.63-3.97,1.63-1.49,0-2.92-.59-3.97-1.65-1.05-1.05-1.64-2.48-1.64-3.97,0-1.49,.59-2.92,1.64-3.97l21.83-21.82c1.06-1.05,2.49-1.64,3.97-1.64s2.92,.59,3.97,1.64h0Zm20.16-34.04c1.84-1.83,4.34-2.86,6.94-2.86s5.09,1.03,6.93,2.86c1.84,1.84,2.87,4.33,2.87,6.94s-1.03,5.1-2.87,6.94-4.34,2.87-6.94,2.87-5.1-1.03-6.94-2.87c-1.84-1.84-2.87-4.33-2.87-6.94s1.03-5.1,2.87-6.94h0Zm6.94,28c6.55,0,12.72-3.04,16.71-8.23,3.99-5.19,5.34-11.94,3.64-18.27-1.69-6.33-6.23-11.5-12.28-14.01-6.05-2.51-12.92-2.06-18.59,1.21-5.67,3.27-9.5,8.99-10.36,15.49-.86,6.49,1.36,13.01,5.98,17.64,3.94,3.96,9.3,6.18,14.88,6.17h0Zm-102.62,76.5h0c2.19-.83,4.32-1.83,6.36-2.99l1.68,1.68c-1.15,2.05-2.15,4.18-3,6.37-2.11,5.07-4.09,9.88-10.86,14.22-4.03,2.67-8.62,4.38-13.42,4.99,.62-4.75,2.3-9.3,4.92-13.31,4.37-6.85,9.19-8.83,14.31-10.96h0Zm-23.78,4.91c-4.91,7.55-7.31,16.45-6.86,25.44,.07,1.39,.65,2.71,1.64,3.7,.99,.99,2.3,1.57,3.7,1.64,.72,.02,1.43,.05,2.14,.05h0c8.32,0,16.46-2.44,23.42-7,9.72-6.25,12.74-13.55,15.16-19.39h0c.86-2.64,2.21-5.09,3.99-7.22,1.05-1.05,1.64-2.48,1.64-3.96s-.59-2.91-1.64-3.96l-8.56-8.59c-1.06-1.05-2.48-1.64-3.97-1.64s-2.92,.59-3.97,1.64c-2.13,1.78-4.57,3.15-7.21,4.01-5.89,2.44-13.22,5.45-19.49,15.29h0Zm123.72-25.79l-22.54,22.53-3.17-17.41c6.3-3.26,12.37-6.96,18.17-11.06,2.4-1.71,4.75-3.46,7.06-5.27l.48,11.21Zm-53.66,2.26c9.99-.3,24.43-6.65,39.65-17.38,13.93-9.84,26.4-21.88,32.52-31.41,12.76-19.42,19.51-42.16,19.39-65.4h-.67c-22.84,.01-45.19,6.66-64.33,19.13-9.65,6.15-21.79,18.66-31.69,32.61-10.81,15.25-17.18,29.75-17.51,39.81h0c-.04,1.43-.63,2.79-1.64,3.8l-5.12,5.12,20.48,20.49,5.12-5.12c1.01-1.01,2.37-1.6,3.8-1.66h0Zm-42.9-53.75l22.54-22.53,11.2,.48c-1.76,2.23-3.48,4.54-5.14,6.87h0c-4.16,5.85-7.9,11.99-11.19,18.36l-17.41-3.19h0Zm124.53,11.03c15.02-22.86,22.38-49.89,21.02-77.21-.07-1.39-.66-2.71-1.64-3.7-.99-.99-2.31-1.57-3.7-1.64-27.14-1.34-54.02,5.93-76.78,20.77-7.51,5.09-14.37,11.07-20.43,17.83l-22.44-.95c-1.57-.07-3.1,.52-4.21,1.63l-31.87,31.88c-.98,.97-1.56,2.26-1.65,3.63-.08,1.37,.34,2.73,1.19,3.81,.85,1.08,2.07,1.81,3.42,2.05l25.3,4.62c-1.82,4.74-3.02,9.7-3.57,14.75l-7.59,7.57h0c-1.05,1.06-1.64,2.49-1.64,3.98s.59,2.92,1.64,3.98l28.43,28.42c1.05,1.06,2.48,1.66,3.97,1.66s2.92-.6,3.97-1.66l7.59-7.6h0c5.05-.54,10-1.74,14.73-3.56l4.59,25.31h0c.19,1.01,.64,1.95,1.32,2.72,.68,.77,1.55,1.34,2.53,1.65,.54,.17,1.11,.25,1.67,.25,1.49,0,2.93-.59,3.98-1.65l31.86-31.86c1.12-1.11,1.71-2.64,1.64-4.21l-.96-22.42h0c6.66-5.93,12.57-12.66,17.6-20.02h0Z"/></g></g></g></svg>