<svg id="pdc_rvb" xmlns="http://www.w3.org/2000/svg" viewBox="0 0 737.77 624.92"><defs><style>.cls-1{fill:#fff;}.cls-2{fill:#e93d3d;}.cls-3{fill:#ffc007;}.cls-4{fill:#f60;}.cls-5{fill:#6a40bb;}.cls-6{fill:#141516;}.cls-7{fill:#38a6da;}.cls-8{fill:#3a9d74;}</style></defs><path class="cls-1" d="M1051.52,369.61c1.09-10.64.11-22.27-3-35.57-3-12.8-6.92-23.33-12.06-32.16a67.7,67.7,0,0,0-36.27-30.08q2.28-7,4-14.5a142.37,142.37,0,0,0,0-64.89c-9-38.8-30.67-70.46-64.4-94.09A141.75,141.75,0,0,0,857,72a164.53,164.53,0,0,0-37.09,4.39c-43.49,10.08-77.33,35-97.84,71.93A162.82,162.82,0,0,0,703.55,200c-1.55-.07-3.13-.12-4.76-.12-36,0-53.14,16.27-61.28,30.68a64.23,64.23,0,0,0-7.91,20.84,115.75,115.75,0,0,0-93.76-1,103.2,103.2,0,0,0-27-31.19c-22.2-17.06-46.27-25.72-71.55-25.72H384.89c-39.13,0-55.81,20.29-62.34,32.66a68,68,0,0,0-7.6,23.06,114.6,114.6,0,0,0-.77,14.75V399.82c0,11.56,1.35,20.78,4.26,29A61.32,61.32,0,0,0,335,453.57a136.67,136.67,0,0,0-20.61,74A143.81,143.81,0,0,0,324.36,581c6.67,16.74,15.68,31,26.76,42.54a150.23,150.23,0,0,0,33.52,26.1,148.56,148.56,0,0,0,36.59,15.21,143.63,143.63,0,0,0,35.7,4.6,129.83,129.83,0,0,0,38.74-6.15c12.88-4,20.77-7.29,27.21-11.19l8.58-5.23a88.19,88.19,0,0,0,7.76-5.36V649l3.33,8.55c8.54,22,28.77,35.59,52.79,35.59h.09q47.21-.06,94.38-.05h55.58c17.45,0,32.94-6.11,44.56-16.41,16.87,13,39.1,20.27,65.32,20.27,17.58,0,32.8-4.7,45.25-14,10.83-8.07,23.6-23.26,25.26-50.44a143.6,143.6,0,0,0,17.66,1.11c24.47,0,42.88-2.93,57.95-9.22,27-11.28,43.09-34.26,43.09-61.49a68,68,0,0,0-3.28-20.62c5.49-10.06,9.65-23.38,9.65-40.67a98.13,98.13,0,0,0-16.29-54.54l-.19-.28a100.36,100.36,0,0,0-20.91-22.92,81.61,81.61,0,0,0,15.06-10.13C1041.55,403,1049.7,387.38,1051.52,369.61Z" transform="translate(-314.18 -72)"/><path class="cls-2" d="M495.48,278.71a64.7,64.7,0,0,1,6.36,28.87,63.94,63.94,0,0,1-6.36,28.75,56.67,56.67,0,0,1-16.39,20.43Q458.77,372.42,437,372.42H406.42v27.64a69.62,69.62,0,0,1-.37,8.44,19.61,19.61,0,0,1-2.32,6.49q-3.44,6.6-19.09,6.6-17.13,0-20.06-9-1.47-4.16-1.47-12.72V264a69.73,69.73,0,0,1,.37-8.44,19.38,19.38,0,0,1,2.32-6.49q3.43-6.6,19.09-6.6h52.36q21.53,0,41.84,15.66A56.27,56.27,0,0,1,495.48,278.71Zm-43.8,45q7.1-5.39,7.1-16.15t-7.1-16.27q-7.1-5.51-14.68-5.51H406.42v43.31h30.83Q444.59,329.11,451.68,323.73Z" transform="translate(-314.18 -72)"/><path class="cls-3" d="M534.62,309.05q20.55-19.1,47-19.09t46.73,19q20.31,19,20.31,48.33,0,20.31-10.52,36.09t-25.57,23.24a69.33,69.33,0,0,1-31.2,7.46,66.65,66.65,0,0,1-31.31-8,69.36,69.36,0,0,1-25.57-23.49,61.61,61.61,0,0,1-10.4-35.11Q514.07,328.14,534.62,309.05ZM565.21,375q7.81,6,15.9,6t16.15-6.12q8.07-6.11,8.07-18.1t-7.58-17.86a26.24,26.24,0,0,0-16.4-5.88A25.66,25.66,0,0,0,565,339.14q-7.59,6.12-7.58,18T565.21,375Z" transform="translate(-314.18 -72)"/><path class="cls-4" d="M735.74,336.2l-15.9-1V369q0,6.6,2.08,9.54t7.83,2.94a77.81,77.81,0,0,1,8.8.37,17.43,17.43,0,0,1,6.49,2.32q5.63,3.18,5.62,16.39,0,15.42-6.85,18.84a22.66,22.66,0,0,1-6.48,2.08,67.13,67.13,0,0,1-8.2.37q-25.44,0-38.66-11.5t-13.21-38.9V335.23a64.33,64.33,0,0,1-10,.73,11.21,11.21,0,0,1-8.93-4.16q-3.56-4.16-3.55-14.19T656,303.05q1.21-4.51,3.42-6.48a15,15,0,0,1,9.79-3.18l8.07,1v-25.2a68.51,68.51,0,0,1,.37-8.32A15.46,15.46,0,0,1,680,255q3.18-6.1,18.84-6.11,16.63,0,19.82,9.05,1.23,3.91,1.23,12.48v24q10.75-1,16.27-1a68.18,68.18,0,0,1,8.31.37,19.61,19.61,0,0,1,6.49,2.32q6.36,3.18,6.36,18.84,0,15.42-6.61,18.84a22.88,22.88,0,0,1-6.48,2.08A72.5,72.5,0,0,1,735.74,336.2Z" transform="translate(-314.18 -72)"/><path class="cls-5" d="M960,319.13q15.4-3.58,22.82-1.53a18.39,18.39,0,0,1,11.36,8.85q4,6.81,6.7,18.65t2,19.55c-.53,5.14-2.46,9-5.82,11.65q-7.21,6.42-22.26,9.91l-147,34.09q-13.53,3.13-25.66-4.75a34,34,0,0,1-15.27-21.41q-4.7-20.29,5.43-40.67a138.61,138.61,0,0,1,27.22-37.21q17.09-16.83,34.26-33.3a158.35,158.35,0,0,0,27.79-34.77q10.61-18.3,6.68-35.22-.78-3.37-4.85-9a43.55,43.55,0,0,0-8.18-8.8q-4.11-3.21-11.66-5t-19.58,1a29.27,29.27,0,0,0-18.81,13.68q-6.79,10.88-5.91,19.79l.5,9,.52,2.26a103.94,103.94,0,0,1,2.32,12.53,27.66,27.66,0,0,1-1.4,10.23Q817.65,269,794,274.45q-26.33,6.1-34.52-7.05-3.27-5.58-6.32-18.74-9.07-39.09,11.74-76.59t66.11-48q45.3-10.5,80.77,14.35t44.8,65.07a93.53,93.53,0,0,1,0,42.78q-5,21.35-15.41,36.05-22.06,31.26-41.86,45l-8.53,5.94.44,1.88Z" transform="translate(-314.18 -72)"/><path class="cls-5" d="M558.49,481.6q20.55-19.08,47-19.08t46.74,19q20.29,19,20.3,48.32,0,20.31-10.52,36.09t-25.57,23.24a69.33,69.33,0,0,1-31.19,7.47,66.71,66.71,0,0,1-31.32-8,69.52,69.52,0,0,1-25.57-23.49,61.7,61.7,0,0,1-10.39-35.11Q537.94,500.68,558.49,481.6Zm30.58,65.94q7.83,6,15.91,6t16.14-6.11q8.08-6.12,8.08-18.11t-7.59-17.86a26.26,26.26,0,0,0-16.39-5.87,25.58,25.58,0,0,0-16.39,6.12q-7.59,6.12-7.59,18T589.07,547.54Z" transform="translate(-314.18 -72)"/><path class="cls-6" d="M848.17,603.71c1.31,1,4.65,1.46,10,1.46s9.86,1.39,13.45,4.16,5.38,8.49,5.38,17.13-1.91,14.4-5.75,17.25-9.17,4.28-16,4.28q-51.87,0-51.87-51.38l-.24-116.71a72.5,72.5,0,0,1,.36-8.44,19.69,19.69,0,0,1,2.33-6.48q3.66-6.36,19.08-6.36,14.93,0,18.6,6.85,2.69,5.38,2.69,14.68V597.59Q846.22,602.24,848.17,603.71Z" transform="translate(-314.18 -72)"/><path class="cls-7" d="M1001.91,501.63q0,15-7.46,22.27t-16.51,7.22H920q0,6.84,8.07,11.5a32.13,32.13,0,0,0,16.15,4.64q14.19,0,22.27-2.93l2.69-1q5.86-2.69,9.78-2.69,7.83,0,13.46,11c2.12,4.4,3.18,8.16,3.18,11.25q0,21.78-52.11,21.78-18.12,0-32.18-6.24t-21.89-16.52A70.32,70.32,0,0,1,874,517.66q0-30.82,19.94-49.3t49.79-18.47q34,0,49.91,24A49.73,49.73,0,0,1,1001.91,501.63Zm-51.62,7.22c6.19,0,9.3-2.61,9.3-7.83a11,11,0,0,0-4.29-9q-4.27-3.42-12.23-3.43T927.29,495q-7.83,6.48-7.83,13.82Z" transform="translate(-314.18 -72)"/><path class="cls-8" d="M479.07,571.1l4.4-3.18q8.32-4.89,11.75-4.89,7.57,0,16.39,13.7,5.39,8.57,5.38,13.7a11.87,11.87,0,0,1-3.3,8.57,38.38,38.38,0,0,1-7.71,6.11q-4.39,2.7-8.44,5.14T481,616.61a80.43,80.43,0,0,1-24.1,3.92,93.78,93.78,0,0,1-23.49-3.06A99,99,0,0,1,409,607.19a101.15,101.15,0,0,1-22.63-17.61q-10-10.4-16.52-26.67a94.7,94.7,0,0,1-6.48-35.36,90.61,90.61,0,0,1,6.36-34.62q6.36-15.53,16.27-25.69a93.31,93.31,0,0,1,22.64-17Q432.58,437,456.8,437a81.46,81.46,0,0,1,23.37,3.54q11.86,3.56,18,7.22l5.88,3.43q4.39,2.68,6.85,4.4,6.36,5.14,6.36,11.62t-5.14,13.58Q502.56,494,495,494q-4.39,0-12.48-5.38-10.26-8.31-27.4-8.32-15.9,0-31.32,11a41.21,41.21,0,0,0-12.23,15.17,52.59,52.59,0,0,0,0,44.29A42.24,42.24,0,0,0,424,566.21Q438.93,577,455.09,577a50.92,50.92,0,0,0,14.32-2A37,37,0,0,0,479.07,571.1Z" transform="translate(-314.18 -72)"/><path class="cls-3" d="M769.2,458.75c3.22,1.18,4.37,3.53,4.33,6.89-.1,10.74,0,21.47,0,32.21,0,4-1.4,5.79-5.59,6.76v2.23q0,50.49,0,101c0,3.4-.75,6.09-4.47,7.08-.32.09-.61.94-.62,1.44-.05,3.5,0,7,0,10.49-.06,10.41-7,17.3-17.43,17.3q-75,0-150,0c-3.51,0-5.93-1.09-7.21-4.39v-2.18c1.28-3.31,3.71-4.4,7.21-4.39q55.83.12,111.68,0H709V615.14c-4.13-1.18-5.34-2.8-5.34-6.68V504.64c-4.38-1.12-5.58-2.68-5.59-7.06,0-10.62.07-21.24,0-31.85,0-3.34,1-5.73,4.22-7ZM756.9,604V504.56H714.58V604Zm-37.26,11c0,4.65-.16,9.22.07,13.77.12,2.45,2.64,4.4,5.2,4.42q10.86.09,21.7,0a5.19,5.19,0,0,0,5.23-4.79c.17-4.39,0-8.78,0-13.4Zm32.13-121.63h10.74V469.74H751.77Zm-21.7,0H740.7V469.75H730.07ZM709,469.67v23.76h10V469.67Z" transform="translate(-314.18 -72)"/></svg>