<?xml version="1.0" standalone="no"?>
<!DOCTYPE svg PUBLIC "-//W3C//DTD SVG 20010904//EN"
 "http://www.w3.org/TR/2001/REC-SVG-20010904/DTD/svg10.dtd">
<svg version="1.0" xmlns="http://www.w3.org/2000/svg"
 width="738.000000pt" height="738.000000pt" viewBox="0 0 738.000000 738.000000"
 preserveAspectRatio="xMidYMid meet">
<metadata>
Created by potrace 1.14, written by Peter Selinger 2001-2017
</metadata>
<g transform="translate(0.000000,738.000000) scale(0.100000,-0.100000)"
fill="#000000" stroke="none">
<path d="M5240 6799 c-25 -4 -63 -10 -84 -13 -209 -34 -468 -137 -644 -258
-156 -107 -337 -310 -435 -489 -13 -25 -30 -54 -35 -65 -19 -34 -52 -112 -82
-197 -29 -82 -33 -96 -53 -194 l-10 -53 -76 -1 c-87 -1 -111 -4 -201 -25 -70
-17 -200 -75 -229 -102 -10 -9 -34 -31 -52 -48 -19 -17 -44 -43 -57 -58 -36
-43 -97 -165 -112 -223 -13 -49 -15 -52 -39 -46 -14 3 -30 9 -36 13 -5 5 -30
14 -55 21 -25 7 -49 14 -55 15 -27 8 -103 26 -130 31 -56 9 -270 12 -325 3
-115 -18 -136 -23 -222 -52 -49 -16 -91 -28 -92 -26 -2 1 -19 28 -39 58 -48
72 -159 198 -174 199 -7 1 -13 5 -13 9 0 5 -21 24 -47 43 -27 18 -52 37 -58
41 -42 34 -152 92 -265 142 -56 24 -177 53 -265 63 -33 4 -220 7 -415 6 -294
0 -367 -3 -425 -17 -82 -19 -169 -52 -207 -78 -14 -10 -29 -18 -32 -18 -14 0
-101 -83 -144 -137 -33 -42 -95 -167 -108 -218 -1 -5 -6 -23 -10 -40 -5 -16
-9 -399 -10 -850 -2 -752 -1 -827 15 -900 10 -44 26 -100 36 -125 22 -54 83
-146 123 -186 l28 -29 -33 -60 c-18 -33 -36 -67 -39 -75 -3 -8 -13 -30 -21
-48 -16 -37 -53 -139 -58 -162 -1 -8 -8 -33 -14 -55 -10 -41 -19 -86 -28 -140
-11 -73 -9 -334 4 -409 18 -114 35 -189 45 -202 5 -7 8 -16 7 -20 -2 -9 0 -17
28 -89 27 -68 96 -210 105 -213 4 -2 8 -8 8 -14 0 -9 54 -92 75 -114 5 -7 25
-31 44 -54 36 -44 103 -109 161 -156 19 -16 37 -31 40 -35 27 -32 248 -160
360 -207 72 -31 216 -74 245 -73 2 0 19 -4 36 -9 106 -31 444 -30 501 1 10 5
18 8 18 5 0 -3 15 0 33 5 17 6 41 12 52 14 12 3 48 14 80 25 33 12 75 26 94
31 42 13 145 68 233 125 l68 44 0 -34 c0 -37 43 -150 83 -219 73 -124 240
-232 390 -253 59 -8 1604 -7 1679 1 35 4 71 11 81 16 9 6 17 7 17 4 0 -2 25 5
56 16 63 24 174 87 174 99 0 20 35 18 64 -3 79 -59 258 -134 364 -153 21 -3
48 -8 62 -11 50 -10 286 -11 335 -2 28 6 60 12 73 15 30 6 124 43 138 55 6 5
14 6 17 2 4 -3 7 -1 7 5 0 7 5 12 10 12 11 0 68 40 114 80 28 24 105 122 108
137 1 5 7 13 13 20 21 21 73 191 79 263 2 14 4 30 4 36 1 8 15 9 41 4 65 -12
407 -1 461 15 8 2 31 7 50 11 48 8 48 8 113 28 89 26 196 79 265 131 8 6 43
39 79 75 111 111 184 295 177 446 -4 76 -11 130 -22 169 -7 22 -5 39 8 65 10
19 23 53 29 75 7 22 15 47 18 55 5 14 11 42 17 80 1 9 4 20 7 25 7 12 3 268
-4 305 -11 56 -40 157 -54 190 -28 66 -77 165 -83 170 -3 3 -22 28 -40 55 -19
28 -67 83 -107 123 l-73 72 58 37 c144 91 257 245 300 411 34 127 18 379 -32
522 -9 25 -16 50 -16 56 0 6 -7 28 -15 48 -8 20 -16 39 -16 43 -4 33 -112 195
-164 248 -45 44 -131 103 -192 131 l-59 27 23 86 c38 143 52 268 48 424 -2 78
-6 153 -9 167 -4 14 -9 38 -11 53 -5 23 -18 80 -40 167 -2 8 -4 16 -5 18 -2 1
-3 6 -4 11 0 5 -4 13 -8 17 -5 4 -8 18 -8 31 0 12 -4 23 -10 23 -5 0 -10 7
-10 16 0 26 -94 213 -147 290 -177 262 -454 488 -733 597 -77 30 -209 67 -265
74 -22 3 -57 8 -78 13 -46 10 -304 9 -367 -1z"/>
</g>
</svg>
